%TF.GenerationSoftware,KiCad,Pcbnew,6.0.2+dfsg-1*%
%TF.CreationDate,2022-08-12T08:44:16-04:00*%
%TF.ProjectId,attiny_devboard,61747469-6e79-45f6-9465-76626f617264,rev?*%
%TF.SameCoordinates,Original*%
%TF.FileFunction,Soldermask,Top*%
%TF.FilePolarity,Negative*%
%FSLAX46Y46*%
G04 Gerber Fmt 4.6, Leading zero omitted, Abs format (unit mm)*
G04 Created by KiCad (PCBNEW 6.0.2+dfsg-1) date 2022-08-12 08:44:16*
%MOMM*%
%LPD*%
G01*
G04 APERTURE LIST*
G04 Aperture macros list*
%AMRoundRect*
0 Rectangle with rounded corners*
0 $1 Rounding radius*
0 $2 $3 $4 $5 $6 $7 $8 $9 X,Y pos of 4 corners*
0 Add a 4 corners polygon primitive as box body*
4,1,4,$2,$3,$4,$5,$6,$7,$8,$9,$2,$3,0*
0 Add four circle primitives for the rounded corners*
1,1,$1+$1,$2,$3*
1,1,$1+$1,$4,$5*
1,1,$1+$1,$6,$7*
1,1,$1+$1,$8,$9*
0 Add four rect primitives between the rounded corners*
20,1,$1+$1,$2,$3,$4,$5,0*
20,1,$1+$1,$4,$5,$6,$7,0*
20,1,$1+$1,$6,$7,$8,$9,0*
20,1,$1+$1,$8,$9,$2,$3,0*%
%AMRotRect*
0 Rectangle, with rotation*
0 The origin of the aperture is its center*
0 $1 length*
0 $2 width*
0 $3 Rotation angle, in degrees counterclockwise*
0 Add horizontal line*
21,1,$1,$2,0,0,$3*%
G04 Aperture macros list end*
%ADD10RoundRect,0.225000X-0.335876X-0.017678X-0.017678X-0.335876X0.335876X0.017678X0.017678X0.335876X0*%
%ADD11RoundRect,0.250000X-0.600000X-0.600000X0.600000X-0.600000X0.600000X0.600000X-0.600000X0.600000X0*%
%ADD12C,1.700000*%
%ADD13RoundRect,0.062500X-0.203293X-0.291682X0.291682X0.203293X0.203293X0.291682X-0.291682X-0.203293X0*%
%ADD14RoundRect,0.062500X0.203293X-0.291682X0.291682X-0.203293X-0.203293X0.291682X-0.291682X0.203293X0*%
%ADD15RotRect,2.600000X2.600000X45.000000*%
%ADD16O,1.700000X2.900000*%
%ADD17O,1.700000X2.980000*%
%ADD18C,1.208000*%
%ADD19R,1.700000X1.700000*%
%ADD20O,1.700000X1.700000*%
G04 APERTURE END LIST*
D10*
%TO.C,C2*%
X135087992Y-98511992D03*
X136184008Y-99608008D03*
%TD*%
%TO.C,C1*%
X136103992Y-97495992D03*
X137200008Y-98592008D03*
%TD*%
D11*
%TO.C,J1*%
X137160000Y-80010000D03*
D12*
X139700000Y-80010000D03*
X137160000Y-82550000D03*
X139700000Y-82550000D03*
X137160000Y-85090000D03*
X139700000Y-85090000D03*
%TD*%
D13*
%TO.C,U1*%
X136176097Y-95437476D03*
X136529651Y-95791029D03*
X136883204Y-96144583D03*
X137236757Y-96498136D03*
X137590311Y-96851689D03*
X137943864Y-97205243D03*
D14*
X138916136Y-97205243D03*
X139269689Y-96851689D03*
X139623243Y-96498136D03*
X139976796Y-96144583D03*
X140330349Y-95791029D03*
X140683903Y-95437476D03*
D13*
X140683903Y-94465204D03*
X140330349Y-94111651D03*
X139976796Y-93758097D03*
X139623243Y-93404544D03*
X139269689Y-93050991D03*
X138916136Y-92697437D03*
D14*
X137943864Y-92697437D03*
X137590311Y-93050991D03*
X137236757Y-93404544D03*
X136883204Y-93758097D03*
X136529651Y-94111651D03*
X136176097Y-94465204D03*
D15*
X138430000Y-94951340D03*
%TD*%
D16*
%TO.C,J2*%
X142080000Y-106904000D03*
D17*
X134780000Y-106904000D03*
D18*
X140030000Y-101854000D03*
X139230000Y-103054000D03*
X138430000Y-101854000D03*
X137630000Y-103054000D03*
X136830000Y-101854000D03*
%TD*%
D19*
%TO.C,J4*%
X144780000Y-106680000D03*
D20*
X144780000Y-104140000D03*
X144780000Y-101600000D03*
X144780000Y-99060000D03*
X144780000Y-96520000D03*
X144780000Y-93980000D03*
X144780000Y-91440000D03*
X144780000Y-88900000D03*
X144780000Y-86360000D03*
X144780000Y-83820000D03*
X144780000Y-81280000D03*
X144780000Y-78740000D03*
X144780000Y-76200000D03*
%TD*%
D19*
%TO.C,J3*%
X132080000Y-76200000D03*
D20*
X132080000Y-78740000D03*
X132080000Y-81280000D03*
X132080000Y-83820000D03*
X132080000Y-86360000D03*
X132080000Y-88900000D03*
X132080000Y-91440000D03*
X132080000Y-93980000D03*
X132080000Y-96520000D03*
X132080000Y-99060000D03*
X132080000Y-101600000D03*
X132080000Y-104140000D03*
X132080000Y-106680000D03*
%TD*%
M02*
