%FSLAX45Y45*%
G04 Gerber Fmt 4.5, Leading zero omitted, Abs format (unit mm)*
G04 Created by KiCad (PCBNEW 6.0.2+dfsg-1) date 2022-08-12 08:44:58*
%MOMM*%
%LPD*%
G01*
G04 APERTURE LIST*
%TA.AperFunction,Profile*%
%ADD10C,0.100000*%
%TD*%
%ADD11C,0.200000*%
G04 APERTURE END LIST*
D10*
X14782800Y-10871200D02*
X14782800Y-7416800D01*
X14782800Y-7416800D02*
X12903200Y-7416800D01*
X12903200Y-7416800D02*
X12903200Y-10871200D01*
X12903200Y-10871200D02*
X14782800Y-10871200D01*
D11*
X13155819Y-11186676D02*
X13155819Y-10986676D01*
X13203438Y-10986676D01*
X13232009Y-10996200D01*
X13251057Y-11015248D01*
X13260581Y-11034295D01*
X13270105Y-11072390D01*
X13270105Y-11100962D01*
X13260581Y-11139057D01*
X13251057Y-11158105D01*
X13232009Y-11177152D01*
X13203438Y-11186676D01*
X13155819Y-11186676D01*
X13355819Y-11186676D02*
X13355819Y-11053343D01*
X13355819Y-11091438D02*
X13365343Y-11072390D01*
X13374867Y-11062867D01*
X13393914Y-11053343D01*
X13412962Y-11053343D01*
X13479628Y-11186676D02*
X13479628Y-11053343D01*
X13479628Y-10986676D02*
X13470105Y-10996200D01*
X13479628Y-11005724D01*
X13489152Y-10996200D01*
X13479628Y-10986676D01*
X13479628Y-11005724D01*
X13603438Y-11186676D02*
X13584390Y-11177152D01*
X13574867Y-11158105D01*
X13574867Y-10986676D01*
X13708200Y-11186676D02*
X13689152Y-11177152D01*
X13679628Y-11158105D01*
X13679628Y-10986676D01*
X13936771Y-11186676D02*
X13936771Y-10986676D01*
X14003438Y-11129533D01*
X14070105Y-10986676D01*
X14070105Y-11186676D01*
X14251057Y-11186676D02*
X14251057Y-11081914D01*
X14241533Y-11062867D01*
X14222486Y-11053343D01*
X14184390Y-11053343D01*
X14165343Y-11062867D01*
X14251057Y-11177152D02*
X14232009Y-11186676D01*
X14184390Y-11186676D01*
X14165343Y-11177152D01*
X14155819Y-11158105D01*
X14155819Y-11139057D01*
X14165343Y-11120010D01*
X14184390Y-11110486D01*
X14232009Y-11110486D01*
X14251057Y-11100962D01*
X14346295Y-11053343D02*
X14346295Y-11253343D01*
X14346295Y-11062867D02*
X14365343Y-11053343D01*
X14403438Y-11053343D01*
X14422486Y-11062867D01*
X14432009Y-11072390D01*
X14441533Y-11091438D01*
X14441533Y-11148581D01*
X14432009Y-11167629D01*
X14422486Y-11177152D01*
X14403438Y-11186676D01*
X14365343Y-11186676D01*
X14346295Y-11177152D01*
X14527248Y-11167629D02*
X14536771Y-11177152D01*
X14527248Y-11186676D01*
X14517724Y-11177152D01*
X14527248Y-11167629D01*
X14527248Y-11186676D01*
X14527248Y-11062867D02*
X14536771Y-11072390D01*
X14527248Y-11081914D01*
X14517724Y-11072390D01*
X14527248Y-11062867D01*
X14527248Y-11081914D01*
M02*
