M48
; DRILL file {KiCad 6.0.2+dfsg-1} date Fri 12 Aug 2022 08:44:58 AM
; FORMAT={-:-/ absolute / metric / decimal}
; #@! TF.CreationDate,2022-08-12T08:44:58-04:00
; #@! TF.GenerationSoftware,Kicad,Pcbnew,6.0.2+dfsg-1
; #@! TF.FileFunction,Plated,1,2,PTH
FMAT,2
METRIC
; #@! TA.AperFunction,Plated,PTH,ViaDrill
T1C0.400
; #@! TA.AperFunction,Plated,PTH,ComponentDrill
T2C0.700
; #@! TA.AperFunction,Plated,PTH,ComponentDrill
T3C0.800
; #@! TA.AperFunction,Plated,PTH,ComponentDrill
T4C1.000
%
G90
G05
T1
X135.088Y-98.512
X136.104Y-97.496
X138.176Y-99.314
X138.87Y-100.073
T2
X136.83Y-101.854
X137.63Y-103.054
X138.43Y-101.854
X139.23Y-103.054
X140.03Y-101.854
T4
X132.08Y-76.2
X132.08Y-78.74
X132.08Y-81.28
X132.08Y-83.82
X132.08Y-86.36
X132.08Y-88.9
X132.08Y-91.44
X132.08Y-93.98
X132.08Y-96.52
X132.08Y-99.06
X132.08Y-101.6
X132.08Y-104.14
X132.08Y-106.68
X137.16Y-80.01
X137.16Y-82.55
X137.16Y-85.09
X139.7Y-80.01
X139.7Y-82.55
X139.7Y-85.09
X144.78Y-76.2
X144.78Y-78.74
X144.78Y-81.28
X144.78Y-83.82
X144.78Y-86.36
X144.78Y-88.9
X144.78Y-91.44
X144.78Y-93.98
X144.78Y-96.52
X144.78Y-99.06
X144.78Y-101.6
X144.78Y-104.14
X144.78Y-106.68
T3
X134.78Y-106.354G85X134.78Y-107.454
G05
X142.08Y-106.354G85X142.08Y-107.454
G05
T0
M30
