%TF.GenerationSoftware,KiCad,Pcbnew,6.0.2+dfsg-1*%
%TF.CreationDate,2022-08-12T08:44:15-04:00*%
%TF.ProjectId,attiny_devboard,61747469-6e79-45f6-9465-76626f617264,rev?*%
%TF.SameCoordinates,Original*%
%TF.FileFunction,Copper,L1,Top*%
%TF.FilePolarity,Positive*%
%FSLAX46Y46*%
G04 Gerber Fmt 4.6, Leading zero omitted, Abs format (unit mm)*
G04 Created by KiCad (PCBNEW 6.0.2+dfsg-1) date 2022-08-12 08:44:15*
%MOMM*%
%LPD*%
G01*
G04 APERTURE LIST*
G04 Aperture macros list*
%AMRoundRect*
0 Rectangle with rounded corners*
0 $1 Rounding radius*
0 $2 $3 $4 $5 $6 $7 $8 $9 X,Y pos of 4 corners*
0 Add a 4 corners polygon primitive as box body*
4,1,4,$2,$3,$4,$5,$6,$7,$8,$9,$2,$3,0*
0 Add four circle primitives for the rounded corners*
1,1,$1+$1,$2,$3*
1,1,$1+$1,$4,$5*
1,1,$1+$1,$6,$7*
1,1,$1+$1,$8,$9*
0 Add four rect primitives between the rounded corners*
20,1,$1+$1,$2,$3,$4,$5,0*
20,1,$1+$1,$4,$5,$6,$7,0*
20,1,$1+$1,$6,$7,$8,$9,0*
20,1,$1+$1,$8,$9,$2,$3,0*%
%AMRotRect*
0 Rectangle, with rotation*
0 The origin of the aperture is its center*
0 $1 length*
0 $2 width*
0 $3 Rotation angle, in degrees counterclockwise*
0 Add horizontal line*
21,1,$1,$2,0,0,$3*%
G04 Aperture macros list end*
%TA.AperFunction,SMDPad,CuDef*%
%ADD10RoundRect,0.225000X-0.335876X-0.017678X-0.017678X-0.335876X0.335876X0.017678X0.017678X0.335876X0*%
%TD*%
%TA.AperFunction,ComponentPad*%
%ADD11RoundRect,0.250000X-0.600000X-0.600000X0.600000X-0.600000X0.600000X0.600000X-0.600000X0.600000X0*%
%TD*%
%TA.AperFunction,ComponentPad*%
%ADD12C,1.700000*%
%TD*%
%TA.AperFunction,SMDPad,CuDef*%
%ADD13RoundRect,0.062500X-0.203293X-0.291682X0.291682X0.203293X0.203293X0.291682X-0.291682X-0.203293X0*%
%TD*%
%TA.AperFunction,SMDPad,CuDef*%
%ADD14RoundRect,0.062500X0.203293X-0.291682X0.291682X-0.203293X-0.203293X0.291682X-0.291682X0.203293X0*%
%TD*%
%TA.AperFunction,SMDPad,CuDef*%
%ADD15RotRect,2.600000X2.600000X45.000000*%
%TD*%
%TA.AperFunction,ComponentPad*%
%ADD16O,1.700000X2.900000*%
%TD*%
%TA.AperFunction,ComponentPad*%
%ADD17O,1.700000X2.980000*%
%TD*%
%TA.AperFunction,ComponentPad*%
%ADD18C,1.208000*%
%TD*%
%TA.AperFunction,ComponentPad*%
%ADD19R,1.700000X1.700000*%
%TD*%
%TA.AperFunction,ComponentPad*%
%ADD20O,1.700000X1.700000*%
%TD*%
%TA.AperFunction,ViaPad*%
%ADD21C,0.800000*%
%TD*%
%TA.AperFunction,Conductor*%
%ADD22C,0.250000*%
%TD*%
G04 APERTURE END LIST*
D10*
%TO.P,C2,1*%
%TO.N,VCC*%
X135087992Y-98511992D03*
%TO.P,C2,2*%
%TO.N,GND*%
X136184008Y-99608008D03*
%TD*%
%TO.P,C1,1*%
%TO.N,VCC*%
X136103992Y-97495992D03*
%TO.P,C1,2*%
%TO.N,GND*%
X137200008Y-98592008D03*
%TD*%
D11*
%TO.P,J1,1,DATA*%
%TO.N,PA0*%
X137160000Y-80010000D03*
D12*
%TO.P,J1,2,VCC*%
%TO.N,VCC*%
X139700000Y-80010000D03*
%TO.P,J1,3,NC*%
%TO.N,unconnected-(J1-Pad3)*%
X137160000Y-82550000D03*
%TO.P,J1,4,NC*%
%TO.N,unconnected-(J1-Pad4)*%
X139700000Y-82550000D03*
%TO.P,J1,5,NC*%
%TO.N,unconnected-(J1-Pad5)*%
X137160000Y-85090000D03*
%TO.P,J1,6,GND*%
%TO.N,GND*%
X139700000Y-85090000D03*
%TD*%
D13*
%TO.P,U1,1,PA2*%
%TO.N,PA2*%
X136176097Y-95437476D03*
%TO.P,U1,2,PA3*%
%TO.N,PA3*%
X136529651Y-95791029D03*
%TO.P,U1,3,GND*%
%TO.N,GND*%
X136883204Y-96144583D03*
%TO.P,U1,4,VCC*%
%TO.N,VCC*%
X137236757Y-96498136D03*
%TO.P,U1,5,PA4*%
%TO.N,PA4*%
X137590311Y-96851689D03*
%TO.P,U1,6,PA5*%
%TO.N,PA5*%
X137943864Y-97205243D03*
D14*
%TO.P,U1,7,PA6*%
%TO.N,PA6*%
X138916136Y-97205243D03*
%TO.P,U1,8,PA7*%
%TO.N,PA7*%
X139269689Y-96851689D03*
%TO.P,U1,9,PB7*%
%TO.N,PB7*%
X139623243Y-96498136D03*
%TO.P,U1,10,PB6*%
%TO.N,PB6*%
X139976796Y-96144583D03*
%TO.P,U1,11,PB5*%
%TO.N,PB5*%
X140330349Y-95791029D03*
%TO.P,U1,12,PB4*%
%TO.N,PB4*%
X140683903Y-95437476D03*
D13*
%TO.P,U1,13,PB3*%
%TO.N,PB3*%
X140683903Y-94465204D03*
%TO.P,U1,14,PB2*%
%TO.N,PB2*%
X140330349Y-94111651D03*
%TO.P,U1,15,PB1*%
%TO.N,PB1*%
X139976796Y-93758097D03*
%TO.P,U1,16,PB0*%
%TO.N,PB0*%
X139623243Y-93404544D03*
%TO.P,U1,17,PC0*%
%TO.N,PC0*%
X139269689Y-93050991D03*
%TO.P,U1,18,PC1*%
%TO.N,PC1*%
X138916136Y-92697437D03*
D14*
%TO.P,U1,19,PC2*%
%TO.N,PC2*%
X137943864Y-92697437D03*
%TO.P,U1,20,PC3*%
%TO.N,PC3*%
X137590311Y-93050991D03*
%TO.P,U1,21,PC4*%
%TO.N,PC4*%
X137236757Y-93404544D03*
%TO.P,U1,22,PC5*%
%TO.N,PC5*%
X136883204Y-93758097D03*
%TO.P,U1,23,~{RESET}/PA0*%
%TO.N,PA0*%
X136529651Y-94111651D03*
%TO.P,U1,24,PA1*%
%TO.N,PA1*%
X136176097Y-94465204D03*
D15*
%TO.P,U1,25,GND*%
%TO.N,GND*%
X138430000Y-94951340D03*
%TD*%
D16*
%TO.P,J2,6,Shield*%
%TO.N,GND*%
X142080000Y-106904000D03*
D17*
X134780000Y-106904000D03*
D18*
%TO.P,J2,5,GND*%
X140030000Y-101854000D03*
%TO.P,J2,4,ID*%
%TO.N,unconnected-(J2-Pad4)*%
X139230000Y-103054000D03*
%TO.P,J2,3,D+*%
%TO.N,unconnected-(J2-Pad3)*%
X138430000Y-101854000D03*
%TO.P,J2,2,D-*%
%TO.N,unconnected-(J2-Pad2)*%
X137630000Y-103054000D03*
%TO.P,J2,1,VBUS*%
%TO.N,VCC*%
X136830000Y-101854000D03*
%TD*%
D19*
%TO.P,J4,1,Pin_1*%
%TO.N,VCC*%
X144780000Y-106680000D03*
D20*
%TO.P,J4,2,Pin_2*%
%TO.N,PB7*%
X144780000Y-104140000D03*
%TO.P,J4,3,Pin_3*%
%TO.N,PB6*%
X144780000Y-101600000D03*
%TO.P,J4,4,Pin_4*%
%TO.N,PB5*%
X144780000Y-99060000D03*
%TO.P,J4,5,Pin_5*%
%TO.N,PB4*%
X144780000Y-96520000D03*
%TO.P,J4,6,Pin_6*%
%TO.N,PB3*%
X144780000Y-93980000D03*
%TO.P,J4,7,Pin_7*%
%TO.N,PB2*%
X144780000Y-91440000D03*
%TO.P,J4,8,Pin_8*%
%TO.N,PB1*%
X144780000Y-88900000D03*
%TO.P,J4,9,Pin_9*%
%TO.N,PB0*%
X144780000Y-86360000D03*
%TO.P,J4,10,Pin_10*%
%TO.N,PC0*%
X144780000Y-83820000D03*
%TO.P,J4,11,Pin_11*%
%TO.N,PC1*%
X144780000Y-81280000D03*
%TO.P,J4,12,Pin_12*%
%TO.N,PC2*%
X144780000Y-78740000D03*
%TO.P,J4,13,Pin_13*%
%TO.N,GND*%
X144780000Y-76200000D03*
%TD*%
D19*
%TO.P,J3,1,Pin_1*%
%TO.N,VCC*%
X132080000Y-76200000D03*
D20*
%TO.P,J3,2,Pin_2*%
%TO.N,PC3*%
X132080000Y-78740000D03*
%TO.P,J3,3,Pin_3*%
%TO.N,PC4*%
X132080000Y-81280000D03*
%TO.P,J3,4,Pin_4*%
%TO.N,PC5*%
X132080000Y-83820000D03*
%TO.P,J3,5,Pin_5*%
%TO.N,PA0*%
X132080000Y-86360000D03*
%TO.P,J3,6,Pin_6*%
%TO.N,PA1*%
X132080000Y-88900000D03*
%TO.P,J3,7,Pin_7*%
%TO.N,PA2*%
X132080000Y-91440000D03*
%TO.P,J3,8,Pin_8*%
%TO.N,PA3*%
X132080000Y-93980000D03*
%TO.P,J3,9,Pin_9*%
%TO.N,PA4*%
X132080000Y-96520000D03*
%TO.P,J3,10,Pin_10*%
%TO.N,PA5*%
X132080000Y-99060000D03*
%TO.P,J3,11,Pin_11*%
%TO.N,PA6*%
X132080000Y-101600000D03*
%TO.P,J3,12,Pin_12*%
%TO.N,PA7*%
X132080000Y-104140000D03*
%TO.P,J3,13,Pin_13*%
%TO.N,GND*%
X132080000Y-106680000D03*
%TD*%
D21*
%TO.N,PA6*%
X138870337Y-100072972D03*
%TO.N,PA5*%
X138176000Y-99314000D03*
%TO.N,VCC*%
X136103992Y-97495992D03*
X135087992Y-98511992D03*
%TD*%
D22*
%TO.N,GND*%
X137200008Y-98592008D02*
X136184008Y-99608008D01*
X136883204Y-96144583D02*
X136462090Y-96565697D01*
X136462090Y-96565697D02*
X133786707Y-96565697D01*
X133786707Y-96565697D02*
X132566499Y-95345489D01*
X132566499Y-95345489D02*
X131593501Y-95345489D01*
X131593501Y-95345489D02*
X130810000Y-96128990D01*
X130810000Y-96128990D02*
X130810000Y-105410000D01*
X130810000Y-105410000D02*
X132080000Y-106680000D01*
%TO.N,PA6*%
X138916136Y-100027173D02*
X138916136Y-97205243D01*
X138870337Y-100072972D02*
X138916136Y-100027173D01*
%TO.N,PA5*%
X138176000Y-97437379D02*
X138176000Y-99314000D01*
X137943864Y-97205243D02*
X138176000Y-97437379D01*
%TO.N,PA7*%
X139269689Y-96851689D02*
X139594837Y-97176837D01*
X139457114Y-104140000D02*
X132080000Y-104140000D01*
X139594837Y-97176837D02*
X139594837Y-100105723D01*
X139594837Y-100105723D02*
X140970000Y-101480886D01*
X140970000Y-102627114D02*
X139457114Y-104140000D01*
X140970000Y-101480886D02*
X140970000Y-102627114D01*
%TO.N,VCC*%
X136103992Y-97495992D02*
X136238901Y-97495992D01*
X136238901Y-97495992D02*
X137236757Y-96498136D01*
%TO.N,PA4*%
X137590311Y-96851689D02*
X136989387Y-97452613D01*
X136989387Y-97452613D02*
X136989387Y-97705933D01*
X136989387Y-97705933D02*
X135297933Y-99397387D01*
X132080000Y-96774000D02*
X132080000Y-96520000D01*
X135297933Y-99397387D02*
X134703387Y-99397387D01*
X134703387Y-99397387D02*
X132080000Y-96774000D01*
%TO.N,VCC*%
X135087992Y-98511992D02*
X136103992Y-97495992D01*
%TO.N,PA2*%
X136176097Y-95437476D02*
X136077476Y-95437476D01*
X136077476Y-95437476D02*
X132080000Y-91440000D01*
%TO.N,PA3*%
X136204503Y-96116177D02*
X136529651Y-95791029D01*
X132080000Y-93980000D02*
X134216177Y-96116177D01*
X134216177Y-96116177D02*
X136204503Y-96116177D01*
%TO.N,PB7*%
X139623243Y-96498136D02*
X140044357Y-96919250D01*
X140044357Y-96919250D02*
X140044357Y-99404357D01*
X140044357Y-99404357D02*
X144780000Y-104140000D01*
%TO.N,PB6*%
X144780000Y-101600000D02*
X141323553Y-98143553D01*
X141323553Y-98143553D02*
X141323553Y-97491340D01*
X139976796Y-96144583D02*
X141323553Y-97491340D01*
%TO.N,PB5*%
X143599320Y-99060000D02*
X144780000Y-99060000D01*
X140330349Y-95791029D02*
X143599320Y-99060000D01*
%TO.N,PB4*%
X140683903Y-95437476D02*
X141766427Y-96520000D01*
X141766427Y-96520000D02*
X144780000Y-96520000D01*
%TO.N,PB3*%
X140683903Y-94465204D02*
X141169107Y-93980000D01*
X141169107Y-93980000D02*
X144780000Y-93980000D01*
%TO.N,PB2*%
X140330349Y-94111651D02*
X143002000Y-91440000D01*
X143002000Y-91440000D02*
X144780000Y-91440000D01*
%TO.N,PB1*%
X139976796Y-93703204D02*
X144780000Y-88900000D01*
X139976796Y-93758097D02*
X139976796Y-93703204D01*
%TO.N,PB0*%
X141848960Y-89291040D02*
X144780000Y-86360000D01*
X139623243Y-93404544D02*
X141848960Y-91178827D01*
X141848960Y-91178827D02*
X141848960Y-89291040D01*
%TO.N,PC0*%
X139269689Y-93050991D02*
X141399440Y-90921240D01*
X141399440Y-87200560D02*
X144780000Y-83820000D01*
X141399440Y-90921240D02*
X141399440Y-87200560D01*
%TO.N,PC1*%
X143192141Y-82867859D02*
X143192141Y-84772141D01*
X140949920Y-87014362D02*
X140949920Y-90663653D01*
X138916136Y-92697437D02*
X140949920Y-90663653D01*
X144780000Y-81280000D02*
X143192141Y-82867859D01*
X143192141Y-84772141D02*
X140949920Y-87014362D01*
%TO.N,PC2*%
X140500400Y-86828164D02*
X142742621Y-84585943D01*
X142742621Y-80777379D02*
X144780000Y-78740000D01*
X142742621Y-84585943D02*
X142742621Y-80777379D01*
X140500400Y-86828164D02*
X140500400Y-90140901D01*
X140500400Y-90140901D02*
X137943864Y-92697437D01*
%TO.N,PC3*%
X134112000Y-84580564D02*
X134112000Y-80772000D01*
X134112000Y-80772000D02*
X132080000Y-78740000D01*
X137590311Y-93050991D02*
X136809120Y-92269800D01*
X136809120Y-87277684D02*
X134112000Y-84580564D01*
X136809120Y-87277684D02*
X136809120Y-92269800D01*
%TO.N,PC4*%
X136359600Y-92527387D02*
X137236757Y-93404544D01*
X136359600Y-87463882D02*
X136359600Y-92527387D01*
X133604000Y-82804000D02*
X133604000Y-84708282D01*
X133604000Y-84708282D02*
X136359600Y-87463882D01*
X132080000Y-81280000D02*
X133604000Y-82804000D01*
%TO.N,PC5*%
X135910080Y-87650080D02*
X132080000Y-83820000D01*
X136883204Y-93758097D02*
X135910080Y-92784973D01*
X135910080Y-92784973D02*
X135910080Y-87650080D01*
%TO.N,PA0*%
X135460560Y-89740560D02*
X135460560Y-93042560D01*
X136529651Y-94111651D02*
X135460560Y-93042560D01*
X135460560Y-89740560D02*
X132080000Y-86360000D01*
%TO.N,PA1*%
X135011040Y-93300147D02*
X135011040Y-91831040D01*
X136176097Y-94465204D02*
X135011040Y-93300147D01*
X135011040Y-91831040D02*
X132080000Y-88900000D01*
%TD*%
%TA.AperFunction,Conductor*%
%TO.N,GND*%
G36*
X147565067Y-74430933D02*
G01*
X147574000Y-74452500D01*
X147574000Y-108427500D01*
X147565067Y-108449067D01*
X147543500Y-108458000D01*
X129316500Y-108458000D01*
X129294933Y-108449067D01*
X129286000Y-108427500D01*
X129286000Y-105804933D01*
X143675500Y-105804933D01*
X143675501Y-107555066D01*
X143690266Y-107629301D01*
X143746516Y-107713484D01*
X143830699Y-107769734D01*
X143904933Y-107784500D01*
X144780000Y-107784500D01*
X145655066Y-107784499D01*
X145729301Y-107769734D01*
X145813484Y-107713484D01*
X145869734Y-107629301D01*
X145884500Y-107555067D01*
X145884499Y-105804934D01*
X145869734Y-105730699D01*
X145813484Y-105646516D01*
X145729301Y-105590266D01*
X145655067Y-105575500D01*
X145653571Y-105575500D01*
X144780001Y-105575501D01*
X143904934Y-105575501D01*
X143830699Y-105590266D01*
X143746516Y-105646516D01*
X143690266Y-105730699D01*
X143675500Y-105804933D01*
X129286000Y-105804933D01*
X129286000Y-104110964D01*
X130971148Y-104110964D01*
X130984424Y-104313522D01*
X130984768Y-104314876D01*
X131033183Y-104505507D01*
X131034392Y-104510269D01*
X131119377Y-104694616D01*
X131120182Y-104695755D01*
X131235726Y-104859248D01*
X131235730Y-104859252D01*
X131236533Y-104860389D01*
X131381938Y-105002035D01*
X131550720Y-105114812D01*
X131638788Y-105152649D01*
X131735945Y-105194391D01*
X131735947Y-105194392D01*
X131737228Y-105194942D01*
X131935216Y-105239742D01*
X131936612Y-105239797D01*
X131936613Y-105239797D01*
X132093676Y-105245968D01*
X132138053Y-105247712D01*
X132338945Y-105218584D01*
X132340267Y-105218135D01*
X132340272Y-105218134D01*
X132529836Y-105153785D01*
X132531165Y-105153334D01*
X132708276Y-105054147D01*
X132770934Y-105002035D01*
X132863270Y-104925239D01*
X132864345Y-104924345D01*
X132994147Y-104768276D01*
X133093334Y-104591165D01*
X133110636Y-104540196D01*
X133126027Y-104522645D01*
X133139517Y-104519500D01*
X139413355Y-104519500D01*
X139419776Y-104520183D01*
X139438990Y-104524320D01*
X139477931Y-104519711D01*
X139481515Y-104519500D01*
X139488638Y-104519500D01*
X139489876Y-104519294D01*
X139509888Y-104515963D01*
X139511311Y-104515760D01*
X139540535Y-104512301D01*
X139564455Y-104509470D01*
X139566728Y-104508379D01*
X139566733Y-104508377D01*
X139568797Y-104507386D01*
X139576992Y-104504794D01*
X139579252Y-104504418D01*
X139581740Y-104504004D01*
X139583957Y-104502808D01*
X139583959Y-104502807D01*
X139628842Y-104478589D01*
X139630123Y-104477937D01*
X139676610Y-104455615D01*
X139676612Y-104455613D01*
X139678346Y-104454781D01*
X139682622Y-104451186D01*
X139683089Y-104450719D01*
X139683581Y-104450268D01*
X139683643Y-104450336D01*
X139690059Y-104445558D01*
X139690711Y-104445206D01*
X139692928Y-104444010D01*
X139730778Y-104403064D01*
X139731607Y-104402201D01*
X141207406Y-102926402D01*
X141212429Y-102922346D01*
X141226823Y-102913052D01*
X141228940Y-102911685D01*
X141253211Y-102880897D01*
X141255596Y-102878212D01*
X141260638Y-102873170D01*
X141273185Y-102855613D01*
X141274026Y-102854493D01*
X141288298Y-102836389D01*
X141305595Y-102814448D01*
X141305597Y-102814445D01*
X141307156Y-102812467D01*
X141308750Y-102807928D01*
X141312712Y-102800301D01*
X141314048Y-102798432D01*
X141314049Y-102798430D01*
X141315514Y-102796380D01*
X141330849Y-102745105D01*
X141331292Y-102743740D01*
X141348382Y-102695075D01*
X141348383Y-102695073D01*
X141349018Y-102693263D01*
X141349500Y-102687698D01*
X141349500Y-102687050D01*
X141349529Y-102686378D01*
X141349619Y-102686382D01*
X141350779Y-102678459D01*
X141350876Y-102678134D01*
X141351713Y-102675336D01*
X141349524Y-102619621D01*
X141349500Y-102618424D01*
X141349500Y-101524645D01*
X141350183Y-101518225D01*
X141353790Y-101501472D01*
X141354320Y-101499010D01*
X141349711Y-101460069D01*
X141349500Y-101456485D01*
X141349500Y-101449362D01*
X141345963Y-101428112D01*
X141345760Y-101426689D01*
X141339766Y-101376048D01*
X141339470Y-101373545D01*
X141338379Y-101371272D01*
X141338377Y-101371267D01*
X141337386Y-101369203D01*
X141334794Y-101361008D01*
X141334418Y-101358748D01*
X141334004Y-101356260D01*
X141328796Y-101346607D01*
X141308588Y-101309157D01*
X141307936Y-101307877D01*
X141290000Y-101270525D01*
X141288717Y-101247216D01*
X141304291Y-101229828D01*
X141327600Y-101228545D01*
X141339061Y-101235755D01*
X143761249Y-103657943D01*
X143770182Y-103679510D01*
X143766674Y-103693711D01*
X143761271Y-103703982D01*
X143755203Y-103715515D01*
X143695007Y-103909378D01*
X143671148Y-104110964D01*
X143684424Y-104313522D01*
X143684768Y-104314876D01*
X143733183Y-104505507D01*
X143734392Y-104510269D01*
X143819377Y-104694616D01*
X143820182Y-104695755D01*
X143935726Y-104859248D01*
X143935730Y-104859252D01*
X143936533Y-104860389D01*
X144081938Y-105002035D01*
X144250720Y-105114812D01*
X144338788Y-105152649D01*
X144435945Y-105194391D01*
X144435947Y-105194392D01*
X144437228Y-105194942D01*
X144635216Y-105239742D01*
X144636612Y-105239797D01*
X144636613Y-105239797D01*
X144793676Y-105245968D01*
X144838053Y-105247712D01*
X145038945Y-105218584D01*
X145040267Y-105218135D01*
X145040272Y-105218134D01*
X145229836Y-105153785D01*
X145231165Y-105153334D01*
X145408276Y-105054147D01*
X145470934Y-105002035D01*
X145563270Y-104925239D01*
X145564345Y-104924345D01*
X145694147Y-104768276D01*
X145793334Y-104591165D01*
X145816205Y-104523790D01*
X145858134Y-104400272D01*
X145858135Y-104400267D01*
X145858584Y-104398945D01*
X145887712Y-104198053D01*
X145889232Y-104140000D01*
X145870658Y-103937859D01*
X145820637Y-103760500D01*
X145815937Y-103743834D01*
X145815937Y-103743833D01*
X145815557Y-103742487D01*
X145809400Y-103730000D01*
X145726394Y-103561681D01*
X145726394Y-103561680D01*
X145725776Y-103560428D01*
X145604320Y-103397779D01*
X145455258Y-103259987D01*
X145283581Y-103151667D01*
X145095039Y-103076446D01*
X145093676Y-103076175D01*
X145093673Y-103076174D01*
X144982195Y-103054000D01*
X144895946Y-103036844D01*
X144801892Y-103035613D01*
X144694375Y-103034205D01*
X144694371Y-103034205D01*
X144692971Y-103034187D01*
X144675920Y-103037117D01*
X144494293Y-103068326D01*
X144494289Y-103068327D01*
X144492910Y-103068564D01*
X144491601Y-103069047D01*
X144491597Y-103069048D01*
X144330318Y-103128548D01*
X144306992Y-103127631D01*
X144298194Y-103121500D01*
X140432790Y-99256096D01*
X140423857Y-99234529D01*
X140423857Y-97201972D01*
X140432790Y-97180405D01*
X140454357Y-97171472D01*
X140475924Y-97180405D01*
X140935120Y-97639601D01*
X140944053Y-97661168D01*
X140944053Y-98099794D01*
X140943370Y-98106214D01*
X140939233Y-98125429D01*
X140943634Y-98162612D01*
X140943842Y-98164369D01*
X140944053Y-98167954D01*
X140944053Y-98175077D01*
X140944259Y-98176314D01*
X140944259Y-98176315D01*
X140947590Y-98196327D01*
X140947793Y-98197750D01*
X140954083Y-98250894D01*
X140955174Y-98253167D01*
X140955176Y-98253172D01*
X140956167Y-98255236D01*
X140958759Y-98263431D01*
X140959549Y-98268179D01*
X140960745Y-98270396D01*
X140960746Y-98270398D01*
X140984964Y-98315281D01*
X140985615Y-98316559D01*
X141008772Y-98364785D01*
X141012367Y-98369061D01*
X141012834Y-98369528D01*
X141013285Y-98370020D01*
X141013217Y-98370082D01*
X141017995Y-98376498D01*
X141019543Y-98379367D01*
X141021393Y-98381077D01*
X141060488Y-98417216D01*
X141061352Y-98418046D01*
X143761249Y-101117943D01*
X143770182Y-101139510D01*
X143766674Y-101153711D01*
X143761271Y-101163982D01*
X143755203Y-101175515D01*
X143695007Y-101369378D01*
X143694843Y-101370764D01*
X143675052Y-101537982D01*
X143671148Y-101570964D01*
X143684424Y-101773522D01*
X143734392Y-101970269D01*
X143819377Y-102154616D01*
X143820182Y-102155755D01*
X143935726Y-102319248D01*
X143935730Y-102319252D01*
X143936533Y-102320389D01*
X144081938Y-102462035D01*
X144250720Y-102574812D01*
X144310827Y-102600636D01*
X144435945Y-102654391D01*
X144435947Y-102654392D01*
X144437228Y-102654942D01*
X144635216Y-102699742D01*
X144636612Y-102699797D01*
X144636613Y-102699797D01*
X144793676Y-102705968D01*
X144838053Y-102707712D01*
X145038945Y-102678584D01*
X145040267Y-102678135D01*
X145040272Y-102678134D01*
X145229836Y-102613785D01*
X145231165Y-102613334D01*
X145408276Y-102514147D01*
X145470934Y-102462035D01*
X145530497Y-102412496D01*
X145564345Y-102384345D01*
X145689660Y-102233671D01*
X145693253Y-102229351D01*
X145693253Y-102229350D01*
X145694147Y-102228276D01*
X145712503Y-102195500D01*
X145792649Y-102052388D01*
X145793334Y-102051165D01*
X145808506Y-102006469D01*
X145858134Y-101860272D01*
X145858135Y-101860267D01*
X145858584Y-101858945D01*
X145887712Y-101658053D01*
X145889232Y-101600000D01*
X145870658Y-101397859D01*
X145815557Y-101202487D01*
X145802916Y-101176852D01*
X145726394Y-101021681D01*
X145726394Y-101021680D01*
X145725776Y-101020428D01*
X145604320Y-100857779D01*
X145455258Y-100719987D01*
X145283581Y-100611667D01*
X145095039Y-100536446D01*
X145093676Y-100536175D01*
X145093673Y-100536174D01*
X144996419Y-100516829D01*
X144895946Y-100496844D01*
X144801892Y-100495613D01*
X144694375Y-100494205D01*
X144694371Y-100494205D01*
X144692971Y-100494187D01*
X144675920Y-100497117D01*
X144494293Y-100528326D01*
X144494289Y-100528327D01*
X144492910Y-100528564D01*
X144491601Y-100529047D01*
X144491597Y-100529048D01*
X144330318Y-100588548D01*
X144306992Y-100587631D01*
X144298194Y-100581500D01*
X141711986Y-97995292D01*
X141703053Y-97973725D01*
X141703053Y-97774061D01*
X141711986Y-97752494D01*
X141733553Y-97743561D01*
X141755120Y-97752494D01*
X143300032Y-99297406D01*
X143304088Y-99302429D01*
X143314749Y-99318940D01*
X143316728Y-99320500D01*
X143345537Y-99343211D01*
X143348222Y-99345596D01*
X143353264Y-99350638D01*
X143370818Y-99363183D01*
X143371938Y-99364024D01*
X143390208Y-99378427D01*
X143411986Y-99395595D01*
X143411989Y-99395597D01*
X143413967Y-99397156D01*
X143418434Y-99398725D01*
X143418509Y-99398751D01*
X143426133Y-99402711D01*
X143430054Y-99405513D01*
X143432470Y-99406236D01*
X143432471Y-99406236D01*
X143481316Y-99420844D01*
X143482683Y-99421288D01*
X143531359Y-99438382D01*
X143531361Y-99438383D01*
X143533171Y-99439018D01*
X143535083Y-99439184D01*
X143535085Y-99439184D01*
X143538085Y-99439444D01*
X143538094Y-99439444D01*
X143538736Y-99439500D01*
X143539384Y-99439500D01*
X143540056Y-99439529D01*
X143540052Y-99439619D01*
X143547975Y-99440779D01*
X143551098Y-99441713D01*
X143553621Y-99441614D01*
X143553622Y-99441614D01*
X143606813Y-99439524D01*
X143608010Y-99439500D01*
X143719124Y-99439500D01*
X143740691Y-99448433D01*
X143746822Y-99457231D01*
X143750996Y-99466284D01*
X143819377Y-99614616D01*
X143820182Y-99615755D01*
X143935726Y-99779248D01*
X143935730Y-99779252D01*
X143936533Y-99780389D01*
X144081938Y-99922035D01*
X144250720Y-100034812D01*
X144327716Y-100067892D01*
X144435945Y-100114391D01*
X144435947Y-100114392D01*
X144437228Y-100114942D01*
X144635216Y-100159742D01*
X144636612Y-100159797D01*
X144636613Y-100159797D01*
X144793676Y-100165968D01*
X144838053Y-100167712D01*
X145038945Y-100138584D01*
X145040267Y-100138135D01*
X145040272Y-100138134D01*
X145229836Y-100073785D01*
X145231165Y-100073334D01*
X145356216Y-100003302D01*
X145407055Y-99974831D01*
X145407057Y-99974830D01*
X145408276Y-99974147D01*
X145470934Y-99922035D01*
X145563270Y-99845239D01*
X145564345Y-99844345D01*
X145656965Y-99732982D01*
X145693253Y-99689351D01*
X145693253Y-99689350D01*
X145694147Y-99688276D01*
X145697114Y-99682979D01*
X145792649Y-99512388D01*
X145793334Y-99511165D01*
X145818041Y-99438382D01*
X145858134Y-99320272D01*
X145858135Y-99320267D01*
X145858584Y-99318945D01*
X145887712Y-99118053D01*
X145889232Y-99060000D01*
X145870658Y-98857859D01*
X145815557Y-98662487D01*
X145804606Y-98640279D01*
X145726394Y-98481681D01*
X145726394Y-98481680D01*
X145725776Y-98480428D01*
X145604320Y-98317779D01*
X145602290Y-98315902D01*
X145582445Y-98297558D01*
X145455258Y-98179987D01*
X145283581Y-98071667D01*
X145095039Y-97996446D01*
X145093676Y-97996175D01*
X145093673Y-97996174D01*
X144996419Y-97976829D01*
X144895946Y-97956844D01*
X144801892Y-97955613D01*
X144694375Y-97954205D01*
X144694371Y-97954205D01*
X144692971Y-97954187D01*
X144624376Y-97965974D01*
X144494293Y-97988326D01*
X144494289Y-97988327D01*
X144492910Y-97988564D01*
X144491601Y-97989047D01*
X144491597Y-97989048D01*
X144447759Y-98005221D01*
X144302463Y-98058824D01*
X144301262Y-98059539D01*
X144301259Y-98059540D01*
X144237922Y-98097222D01*
X144128010Y-98162612D01*
X143975392Y-98296455D01*
X143849720Y-98455869D01*
X143759426Y-98627489D01*
X143741480Y-98642415D01*
X143718234Y-98640279D01*
X143710868Y-98634854D01*
X142027581Y-96951567D01*
X142018648Y-96930000D01*
X142027581Y-96908433D01*
X142049148Y-96899500D01*
X143719124Y-96899500D01*
X143740691Y-96908433D01*
X143746822Y-96917231D01*
X143819377Y-97074616D01*
X143820182Y-97075755D01*
X143935726Y-97239248D01*
X143935730Y-97239252D01*
X143936533Y-97240389D01*
X144081938Y-97382035D01*
X144250720Y-97494812D01*
X144299620Y-97515821D01*
X144435945Y-97574391D01*
X144435947Y-97574392D01*
X144437228Y-97574942D01*
X144635216Y-97619742D01*
X144636612Y-97619797D01*
X144636613Y-97619797D01*
X144784633Y-97625613D01*
X144838053Y-97627712D01*
X145038945Y-97598584D01*
X145040267Y-97598135D01*
X145040272Y-97598134D01*
X145229836Y-97533785D01*
X145231165Y-97533334D01*
X145408276Y-97434147D01*
X145470934Y-97382035D01*
X145563270Y-97305239D01*
X145564345Y-97304345D01*
X145694147Y-97148276D01*
X145793334Y-96971165D01*
X145817661Y-96899500D01*
X145858134Y-96780272D01*
X145858135Y-96780267D01*
X145858584Y-96778945D01*
X145887712Y-96578053D01*
X145889232Y-96520000D01*
X145870658Y-96317859D01*
X145815557Y-96122487D01*
X145802916Y-96096852D01*
X145726394Y-95941681D01*
X145726394Y-95941680D01*
X145725776Y-95940428D01*
X145604320Y-95777779D01*
X145455258Y-95639987D01*
X145283581Y-95531667D01*
X145095039Y-95456446D01*
X145093676Y-95456175D01*
X145093673Y-95456174D01*
X144996419Y-95436829D01*
X144895946Y-95416844D01*
X144801892Y-95415613D01*
X144694375Y-95414205D01*
X144694371Y-95414205D01*
X144692971Y-95414187D01*
X144675920Y-95417117D01*
X144494293Y-95448326D01*
X144494289Y-95448327D01*
X144492910Y-95448564D01*
X144491601Y-95449047D01*
X144491597Y-95449048D01*
X144342206Y-95504162D01*
X144302463Y-95518824D01*
X144301262Y-95519539D01*
X144301259Y-95519540D01*
X144237922Y-95557222D01*
X144128010Y-95622612D01*
X143975392Y-95756455D01*
X143849720Y-95915869D01*
X143849069Y-95917107D01*
X143849068Y-95917108D01*
X143828908Y-95955425D01*
X143755203Y-96095515D01*
X143747897Y-96119045D01*
X143732970Y-96136992D01*
X143718769Y-96140500D01*
X141936255Y-96140500D01*
X141914688Y-96131567D01*
X140756028Y-94972907D01*
X140747095Y-94951340D01*
X140756028Y-94929773D01*
X141317368Y-94368433D01*
X141338935Y-94359500D01*
X143719124Y-94359500D01*
X143740691Y-94368433D01*
X143746822Y-94377231D01*
X143809335Y-94512832D01*
X143819377Y-94534616D01*
X143820182Y-94535755D01*
X143935726Y-94699248D01*
X143935730Y-94699252D01*
X143936533Y-94700389D01*
X144081938Y-94842035D01*
X144250720Y-94954812D01*
X144319097Y-94984189D01*
X144435945Y-95034391D01*
X144435947Y-95034392D01*
X144437228Y-95034942D01*
X144635216Y-95079742D01*
X144636612Y-95079797D01*
X144636613Y-95079797D01*
X144793676Y-95085968D01*
X144838053Y-95087712D01*
X145038945Y-95058584D01*
X145040267Y-95058135D01*
X145040272Y-95058134D01*
X145229836Y-94993785D01*
X145231165Y-94993334D01*
X145408276Y-94894147D01*
X145470934Y-94842035D01*
X145563270Y-94765239D01*
X145564345Y-94764345D01*
X145694147Y-94608276D01*
X145793334Y-94431165D01*
X145817661Y-94359500D01*
X145858134Y-94240272D01*
X145858135Y-94240267D01*
X145858584Y-94238945D01*
X145887712Y-94038053D01*
X145889232Y-93980000D01*
X145870658Y-93777859D01*
X145815557Y-93582487D01*
X145809400Y-93570000D01*
X145726394Y-93401681D01*
X145726394Y-93401680D01*
X145725776Y-93400428D01*
X145604320Y-93237779D01*
X145455258Y-93099987D01*
X145283581Y-92991667D01*
X145095039Y-92916446D01*
X145093676Y-92916175D01*
X145093673Y-92916174D01*
X144996419Y-92896829D01*
X144895946Y-92876844D01*
X144801892Y-92875613D01*
X144694375Y-92874205D01*
X144694371Y-92874205D01*
X144692971Y-92874187D01*
X144675920Y-92877117D01*
X144494293Y-92908326D01*
X144494289Y-92908327D01*
X144492910Y-92908564D01*
X144491601Y-92909047D01*
X144491597Y-92909048D01*
X144315006Y-92974197D01*
X144302463Y-92978824D01*
X144301262Y-92979539D01*
X144301259Y-92979540D01*
X144237922Y-93017222D01*
X144128010Y-93082612D01*
X143975392Y-93216455D01*
X143849720Y-93375869D01*
X143849069Y-93377107D01*
X143849068Y-93377108D01*
X143828743Y-93415740D01*
X143755203Y-93555515D01*
X143747897Y-93579045D01*
X143732970Y-93596992D01*
X143718769Y-93600500D01*
X141451828Y-93600500D01*
X141430261Y-93591567D01*
X141421328Y-93570000D01*
X141430261Y-93548433D01*
X143150261Y-91828433D01*
X143171828Y-91819500D01*
X143719124Y-91819500D01*
X143740691Y-91828433D01*
X143746822Y-91837231D01*
X143819377Y-91994616D01*
X143820182Y-91995755D01*
X143935726Y-92159248D01*
X143935730Y-92159252D01*
X143936533Y-92160389D01*
X144081938Y-92302035D01*
X144250720Y-92414812D01*
X144319097Y-92444189D01*
X144435945Y-92494391D01*
X144435947Y-92494392D01*
X144437228Y-92494942D01*
X144635216Y-92539742D01*
X144636612Y-92539797D01*
X144636613Y-92539797D01*
X144793676Y-92545968D01*
X144838053Y-92547712D01*
X145038945Y-92518584D01*
X145040267Y-92518135D01*
X145040272Y-92518134D01*
X145229836Y-92453785D01*
X145231165Y-92453334D01*
X145408276Y-92354147D01*
X145470934Y-92302035D01*
X145563270Y-92225239D01*
X145564345Y-92224345D01*
X145694147Y-92068276D01*
X145793334Y-91891165D01*
X145817661Y-91819500D01*
X145858134Y-91700272D01*
X145858135Y-91700267D01*
X145858584Y-91698945D01*
X145887712Y-91498053D01*
X145889232Y-91440000D01*
X145870658Y-91237859D01*
X145815557Y-91042487D01*
X145809400Y-91030000D01*
X145726394Y-90861681D01*
X145726394Y-90861680D01*
X145725776Y-90860428D01*
X145604320Y-90697779D01*
X145455258Y-90559987D01*
X145283581Y-90451667D01*
X145095039Y-90376446D01*
X145093676Y-90376175D01*
X145093673Y-90376174D01*
X144996419Y-90356829D01*
X144895946Y-90336844D01*
X144801892Y-90335613D01*
X144694375Y-90334205D01*
X144694371Y-90334205D01*
X144692971Y-90334187D01*
X144675920Y-90337117D01*
X144494293Y-90368326D01*
X144494289Y-90368327D01*
X144492910Y-90368564D01*
X144491601Y-90369047D01*
X144491597Y-90369048D01*
X144315006Y-90434197D01*
X144302463Y-90438824D01*
X144301262Y-90439539D01*
X144301259Y-90439540D01*
X144237922Y-90477222D01*
X144128010Y-90542612D01*
X143975392Y-90676455D01*
X143849720Y-90835869D01*
X143849069Y-90837107D01*
X143849068Y-90837108D01*
X143835562Y-90862779D01*
X143755203Y-91015515D01*
X143747897Y-91039045D01*
X143732970Y-91056992D01*
X143718769Y-91060500D01*
X143229828Y-91060500D01*
X143208261Y-91051567D01*
X143199328Y-91030000D01*
X143208261Y-91008433D01*
X144299871Y-89916823D01*
X144321438Y-89907890D01*
X144333475Y-89910366D01*
X144408132Y-89942441D01*
X144435945Y-89954391D01*
X144435947Y-89954392D01*
X144437228Y-89954942D01*
X144635216Y-89999742D01*
X144636612Y-89999797D01*
X144636613Y-89999797D01*
X144793676Y-90005968D01*
X144838053Y-90007712D01*
X145038945Y-89978584D01*
X145040267Y-89978135D01*
X145040272Y-89978134D01*
X145210906Y-89920211D01*
X145231165Y-89913334D01*
X145408276Y-89814147D01*
X145470934Y-89762035D01*
X145563270Y-89685239D01*
X145564345Y-89684345D01*
X145694147Y-89528276D01*
X145793334Y-89351165D01*
X145819567Y-89273885D01*
X145858134Y-89160272D01*
X145858135Y-89160267D01*
X145858584Y-89158945D01*
X145887712Y-88958053D01*
X145889232Y-88900000D01*
X145870658Y-88697859D01*
X145815557Y-88502487D01*
X145802916Y-88476852D01*
X145726394Y-88321681D01*
X145726394Y-88321680D01*
X145725776Y-88320428D01*
X145604320Y-88157779D01*
X145455258Y-88019987D01*
X145283581Y-87911667D01*
X145095039Y-87836446D01*
X145093676Y-87836175D01*
X145093673Y-87836174D01*
X144948381Y-87807274D01*
X144895946Y-87796844D01*
X144801892Y-87795613D01*
X144694375Y-87794205D01*
X144694371Y-87794205D01*
X144692971Y-87794187D01*
X144624376Y-87805974D01*
X144494293Y-87828326D01*
X144494289Y-87828327D01*
X144492910Y-87828564D01*
X144491601Y-87829047D01*
X144491597Y-87829048D01*
X144315006Y-87894197D01*
X144302463Y-87898824D01*
X144301262Y-87899539D01*
X144301259Y-87899540D01*
X144237922Y-87937222D01*
X144128010Y-88002612D01*
X143975392Y-88136455D01*
X143849720Y-88295869D01*
X143849069Y-88297107D01*
X143849068Y-88297108D01*
X143836140Y-88321681D01*
X143755203Y-88475515D01*
X143695007Y-88669378D01*
X143694843Y-88670764D01*
X143682826Y-88772299D01*
X143671148Y-88870964D01*
X143684424Y-89073522D01*
X143734392Y-89270269D01*
X143734979Y-89271542D01*
X143769240Y-89345861D01*
X143770157Y-89369187D01*
X143763109Y-89380197D01*
X142280527Y-90862779D01*
X142258960Y-90871712D01*
X142237393Y-90862779D01*
X142228460Y-90841212D01*
X142228460Y-89460868D01*
X142237393Y-89439301D01*
X144299871Y-87376823D01*
X144321438Y-87367890D01*
X144333475Y-87370366D01*
X144408132Y-87402441D01*
X144435945Y-87414391D01*
X144435947Y-87414392D01*
X144437228Y-87414942D01*
X144635216Y-87459742D01*
X144636612Y-87459797D01*
X144636613Y-87459797D01*
X144793676Y-87465968D01*
X144838053Y-87467712D01*
X145038945Y-87438584D01*
X145040267Y-87438135D01*
X145040272Y-87438134D01*
X145210906Y-87380211D01*
X145231165Y-87373334D01*
X145335280Y-87315027D01*
X145407055Y-87274831D01*
X145407057Y-87274830D01*
X145408276Y-87274147D01*
X145470934Y-87222035D01*
X145563270Y-87145239D01*
X145564345Y-87144345D01*
X145694147Y-86988276D01*
X145793334Y-86811165D01*
X145810633Y-86760203D01*
X145858134Y-86620272D01*
X145858135Y-86620267D01*
X145858584Y-86618945D01*
X145887712Y-86418053D01*
X145889232Y-86360000D01*
X145870658Y-86157859D01*
X145815557Y-85962487D01*
X145802916Y-85936852D01*
X145726394Y-85781681D01*
X145726394Y-85781680D01*
X145725776Y-85780428D01*
X145604320Y-85617779D01*
X145455258Y-85479987D01*
X145283581Y-85371667D01*
X145095039Y-85296446D01*
X145093676Y-85296175D01*
X145093673Y-85296174D01*
X144996419Y-85276829D01*
X144895946Y-85256844D01*
X144801892Y-85255613D01*
X144694375Y-85254205D01*
X144694371Y-85254205D01*
X144692971Y-85254187D01*
X144638645Y-85263522D01*
X144494293Y-85288326D01*
X144494289Y-85288327D01*
X144492910Y-85288564D01*
X144491601Y-85289047D01*
X144491597Y-85289048D01*
X144332998Y-85347559D01*
X144302463Y-85358824D01*
X144301262Y-85359539D01*
X144301259Y-85359540D01*
X144237922Y-85397222D01*
X144128010Y-85462612D01*
X143975392Y-85596455D01*
X143957695Y-85618904D01*
X143878509Y-85719351D01*
X143849720Y-85755869D01*
X143849069Y-85757107D01*
X143849068Y-85757108D01*
X143836140Y-85781681D01*
X143755203Y-85935515D01*
X143695007Y-86129378D01*
X143694843Y-86130764D01*
X143687863Y-86189742D01*
X143671148Y-86330964D01*
X143684424Y-86533522D01*
X143734392Y-86730269D01*
X143734979Y-86731542D01*
X143769240Y-86805861D01*
X143770157Y-86829187D01*
X143763109Y-86840197D01*
X141831007Y-88772299D01*
X141809440Y-88781232D01*
X141787873Y-88772299D01*
X141778940Y-88750732D01*
X141778940Y-87370388D01*
X141787873Y-87348821D01*
X144299871Y-84836823D01*
X144321438Y-84827890D01*
X144333475Y-84830366D01*
X144401002Y-84859378D01*
X144435945Y-84874391D01*
X144435947Y-84874392D01*
X144437228Y-84874942D01*
X144635216Y-84919742D01*
X144636612Y-84919797D01*
X144636613Y-84919797D01*
X144793676Y-84925968D01*
X144838053Y-84927712D01*
X145038945Y-84898584D01*
X145040267Y-84898135D01*
X145040272Y-84898134D01*
X145210906Y-84840211D01*
X145231165Y-84833334D01*
X145408276Y-84734147D01*
X145470934Y-84682035D01*
X145563270Y-84605239D01*
X145564345Y-84604345D01*
X145694147Y-84448276D01*
X145699008Y-84439597D01*
X145792649Y-84272388D01*
X145793334Y-84271165D01*
X145820242Y-84191898D01*
X145858134Y-84080272D01*
X145858135Y-84080267D01*
X145858584Y-84078945D01*
X145887712Y-83878053D01*
X145889232Y-83820000D01*
X145870658Y-83617859D01*
X145815557Y-83422487D01*
X145802916Y-83396852D01*
X145726394Y-83241681D01*
X145726394Y-83241680D01*
X145725776Y-83240428D01*
X145604320Y-83077779D01*
X145455258Y-82939987D01*
X145283581Y-82831667D01*
X145095039Y-82756446D01*
X145093676Y-82756175D01*
X145093673Y-82756174D01*
X144996419Y-82736829D01*
X144895946Y-82716844D01*
X144801892Y-82715613D01*
X144694375Y-82714205D01*
X144694371Y-82714205D01*
X144692971Y-82714187D01*
X144638645Y-82723522D01*
X144494293Y-82748326D01*
X144494289Y-82748327D01*
X144492910Y-82748564D01*
X144491601Y-82749047D01*
X144491597Y-82749048D01*
X144332998Y-82807559D01*
X144302463Y-82818824D01*
X144301262Y-82819539D01*
X144301259Y-82819540D01*
X144237922Y-82857222D01*
X144128010Y-82922612D01*
X143975392Y-83056455D01*
X143957695Y-83078904D01*
X143878509Y-83179351D01*
X143849720Y-83215869D01*
X143849069Y-83217107D01*
X143849068Y-83217108D01*
X143836140Y-83241681D01*
X143755203Y-83395515D01*
X143695007Y-83589378D01*
X143694843Y-83590764D01*
X143687863Y-83649742D01*
X143671148Y-83790964D01*
X143684424Y-83993522D01*
X143734392Y-84190269D01*
X143734979Y-84191542D01*
X143769240Y-84265860D01*
X143770157Y-84289186D01*
X143763109Y-84300196D01*
X143623708Y-84439597D01*
X143602141Y-84448530D01*
X143580574Y-84439597D01*
X143571641Y-84418030D01*
X143571641Y-83037687D01*
X143580574Y-83016120D01*
X144299871Y-82296823D01*
X144321438Y-82287890D01*
X144333475Y-82290366D01*
X144401002Y-82319378D01*
X144435945Y-82334391D01*
X144435947Y-82334392D01*
X144437228Y-82334942D01*
X144635216Y-82379742D01*
X144636612Y-82379797D01*
X144636613Y-82379797D01*
X144793676Y-82385968D01*
X144838053Y-82387712D01*
X145038945Y-82358584D01*
X145040267Y-82358135D01*
X145040272Y-82358134D01*
X145210906Y-82300211D01*
X145231165Y-82293334D01*
X145408276Y-82194147D01*
X145470934Y-82142035D01*
X145563270Y-82065239D01*
X145564345Y-82064345D01*
X145694147Y-81908276D01*
X145793334Y-81731165D01*
X145820242Y-81651898D01*
X145858134Y-81540272D01*
X145858135Y-81540267D01*
X145858584Y-81538945D01*
X145887712Y-81338053D01*
X145889232Y-81280000D01*
X145870658Y-81077859D01*
X145828730Y-80929194D01*
X145815937Y-80883834D01*
X145815937Y-80883833D01*
X145815557Y-80882487D01*
X145802916Y-80856852D01*
X145726394Y-80701681D01*
X145726394Y-80701680D01*
X145725776Y-80700428D01*
X145604320Y-80537779D01*
X145455258Y-80399987D01*
X145283581Y-80291667D01*
X145095039Y-80216446D01*
X145093676Y-80216175D01*
X145093673Y-80216174D01*
X144996419Y-80196829D01*
X144895946Y-80176844D01*
X144801892Y-80175613D01*
X144694375Y-80174205D01*
X144694371Y-80174205D01*
X144692971Y-80174187D01*
X144638645Y-80183522D01*
X144494293Y-80208326D01*
X144494289Y-80208327D01*
X144492910Y-80208564D01*
X144491601Y-80209047D01*
X144491597Y-80209048D01*
X144332998Y-80267559D01*
X144302463Y-80278824D01*
X144301262Y-80279539D01*
X144301259Y-80279540D01*
X144237922Y-80317222D01*
X144128010Y-80382612D01*
X143975392Y-80516455D01*
X143909316Y-80600272D01*
X143861637Y-80660753D01*
X143849720Y-80675869D01*
X143849069Y-80677107D01*
X143849068Y-80677108D01*
X143756669Y-80852729D01*
X143755203Y-80855515D01*
X143695007Y-81049378D01*
X143694006Y-81057834D01*
X143687863Y-81109742D01*
X143671148Y-81250964D01*
X143684424Y-81453522D01*
X143734392Y-81650269D01*
X143734979Y-81651542D01*
X143769240Y-81725861D01*
X143770157Y-81749187D01*
X143763109Y-81760197D01*
X143174188Y-82349118D01*
X143152621Y-82358051D01*
X143131054Y-82349118D01*
X143122121Y-82327551D01*
X143122121Y-80947207D01*
X143131054Y-80925640D01*
X144299871Y-79756823D01*
X144321438Y-79747890D01*
X144333475Y-79750366D01*
X144401002Y-79779378D01*
X144435945Y-79794391D01*
X144435947Y-79794392D01*
X144437228Y-79794942D01*
X144635216Y-79839742D01*
X144636612Y-79839797D01*
X144636613Y-79839797D01*
X144793676Y-79845968D01*
X144838053Y-79847712D01*
X145038945Y-79818584D01*
X145040267Y-79818135D01*
X145040272Y-79818134D01*
X145210906Y-79760211D01*
X145231165Y-79753334D01*
X145408276Y-79654147D01*
X145470934Y-79602035D01*
X145563270Y-79525239D01*
X145564345Y-79524345D01*
X145694147Y-79368276D01*
X145793334Y-79191165D01*
X145820242Y-79111898D01*
X145858134Y-79000272D01*
X145858135Y-79000267D01*
X145858584Y-78998945D01*
X145887712Y-78798053D01*
X145889232Y-78740000D01*
X145870658Y-78537859D01*
X145815557Y-78342487D01*
X145802916Y-78316852D01*
X145726394Y-78161681D01*
X145726394Y-78161680D01*
X145725776Y-78160428D01*
X145604320Y-77997779D01*
X145455258Y-77859987D01*
X145283581Y-77751667D01*
X145095039Y-77676446D01*
X145093676Y-77676175D01*
X145093673Y-77676174D01*
X144996419Y-77656829D01*
X144895946Y-77636844D01*
X144801892Y-77635613D01*
X144694375Y-77634205D01*
X144694371Y-77634205D01*
X144692971Y-77634187D01*
X144675920Y-77637117D01*
X144494293Y-77668326D01*
X144494289Y-77668327D01*
X144492910Y-77668564D01*
X144491601Y-77669047D01*
X144491597Y-77669048D01*
X144315006Y-77734197D01*
X144302463Y-77738824D01*
X144301262Y-77739539D01*
X144301259Y-77739540D01*
X144237922Y-77777222D01*
X144128010Y-77842612D01*
X143975392Y-77976455D01*
X143849720Y-78135869D01*
X143849069Y-78137107D01*
X143849068Y-78137108D01*
X143836140Y-78161681D01*
X143755203Y-78315515D01*
X143695007Y-78509378D01*
X143671148Y-78710964D01*
X143684424Y-78913522D01*
X143734392Y-79110269D01*
X143734979Y-79111542D01*
X143769240Y-79185861D01*
X143770157Y-79209187D01*
X143763109Y-79220197D01*
X142505215Y-80478091D01*
X142500192Y-80482147D01*
X142483681Y-80492808D01*
X142482121Y-80494787D01*
X142459410Y-80523596D01*
X142457025Y-80526281D01*
X142451983Y-80531323D01*
X142439436Y-80548880D01*
X142438595Y-80550000D01*
X142428075Y-80563345D01*
X142407026Y-80590045D01*
X142407024Y-80590048D01*
X142405465Y-80592026D01*
X142404630Y-80594405D01*
X142403871Y-80596565D01*
X142399909Y-80604192D01*
X142397107Y-80608113D01*
X142396384Y-80610529D01*
X142396384Y-80610530D01*
X142381773Y-80659386D01*
X142381329Y-80660752D01*
X142363603Y-80711230D01*
X142363121Y-80716795D01*
X142363121Y-80717443D01*
X142363092Y-80718115D01*
X142363002Y-80718111D01*
X142361842Y-80726034D01*
X142360908Y-80729157D01*
X142361007Y-80731680D01*
X142361007Y-80731681D01*
X142363097Y-80784872D01*
X142363121Y-80786069D01*
X142363121Y-84416115D01*
X142354188Y-84437682D01*
X140262994Y-86528876D01*
X140257971Y-86532932D01*
X140241460Y-86543593D01*
X140239900Y-86545572D01*
X140217189Y-86574381D01*
X140214804Y-86577066D01*
X140209762Y-86582108D01*
X140197215Y-86599665D01*
X140196374Y-86600785D01*
X140183151Y-86617559D01*
X140164805Y-86640830D01*
X140164803Y-86640833D01*
X140163244Y-86642811D01*
X140162409Y-86645190D01*
X140161650Y-86647350D01*
X140157688Y-86654977D01*
X140154886Y-86658898D01*
X140154163Y-86661314D01*
X140154163Y-86661315D01*
X140139552Y-86710171D01*
X140139108Y-86711537D01*
X140121382Y-86762015D01*
X140120900Y-86767580D01*
X140120900Y-86768228D01*
X140120871Y-86768900D01*
X140120781Y-86768896D01*
X140119621Y-86776819D01*
X140118687Y-86779942D01*
X140118786Y-86782465D01*
X140118786Y-86782466D01*
X140120876Y-86835657D01*
X140120900Y-86836854D01*
X140120900Y-89971073D01*
X140111967Y-89992640D01*
X137963489Y-92141118D01*
X137941922Y-92150051D01*
X137923356Y-92143749D01*
X137901516Y-92126991D01*
X137796466Y-92088755D01*
X137684675Y-92088755D01*
X137682170Y-92089667D01*
X137682169Y-92089667D01*
X137642411Y-92104138D01*
X137579626Y-92126991D01*
X137577775Y-92128411D01*
X137577772Y-92128413D01*
X137543480Y-92154726D01*
X137543476Y-92154730D01*
X137542683Y-92155338D01*
X137408583Y-92289438D01*
X137387018Y-92298370D01*
X137365451Y-92289437D01*
X137197553Y-92121539D01*
X137188620Y-92099972D01*
X137188620Y-87321447D01*
X137189303Y-87315027D01*
X137192911Y-87298270D01*
X137192911Y-87298269D01*
X137193441Y-87295808D01*
X137188831Y-87256861D01*
X137188620Y-87253277D01*
X137188620Y-87246160D01*
X137185083Y-87224908D01*
X137184882Y-87223499D01*
X137178886Y-87172846D01*
X137178590Y-87170343D01*
X137177499Y-87168070D01*
X137177497Y-87168065D01*
X137176506Y-87166001D01*
X137173914Y-87157806D01*
X137173538Y-87155546D01*
X137173124Y-87153058D01*
X137147708Y-87105954D01*
X137147057Y-87104675D01*
X137124734Y-87058187D01*
X137123901Y-87056452D01*
X137120307Y-87052177D01*
X137119850Y-87051720D01*
X137119395Y-87051224D01*
X137119462Y-87051163D01*
X137114678Y-87044739D01*
X137114326Y-87044087D01*
X137113130Y-87041870D01*
X137072184Y-87004020D01*
X137071321Y-87003191D01*
X135129094Y-85060964D01*
X136051148Y-85060964D01*
X136064424Y-85263522D01*
X136114392Y-85460269D01*
X136114979Y-85461542D01*
X136177175Y-85596455D01*
X136199377Y-85644616D01*
X136200182Y-85645755D01*
X136315726Y-85809248D01*
X136315730Y-85809252D01*
X136316533Y-85810389D01*
X136461938Y-85952035D01*
X136630720Y-86064812D01*
X136718788Y-86102649D01*
X136815945Y-86144391D01*
X136815947Y-86144392D01*
X136817228Y-86144942D01*
X137015216Y-86189742D01*
X137016612Y-86189797D01*
X137016613Y-86189797D01*
X137173676Y-86195968D01*
X137218053Y-86197712D01*
X137418945Y-86168584D01*
X137420267Y-86168135D01*
X137420272Y-86168134D01*
X137609836Y-86103785D01*
X137611165Y-86103334D01*
X137788276Y-86004147D01*
X137850934Y-85952035D01*
X137943270Y-85875239D01*
X137944345Y-85874345D01*
X138074147Y-85718276D01*
X138173334Y-85541165D01*
X138200242Y-85461898D01*
X138238134Y-85350272D01*
X138238135Y-85350267D01*
X138238584Y-85348945D01*
X138267712Y-85148053D01*
X138269232Y-85090000D01*
X138250658Y-84887859D01*
X138195557Y-84692487D01*
X138182916Y-84666852D01*
X138106394Y-84511681D01*
X138106394Y-84511680D01*
X138105776Y-84510428D01*
X137984320Y-84347779D01*
X137835258Y-84209987D01*
X137663581Y-84101667D01*
X137475039Y-84026446D01*
X137473676Y-84026175D01*
X137473673Y-84026174D01*
X137376419Y-84006829D01*
X137275946Y-83986844D01*
X137181892Y-83985613D01*
X137074375Y-83984205D01*
X137074371Y-83984205D01*
X137072971Y-83984187D01*
X137018645Y-83993522D01*
X136874293Y-84018326D01*
X136874289Y-84018327D01*
X136872910Y-84018564D01*
X136871601Y-84019047D01*
X136871597Y-84019048D01*
X136807050Y-84042861D01*
X136682463Y-84088824D01*
X136681262Y-84089539D01*
X136681259Y-84089540D01*
X136617922Y-84127222D01*
X136508010Y-84192612D01*
X136355392Y-84326455D01*
X136288950Y-84410736D01*
X136258509Y-84449351D01*
X136229720Y-84485869D01*
X136229069Y-84487107D01*
X136229068Y-84487108D01*
X136216140Y-84511681D01*
X136135203Y-84665515D01*
X136075007Y-84859378D01*
X136074843Y-84860764D01*
X136067863Y-84919742D01*
X136051148Y-85060964D01*
X135129094Y-85060964D01*
X134500433Y-84432303D01*
X134491500Y-84410736D01*
X134491500Y-82520964D01*
X136051148Y-82520964D01*
X136064424Y-82723522D01*
X136114392Y-82920269D01*
X136151073Y-82999836D01*
X136177175Y-83056455D01*
X136199377Y-83104616D01*
X136200182Y-83105755D01*
X136315726Y-83269248D01*
X136315730Y-83269252D01*
X136316533Y-83270389D01*
X136461938Y-83412035D01*
X136630720Y-83524812D01*
X136718788Y-83562649D01*
X136815945Y-83604391D01*
X136815947Y-83604392D01*
X136817228Y-83604942D01*
X137015216Y-83649742D01*
X137016612Y-83649797D01*
X137016613Y-83649797D01*
X137173676Y-83655968D01*
X137218053Y-83657712D01*
X137418945Y-83628584D01*
X137420267Y-83628135D01*
X137420272Y-83628134D01*
X137609836Y-83563785D01*
X137611165Y-83563334D01*
X137788276Y-83464147D01*
X137850934Y-83412035D01*
X137943270Y-83335239D01*
X137944345Y-83334345D01*
X138074147Y-83178276D01*
X138173334Y-83001165D01*
X138200242Y-82921898D01*
X138238134Y-82810272D01*
X138238135Y-82810267D01*
X138238584Y-82808945D01*
X138267712Y-82608053D01*
X138269232Y-82550000D01*
X138266564Y-82520964D01*
X138591148Y-82520964D01*
X138604424Y-82723522D01*
X138654392Y-82920269D01*
X138691073Y-82999836D01*
X138717175Y-83056455D01*
X138739377Y-83104616D01*
X138740182Y-83105755D01*
X138855726Y-83269248D01*
X138855730Y-83269252D01*
X138856533Y-83270389D01*
X139001938Y-83412035D01*
X139170720Y-83524812D01*
X139258788Y-83562649D01*
X139355945Y-83604391D01*
X139355947Y-83604392D01*
X139357228Y-83604942D01*
X139555216Y-83649742D01*
X139556612Y-83649797D01*
X139556613Y-83649797D01*
X139713676Y-83655968D01*
X139758053Y-83657712D01*
X139958945Y-83628584D01*
X139960267Y-83628135D01*
X139960272Y-83628134D01*
X140149836Y-83563785D01*
X140151165Y-83563334D01*
X140328276Y-83464147D01*
X140390934Y-83412035D01*
X140483270Y-83335239D01*
X140484345Y-83334345D01*
X140614147Y-83178276D01*
X140713334Y-83001165D01*
X140740242Y-82921898D01*
X140778134Y-82810272D01*
X140778135Y-82810267D01*
X140778584Y-82808945D01*
X140807712Y-82608053D01*
X140809232Y-82550000D01*
X140790658Y-82347859D01*
X140735557Y-82152487D01*
X140722916Y-82126852D01*
X140646394Y-81971681D01*
X140646394Y-81971680D01*
X140645776Y-81970428D01*
X140524320Y-81807779D01*
X140375258Y-81669987D01*
X140203581Y-81561667D01*
X140015039Y-81486446D01*
X140013676Y-81486175D01*
X140013673Y-81486174D01*
X139916419Y-81466829D01*
X139815946Y-81446844D01*
X139721892Y-81445613D01*
X139614375Y-81444205D01*
X139614371Y-81444205D01*
X139612971Y-81444187D01*
X139558645Y-81453522D01*
X139414293Y-81478326D01*
X139414289Y-81478327D01*
X139412910Y-81478564D01*
X139411601Y-81479047D01*
X139411597Y-81479048D01*
X139252998Y-81537559D01*
X139222463Y-81548824D01*
X139221262Y-81549539D01*
X139221259Y-81549540D01*
X139157922Y-81587222D01*
X139048010Y-81652612D01*
X138895392Y-81786455D01*
X138877695Y-81808904D01*
X138798509Y-81909351D01*
X138769720Y-81945869D01*
X138769069Y-81947107D01*
X138769068Y-81947108D01*
X138756140Y-81971681D01*
X138675203Y-82125515D01*
X138615007Y-82319378D01*
X138614843Y-82320764D01*
X138605325Y-82401185D01*
X138591148Y-82520964D01*
X138266564Y-82520964D01*
X138250658Y-82347859D01*
X138195557Y-82152487D01*
X138182916Y-82126852D01*
X138106394Y-81971681D01*
X138106394Y-81971680D01*
X138105776Y-81970428D01*
X137984320Y-81807779D01*
X137835258Y-81669987D01*
X137663581Y-81561667D01*
X137475039Y-81486446D01*
X137473676Y-81486175D01*
X137473673Y-81486174D01*
X137376419Y-81466829D01*
X137275946Y-81446844D01*
X137181892Y-81445613D01*
X137074375Y-81444205D01*
X137074371Y-81444205D01*
X137072971Y-81444187D01*
X137018645Y-81453522D01*
X136874293Y-81478326D01*
X136874289Y-81478327D01*
X136872910Y-81478564D01*
X136871601Y-81479047D01*
X136871597Y-81479048D01*
X136712998Y-81537559D01*
X136682463Y-81548824D01*
X136681262Y-81549539D01*
X136681259Y-81549540D01*
X136617922Y-81587222D01*
X136508010Y-81652612D01*
X136355392Y-81786455D01*
X136337695Y-81808904D01*
X136258509Y-81909351D01*
X136229720Y-81945869D01*
X136229069Y-81947107D01*
X136229068Y-81947108D01*
X136216140Y-81971681D01*
X136135203Y-82125515D01*
X136075007Y-82319378D01*
X136074843Y-82320764D01*
X136065325Y-82401185D01*
X136051148Y-82520964D01*
X134491500Y-82520964D01*
X134491500Y-80815759D01*
X134492183Y-80809339D01*
X134495790Y-80792586D01*
X134496320Y-80790124D01*
X134491711Y-80751183D01*
X134491500Y-80747599D01*
X134491500Y-80740476D01*
X134490036Y-80731681D01*
X134487963Y-80719226D01*
X134487760Y-80717803D01*
X134482797Y-80675869D01*
X134481470Y-80664659D01*
X134480379Y-80662386D01*
X134480377Y-80662381D01*
X134479386Y-80660317D01*
X134478576Y-80657756D01*
X136055500Y-80657756D01*
X136055589Y-80658572D01*
X136055589Y-80658579D01*
X136056002Y-80662381D01*
X136062202Y-80719448D01*
X136112929Y-80854764D01*
X136199596Y-80970404D01*
X136201340Y-80971711D01*
X136306821Y-81050764D01*
X136315236Y-81057071D01*
X136317270Y-81057834D01*
X136317271Y-81057834D01*
X136399298Y-81088584D01*
X136450552Y-81107798D01*
X136468447Y-81109742D01*
X136511421Y-81114411D01*
X136511428Y-81114411D01*
X136512244Y-81114500D01*
X137807756Y-81114500D01*
X137808572Y-81114411D01*
X137808579Y-81114411D01*
X137851553Y-81109742D01*
X137869448Y-81107798D01*
X137920702Y-81088584D01*
X138002729Y-81057834D01*
X138002730Y-81057834D01*
X138004764Y-81057071D01*
X138013180Y-81050764D01*
X138118660Y-80971711D01*
X138120404Y-80970404D01*
X138207071Y-80854764D01*
X138257798Y-80719448D01*
X138263998Y-80662381D01*
X138264411Y-80658579D01*
X138264411Y-80658572D01*
X138264500Y-80657756D01*
X138264500Y-79980964D01*
X138591148Y-79980964D01*
X138604424Y-80183522D01*
X138654392Y-80380269D01*
X138700546Y-80480385D01*
X138732384Y-80549446D01*
X138739377Y-80564616D01*
X138740182Y-80565755D01*
X138855726Y-80729248D01*
X138855730Y-80729252D01*
X138856533Y-80730389D01*
X139001938Y-80872035D01*
X139170720Y-80984812D01*
X139258788Y-81022649D01*
X139355945Y-81064391D01*
X139355947Y-81064392D01*
X139357228Y-81064942D01*
X139555216Y-81109742D01*
X139556612Y-81109797D01*
X139556613Y-81109797D01*
X139674042Y-81114411D01*
X139758053Y-81117712D01*
X139958945Y-81088584D01*
X139960267Y-81088135D01*
X139960272Y-81088134D01*
X140149836Y-81023785D01*
X140151165Y-81023334D01*
X140221335Y-80984037D01*
X140327055Y-80924831D01*
X140327057Y-80924830D01*
X140328276Y-80924147D01*
X140390934Y-80872035D01*
X140483270Y-80795239D01*
X140484345Y-80794345D01*
X140614147Y-80638276D01*
X140669714Y-80539055D01*
X140696379Y-80491441D01*
X140713334Y-80461165D01*
X140740242Y-80381898D01*
X140778134Y-80270272D01*
X140778135Y-80270267D01*
X140778584Y-80268945D01*
X140807712Y-80068053D01*
X140809232Y-80010000D01*
X140790658Y-79807859D01*
X140735557Y-79612487D01*
X140722916Y-79586852D01*
X140646394Y-79431681D01*
X140646394Y-79431680D01*
X140645776Y-79430428D01*
X140524320Y-79267779D01*
X140375258Y-79129987D01*
X140203581Y-79021667D01*
X140015039Y-78946446D01*
X140013676Y-78946175D01*
X140013673Y-78946174D01*
X139916419Y-78926829D01*
X139815946Y-78906844D01*
X139721892Y-78905613D01*
X139614375Y-78904205D01*
X139614371Y-78904205D01*
X139612971Y-78904187D01*
X139566327Y-78912202D01*
X139414293Y-78938326D01*
X139414289Y-78938327D01*
X139412910Y-78938564D01*
X139411601Y-78939047D01*
X139411597Y-78939048D01*
X139252998Y-78997559D01*
X139222463Y-79008824D01*
X139221262Y-79009539D01*
X139221259Y-79009540D01*
X139157922Y-79047222D01*
X139048010Y-79112612D01*
X138895392Y-79246455D01*
X138851249Y-79302450D01*
X138798509Y-79369351D01*
X138769720Y-79405869D01*
X138769069Y-79407107D01*
X138769068Y-79407108D01*
X138756140Y-79431681D01*
X138675203Y-79585515D01*
X138615007Y-79779378D01*
X138614843Y-79780764D01*
X138607863Y-79839742D01*
X138591148Y-79980964D01*
X138264500Y-79980964D01*
X138264500Y-79362244D01*
X138257798Y-79300552D01*
X138245512Y-79267779D01*
X138207834Y-79167271D01*
X138207834Y-79167270D01*
X138207071Y-79165236D01*
X138120404Y-79049596D01*
X138004764Y-78962929D01*
X137962172Y-78946962D01*
X137871238Y-78912873D01*
X137869448Y-78912202D01*
X137848674Y-78909945D01*
X137808579Y-78905589D01*
X137808572Y-78905589D01*
X137807756Y-78905500D01*
X136512244Y-78905500D01*
X136511428Y-78905589D01*
X136511421Y-78905589D01*
X136471326Y-78909945D01*
X136450552Y-78912202D01*
X136448762Y-78912873D01*
X136357829Y-78946962D01*
X136315236Y-78962929D01*
X136199596Y-79049596D01*
X136112929Y-79165236D01*
X136112166Y-79167270D01*
X136112166Y-79167271D01*
X136074488Y-79267779D01*
X136062202Y-79300552D01*
X136055500Y-79362244D01*
X136055500Y-80657756D01*
X134478576Y-80657756D01*
X134476794Y-80652122D01*
X134476418Y-80649862D01*
X134476004Y-80647374D01*
X134450588Y-80600270D01*
X134449937Y-80598991D01*
X134427615Y-80552504D01*
X134427613Y-80552502D01*
X134426781Y-80550768D01*
X134423186Y-80546492D01*
X134422719Y-80546025D01*
X134422268Y-80545533D01*
X134422336Y-80545471D01*
X134417558Y-80539055D01*
X134416010Y-80536186D01*
X134375064Y-80498336D01*
X134374201Y-80497507D01*
X133100211Y-79223517D01*
X133091278Y-79201950D01*
X133093555Y-79191240D01*
X133093334Y-79191165D01*
X133158134Y-79000272D01*
X133158135Y-79000267D01*
X133158584Y-78998945D01*
X133187712Y-78798053D01*
X133189232Y-78740000D01*
X133170658Y-78537859D01*
X133115557Y-78342487D01*
X133102916Y-78316852D01*
X133026394Y-78161681D01*
X133026394Y-78161680D01*
X133025776Y-78160428D01*
X132904320Y-77997779D01*
X132755258Y-77859987D01*
X132583581Y-77751667D01*
X132395039Y-77676446D01*
X132393676Y-77676175D01*
X132393673Y-77676174D01*
X132296419Y-77656829D01*
X132195946Y-77636844D01*
X132101892Y-77635613D01*
X131994375Y-77634205D01*
X131994371Y-77634205D01*
X131992971Y-77634187D01*
X131975920Y-77637117D01*
X131794293Y-77668326D01*
X131794289Y-77668327D01*
X131792910Y-77668564D01*
X131791601Y-77669047D01*
X131791597Y-77669048D01*
X131615006Y-77734197D01*
X131602463Y-77738824D01*
X131601262Y-77739539D01*
X131601259Y-77739540D01*
X131537922Y-77777222D01*
X131428010Y-77842612D01*
X131275392Y-77976455D01*
X131149720Y-78135869D01*
X131149069Y-78137107D01*
X131149068Y-78137108D01*
X131136140Y-78161681D01*
X131055203Y-78315515D01*
X130995007Y-78509378D01*
X130971148Y-78710964D01*
X130984424Y-78913522D01*
X131034392Y-79110269D01*
X131034979Y-79111542D01*
X131097175Y-79246455D01*
X131119377Y-79294616D01*
X131120182Y-79295755D01*
X131235726Y-79459248D01*
X131235730Y-79459252D01*
X131236533Y-79460389D01*
X131381938Y-79602035D01*
X131550720Y-79714812D01*
X131614486Y-79742208D01*
X131735945Y-79794391D01*
X131735947Y-79794392D01*
X131737228Y-79794942D01*
X131935216Y-79839742D01*
X131936612Y-79839797D01*
X131936613Y-79839797D01*
X132093676Y-79845968D01*
X132138053Y-79847712D01*
X132338945Y-79818584D01*
X132340267Y-79818135D01*
X132340272Y-79818134D01*
X132531165Y-79753334D01*
X132531347Y-79753869D01*
X132552875Y-79753302D01*
X132563517Y-79760211D01*
X133723567Y-80920261D01*
X133732500Y-80941828D01*
X133732500Y-82322172D01*
X133723567Y-82343739D01*
X133702000Y-82352672D01*
X133680433Y-82343739D01*
X133100211Y-81763517D01*
X133091278Y-81741950D01*
X133093555Y-81731240D01*
X133093334Y-81731165D01*
X133158134Y-81540272D01*
X133158135Y-81540267D01*
X133158584Y-81538945D01*
X133187712Y-81338053D01*
X133189232Y-81280000D01*
X133170658Y-81077859D01*
X133128730Y-80929194D01*
X133115937Y-80883834D01*
X133115937Y-80883833D01*
X133115557Y-80882487D01*
X133102916Y-80856852D01*
X133026394Y-80701681D01*
X133026394Y-80701680D01*
X133025776Y-80700428D01*
X132904320Y-80537779D01*
X132755258Y-80399987D01*
X132583581Y-80291667D01*
X132395039Y-80216446D01*
X132393676Y-80216175D01*
X132393673Y-80216174D01*
X132296419Y-80196829D01*
X132195946Y-80176844D01*
X132101892Y-80175613D01*
X131994375Y-80174205D01*
X131994371Y-80174205D01*
X131992971Y-80174187D01*
X131938645Y-80183522D01*
X131794293Y-80208326D01*
X131794289Y-80208327D01*
X131792910Y-80208564D01*
X131791601Y-80209047D01*
X131791597Y-80209048D01*
X131632998Y-80267559D01*
X131602463Y-80278824D01*
X131601262Y-80279539D01*
X131601259Y-80279540D01*
X131537922Y-80317222D01*
X131428010Y-80382612D01*
X131275392Y-80516455D01*
X131209316Y-80600272D01*
X131161637Y-80660753D01*
X131149720Y-80675869D01*
X131149069Y-80677107D01*
X131149068Y-80677108D01*
X131056669Y-80852729D01*
X131055203Y-80855515D01*
X130995007Y-81049378D01*
X130994006Y-81057834D01*
X130987863Y-81109742D01*
X130971148Y-81250964D01*
X130984424Y-81453522D01*
X131034392Y-81650269D01*
X131034979Y-81651542D01*
X131097175Y-81786455D01*
X131119377Y-81834616D01*
X131120182Y-81835755D01*
X131235726Y-81999248D01*
X131235730Y-81999252D01*
X131236533Y-82000389D01*
X131381938Y-82142035D01*
X131550720Y-82254812D01*
X131614486Y-82282208D01*
X131735945Y-82334391D01*
X131735947Y-82334392D01*
X131737228Y-82334942D01*
X131935216Y-82379742D01*
X131936612Y-82379797D01*
X131936613Y-82379797D01*
X132093676Y-82385968D01*
X132138053Y-82387712D01*
X132338945Y-82358584D01*
X132340267Y-82358135D01*
X132340272Y-82358134D01*
X132531165Y-82293334D01*
X132531347Y-82293869D01*
X132552875Y-82293302D01*
X132563517Y-82300211D01*
X133215567Y-82952262D01*
X133224500Y-82973829D01*
X133224500Y-83588260D01*
X133215567Y-83609827D01*
X133194000Y-83618760D01*
X133172433Y-83609827D01*
X133164645Y-83596539D01*
X133115937Y-83423834D01*
X133115937Y-83423833D01*
X133115557Y-83422487D01*
X133102916Y-83396852D01*
X133026394Y-83241681D01*
X133026394Y-83241680D01*
X133025776Y-83240428D01*
X132904320Y-83077779D01*
X132755258Y-82939987D01*
X132583581Y-82831667D01*
X132395039Y-82756446D01*
X132393676Y-82756175D01*
X132393673Y-82756174D01*
X132296419Y-82736829D01*
X132195946Y-82716844D01*
X132101892Y-82715613D01*
X131994375Y-82714205D01*
X131994371Y-82714205D01*
X131992971Y-82714187D01*
X131938645Y-82723522D01*
X131794293Y-82748326D01*
X131794289Y-82748327D01*
X131792910Y-82748564D01*
X131791601Y-82749047D01*
X131791597Y-82749048D01*
X131632998Y-82807559D01*
X131602463Y-82818824D01*
X131601262Y-82819539D01*
X131601259Y-82819540D01*
X131537922Y-82857222D01*
X131428010Y-82922612D01*
X131275392Y-83056455D01*
X131257695Y-83078904D01*
X131178509Y-83179351D01*
X131149720Y-83215869D01*
X131149069Y-83217107D01*
X131149068Y-83217108D01*
X131136140Y-83241681D01*
X131055203Y-83395515D01*
X130995007Y-83589378D01*
X130994843Y-83590764D01*
X130987863Y-83649742D01*
X130971148Y-83790964D01*
X130984424Y-83993522D01*
X131034392Y-84190269D01*
X131034979Y-84191542D01*
X131097175Y-84326455D01*
X131119377Y-84374616D01*
X131120182Y-84375755D01*
X131235726Y-84539248D01*
X131235730Y-84539252D01*
X131236533Y-84540389D01*
X131381938Y-84682035D01*
X131550720Y-84794812D01*
X131614486Y-84822208D01*
X131735945Y-84874391D01*
X131735947Y-84874392D01*
X131737228Y-84874942D01*
X131935216Y-84919742D01*
X131936612Y-84919797D01*
X131936613Y-84919797D01*
X132093676Y-84925968D01*
X132138053Y-84927712D01*
X132338945Y-84898584D01*
X132340267Y-84898135D01*
X132340272Y-84898134D01*
X132531165Y-84833334D01*
X132531347Y-84833869D01*
X132552875Y-84833302D01*
X132563517Y-84840211D01*
X135521647Y-87798341D01*
X135530580Y-87819908D01*
X135530580Y-89200251D01*
X135521647Y-89221818D01*
X135500080Y-89230751D01*
X135478513Y-89221818D01*
X133100211Y-86843517D01*
X133091278Y-86821950D01*
X133093555Y-86811240D01*
X133093334Y-86811165D01*
X133158134Y-86620272D01*
X133158135Y-86620267D01*
X133158584Y-86618945D01*
X133187712Y-86418053D01*
X133189232Y-86360000D01*
X133170658Y-86157859D01*
X133115557Y-85962487D01*
X133102916Y-85936852D01*
X133026394Y-85781681D01*
X133026394Y-85781680D01*
X133025776Y-85780428D01*
X132904320Y-85617779D01*
X132755258Y-85479987D01*
X132583581Y-85371667D01*
X132395039Y-85296446D01*
X132393676Y-85296175D01*
X132393673Y-85296174D01*
X132296419Y-85276829D01*
X132195946Y-85256844D01*
X132101892Y-85255613D01*
X131994375Y-85254205D01*
X131994371Y-85254205D01*
X131992971Y-85254187D01*
X131938645Y-85263522D01*
X131794293Y-85288326D01*
X131794289Y-85288327D01*
X131792910Y-85288564D01*
X131791601Y-85289047D01*
X131791597Y-85289048D01*
X131632998Y-85347559D01*
X131602463Y-85358824D01*
X131601262Y-85359539D01*
X131601259Y-85359540D01*
X131537922Y-85397222D01*
X131428010Y-85462612D01*
X131275392Y-85596455D01*
X131257695Y-85618904D01*
X131178509Y-85719351D01*
X131149720Y-85755869D01*
X131149069Y-85757107D01*
X131149068Y-85757108D01*
X131136140Y-85781681D01*
X131055203Y-85935515D01*
X130995007Y-86129378D01*
X130994843Y-86130764D01*
X130987863Y-86189742D01*
X130971148Y-86330964D01*
X130984424Y-86533522D01*
X131034392Y-86730269D01*
X131119377Y-86914616D01*
X131120182Y-86915755D01*
X131235726Y-87079248D01*
X131235730Y-87079252D01*
X131236533Y-87080389D01*
X131381938Y-87222035D01*
X131550720Y-87334812D01*
X131583327Y-87348821D01*
X131735945Y-87414391D01*
X131735947Y-87414392D01*
X131737228Y-87414942D01*
X131935216Y-87459742D01*
X131936612Y-87459797D01*
X131936613Y-87459797D01*
X132093676Y-87465968D01*
X132138053Y-87467712D01*
X132338945Y-87438584D01*
X132340267Y-87438135D01*
X132340272Y-87438134D01*
X132531165Y-87373334D01*
X132531347Y-87373869D01*
X132552875Y-87373302D01*
X132563517Y-87380211D01*
X135072127Y-89888821D01*
X135081060Y-89910388D01*
X135081060Y-91290732D01*
X135072127Y-91312299D01*
X135050560Y-91321232D01*
X135028993Y-91312299D01*
X133100211Y-89383517D01*
X133091278Y-89361950D01*
X133093555Y-89351240D01*
X133093334Y-89351165D01*
X133158134Y-89160272D01*
X133158135Y-89160267D01*
X133158584Y-89158945D01*
X133187712Y-88958053D01*
X133189232Y-88900000D01*
X133170658Y-88697859D01*
X133115557Y-88502487D01*
X133102916Y-88476852D01*
X133026394Y-88321681D01*
X133026394Y-88321680D01*
X133025776Y-88320428D01*
X132904320Y-88157779D01*
X132755258Y-88019987D01*
X132583581Y-87911667D01*
X132395039Y-87836446D01*
X132393676Y-87836175D01*
X132393673Y-87836174D01*
X132248381Y-87807274D01*
X132195946Y-87796844D01*
X132101892Y-87795613D01*
X131994375Y-87794205D01*
X131994371Y-87794205D01*
X131992971Y-87794187D01*
X131924376Y-87805974D01*
X131794293Y-87828326D01*
X131794289Y-87828327D01*
X131792910Y-87828564D01*
X131791601Y-87829047D01*
X131791597Y-87829048D01*
X131615006Y-87894197D01*
X131602463Y-87898824D01*
X131601262Y-87899539D01*
X131601259Y-87899540D01*
X131537922Y-87937222D01*
X131428010Y-88002612D01*
X131275392Y-88136455D01*
X131149720Y-88295869D01*
X131149069Y-88297107D01*
X131149068Y-88297108D01*
X131136140Y-88321681D01*
X131055203Y-88475515D01*
X130995007Y-88669378D01*
X130994843Y-88670764D01*
X130982826Y-88772299D01*
X130971148Y-88870964D01*
X130984424Y-89073522D01*
X131034392Y-89270269D01*
X131119377Y-89454616D01*
X131120182Y-89455755D01*
X131235726Y-89619248D01*
X131235730Y-89619252D01*
X131236533Y-89620389D01*
X131381938Y-89762035D01*
X131550720Y-89874812D01*
X131583327Y-89888821D01*
X131735945Y-89954391D01*
X131735947Y-89954392D01*
X131737228Y-89954942D01*
X131935216Y-89999742D01*
X131936612Y-89999797D01*
X131936613Y-89999797D01*
X132093676Y-90005968D01*
X132138053Y-90007712D01*
X132338945Y-89978584D01*
X132340267Y-89978135D01*
X132340272Y-89978134D01*
X132531165Y-89913334D01*
X132531347Y-89913869D01*
X132552875Y-89913302D01*
X132563517Y-89920211D01*
X134622607Y-91979301D01*
X134631540Y-92000868D01*
X134631540Y-93256388D01*
X134630857Y-93262808D01*
X134630071Y-93266461D01*
X134626720Y-93282023D01*
X134629245Y-93303357D01*
X134631329Y-93320963D01*
X134631540Y-93324548D01*
X134631540Y-93331671D01*
X134631746Y-93332908D01*
X134631746Y-93332909D01*
X134635077Y-93352921D01*
X134635280Y-93354344D01*
X134638936Y-93385233D01*
X134632599Y-93407700D01*
X134612232Y-93419107D01*
X134589765Y-93412770D01*
X134587080Y-93410385D01*
X133100211Y-91923517D01*
X133091278Y-91901950D01*
X133093555Y-91891240D01*
X133093334Y-91891165D01*
X133158134Y-91700272D01*
X133158135Y-91700267D01*
X133158584Y-91698945D01*
X133187712Y-91498053D01*
X133189232Y-91440000D01*
X133170658Y-91237859D01*
X133115557Y-91042487D01*
X133109400Y-91030000D01*
X133026394Y-90861681D01*
X133026394Y-90861680D01*
X133025776Y-90860428D01*
X132904320Y-90697779D01*
X132755258Y-90559987D01*
X132583581Y-90451667D01*
X132395039Y-90376446D01*
X132393676Y-90376175D01*
X132393673Y-90376174D01*
X132296419Y-90356829D01*
X132195946Y-90336844D01*
X132101892Y-90335613D01*
X131994375Y-90334205D01*
X131994371Y-90334205D01*
X131992971Y-90334187D01*
X131975920Y-90337117D01*
X131794293Y-90368326D01*
X131794289Y-90368327D01*
X131792910Y-90368564D01*
X131791601Y-90369047D01*
X131791597Y-90369048D01*
X131615006Y-90434197D01*
X131602463Y-90438824D01*
X131601262Y-90439539D01*
X131601259Y-90439540D01*
X131537922Y-90477222D01*
X131428010Y-90542612D01*
X131275392Y-90676455D01*
X131149720Y-90835869D01*
X131149069Y-90837107D01*
X131149068Y-90837108D01*
X131136140Y-90861681D01*
X131055203Y-91015515D01*
X130995007Y-91209378D01*
X130994843Y-91210764D01*
X130982826Y-91312299D01*
X130971148Y-91410964D01*
X130984424Y-91613522D01*
X131034392Y-91810269D01*
X131119377Y-91994616D01*
X131120182Y-91995755D01*
X131235726Y-92159248D01*
X131235730Y-92159252D01*
X131236533Y-92160389D01*
X131381938Y-92302035D01*
X131550720Y-92414812D01*
X131619097Y-92444189D01*
X131735945Y-92494391D01*
X131735947Y-92494392D01*
X131737228Y-92494942D01*
X131935216Y-92539742D01*
X131936612Y-92539797D01*
X131936613Y-92539797D01*
X132093676Y-92545968D01*
X132138053Y-92547712D01*
X132338945Y-92518584D01*
X132340267Y-92518135D01*
X132340272Y-92518134D01*
X132531165Y-92453334D01*
X132531347Y-92453869D01*
X132552875Y-92453302D01*
X132563517Y-92460211D01*
X135585901Y-95482595D01*
X135594834Y-95504162D01*
X135592995Y-95514594D01*
X135585240Y-95535901D01*
X135567415Y-95584874D01*
X135567415Y-95696665D01*
X135568329Y-95699175D01*
X135568629Y-95700878D01*
X135563579Y-95723669D01*
X135543892Y-95736213D01*
X135538593Y-95736677D01*
X134386005Y-95736677D01*
X134364438Y-95727744D01*
X133100211Y-94463517D01*
X133091278Y-94441950D01*
X133093555Y-94431240D01*
X133093334Y-94431165D01*
X133158134Y-94240272D01*
X133158135Y-94240267D01*
X133158584Y-94238945D01*
X133187712Y-94038053D01*
X133189232Y-93980000D01*
X133170658Y-93777859D01*
X133115557Y-93582487D01*
X133109400Y-93570000D01*
X133026394Y-93401681D01*
X133026394Y-93401680D01*
X133025776Y-93400428D01*
X132904320Y-93237779D01*
X132755258Y-93099987D01*
X132583581Y-92991667D01*
X132395039Y-92916446D01*
X132393676Y-92916175D01*
X132393673Y-92916174D01*
X132296419Y-92896829D01*
X132195946Y-92876844D01*
X132101892Y-92875613D01*
X131994375Y-92874205D01*
X131994371Y-92874205D01*
X131992971Y-92874187D01*
X131975920Y-92877117D01*
X131794293Y-92908326D01*
X131794289Y-92908327D01*
X131792910Y-92908564D01*
X131791601Y-92909047D01*
X131791597Y-92909048D01*
X131615006Y-92974197D01*
X131602463Y-92978824D01*
X131601262Y-92979539D01*
X131601259Y-92979540D01*
X131537922Y-93017222D01*
X131428010Y-93082612D01*
X131275392Y-93216455D01*
X131149720Y-93375869D01*
X131149069Y-93377107D01*
X131149068Y-93377108D01*
X131075000Y-93517888D01*
X131055203Y-93555515D01*
X130995007Y-93749378D01*
X130971148Y-93950964D01*
X130984424Y-94153522D01*
X131034392Y-94350269D01*
X131119377Y-94534616D01*
X131120182Y-94535755D01*
X131235726Y-94699248D01*
X131235730Y-94699252D01*
X131236533Y-94700389D01*
X131381938Y-94842035D01*
X131550720Y-94954812D01*
X131619097Y-94984189D01*
X131735945Y-95034391D01*
X131735947Y-95034392D01*
X131737228Y-95034942D01*
X131935216Y-95079742D01*
X131936612Y-95079797D01*
X131936613Y-95079797D01*
X132093676Y-95085968D01*
X132138053Y-95087712D01*
X132338945Y-95058584D01*
X132340267Y-95058135D01*
X132340272Y-95058134D01*
X132531165Y-94993334D01*
X132531347Y-94993869D01*
X132552875Y-94993302D01*
X132563517Y-95000211D01*
X133916891Y-96353586D01*
X133920947Y-96358609D01*
X133931606Y-96375117D01*
X133933585Y-96376677D01*
X133962389Y-96399384D01*
X133965074Y-96401769D01*
X133970120Y-96406815D01*
X133987689Y-96419370D01*
X133988802Y-96420206D01*
X133996717Y-96426445D01*
X134028843Y-96451772D01*
X134028846Y-96451774D01*
X134030824Y-96453333D01*
X134034905Y-96454766D01*
X134035366Y-96454928D01*
X134042990Y-96458888D01*
X134046911Y-96461690D01*
X134049327Y-96462413D01*
X134049328Y-96462413D01*
X134098173Y-96477021D01*
X134099540Y-96477465D01*
X134148216Y-96494559D01*
X134148218Y-96494560D01*
X134150028Y-96495195D01*
X134151940Y-96495361D01*
X134151942Y-96495361D01*
X134154942Y-96495621D01*
X134154951Y-96495621D01*
X134155593Y-96495677D01*
X134156241Y-96495677D01*
X134156913Y-96495706D01*
X134156909Y-96495796D01*
X134164832Y-96496956D01*
X134167955Y-96497890D01*
X134170478Y-96497791D01*
X134170479Y-96497791D01*
X134223670Y-96495701D01*
X134224867Y-96495677D01*
X136160744Y-96495677D01*
X136167164Y-96496360D01*
X136174271Y-96497890D01*
X136186379Y-96500497D01*
X136225320Y-96495888D01*
X136228904Y-96495677D01*
X136236027Y-96495677D01*
X136237265Y-96495471D01*
X136257277Y-96492140D01*
X136258700Y-96491937D01*
X136287924Y-96488478D01*
X136311844Y-96485647D01*
X136314117Y-96484556D01*
X136314122Y-96484554D01*
X136316186Y-96483563D01*
X136324381Y-96480971D01*
X136326641Y-96480595D01*
X136329129Y-96480181D01*
X136331346Y-96478985D01*
X136331348Y-96478984D01*
X136376231Y-96454766D01*
X136377512Y-96454114D01*
X136379139Y-96453333D01*
X136386494Y-96449801D01*
X136423999Y-96431792D01*
X136424001Y-96431790D01*
X136425735Y-96430958D01*
X136430011Y-96427363D01*
X136430478Y-96426896D01*
X136430970Y-96426445D01*
X136431032Y-96426513D01*
X136437448Y-96421735D01*
X136438100Y-96421383D01*
X136440317Y-96420187D01*
X136478167Y-96379241D01*
X136478996Y-96378378D01*
X137071750Y-95785624D01*
X137075801Y-95780345D01*
X137098675Y-95750535D01*
X137098677Y-95750532D01*
X137100097Y-95748681D01*
X137138333Y-95643631D01*
X137138333Y-95531840D01*
X137133596Y-95518824D01*
X137100895Y-95428984D01*
X137100097Y-95426791D01*
X137098677Y-95424940D01*
X137098675Y-95424937D01*
X137072362Y-95390645D01*
X137072358Y-95390641D01*
X137071750Y-95389848D01*
X136930832Y-95248930D01*
X136930039Y-95248322D01*
X136930035Y-95248318D01*
X136895743Y-95222005D01*
X136895740Y-95222003D01*
X136893889Y-95220583D01*
X136799226Y-95186127D01*
X136782017Y-95170357D01*
X136780998Y-95167899D01*
X136747341Y-95075431D01*
X136746543Y-95073238D01*
X136745123Y-95071387D01*
X136745121Y-95071384D01*
X136718808Y-95037092D01*
X136718804Y-95037088D01*
X136718196Y-95036295D01*
X136654808Y-94972907D01*
X136645875Y-94951340D01*
X136654808Y-94929773D01*
X136718196Y-94866385D01*
X136718808Y-94865588D01*
X136745121Y-94831296D01*
X136745123Y-94831293D01*
X136746543Y-94829442D01*
X136780998Y-94734781D01*
X136796769Y-94717570D01*
X136799221Y-94716555D01*
X136893889Y-94682097D01*
X136895740Y-94680677D01*
X136895743Y-94680675D01*
X136930035Y-94654362D01*
X136930039Y-94654358D01*
X136930832Y-94653750D01*
X137071750Y-94512832D01*
X137072362Y-94512035D01*
X137098675Y-94477743D01*
X137098677Y-94477740D01*
X137100097Y-94475889D01*
X137134553Y-94381226D01*
X137150323Y-94364017D01*
X137152781Y-94362998D01*
X137191472Y-94348915D01*
X137247442Y-94328543D01*
X137249293Y-94327123D01*
X137249296Y-94327121D01*
X137283588Y-94300808D01*
X137283592Y-94300804D01*
X137284385Y-94300196D01*
X137425303Y-94159278D01*
X137429720Y-94153522D01*
X137452228Y-94124189D01*
X137452230Y-94124186D01*
X137453650Y-94122335D01*
X137488105Y-94027674D01*
X137503876Y-94010463D01*
X137506334Y-94009445D01*
X137523994Y-94003017D01*
X137600995Y-93974990D01*
X137602846Y-93973570D01*
X137602849Y-93973568D01*
X137637141Y-93947255D01*
X137637145Y-93947251D01*
X137637938Y-93946643D01*
X137778856Y-93805725D01*
X137799174Y-93779246D01*
X137805781Y-93770636D01*
X137805783Y-93770633D01*
X137807203Y-93768782D01*
X137841658Y-93674121D01*
X137857429Y-93656910D01*
X137859881Y-93655895D01*
X137954549Y-93621437D01*
X137956400Y-93620017D01*
X137956403Y-93620015D01*
X137990695Y-93593702D01*
X137990699Y-93593698D01*
X137991492Y-93593090D01*
X138132410Y-93452172D01*
X138153434Y-93424773D01*
X138159335Y-93417083D01*
X138159337Y-93417080D01*
X138160757Y-93415229D01*
X138195213Y-93320566D01*
X138210983Y-93303357D01*
X138213441Y-93302338D01*
X138231101Y-93295910D01*
X138308102Y-93267883D01*
X138309953Y-93266463D01*
X138309956Y-93266461D01*
X138344248Y-93240148D01*
X138344252Y-93240144D01*
X138345045Y-93239536D01*
X138408433Y-93176148D01*
X138430000Y-93167215D01*
X138451567Y-93176148D01*
X138514955Y-93239536D01*
X138515748Y-93240144D01*
X138515752Y-93240148D01*
X138550044Y-93266461D01*
X138550047Y-93266463D01*
X138551898Y-93267883D01*
X138628899Y-93295910D01*
X138646559Y-93302338D01*
X138663770Y-93318109D01*
X138664785Y-93320561D01*
X138699243Y-93415229D01*
X138700663Y-93417080D01*
X138700665Y-93417083D01*
X138706566Y-93424773D01*
X138727590Y-93452172D01*
X138868508Y-93593090D01*
X138869301Y-93593698D01*
X138869305Y-93593702D01*
X138903597Y-93620015D01*
X138903600Y-93620017D01*
X138905451Y-93621437D01*
X139000114Y-93655893D01*
X139017323Y-93671663D01*
X139018342Y-93674121D01*
X139052797Y-93768782D01*
X139054217Y-93770633D01*
X139054219Y-93770636D01*
X139060826Y-93779246D01*
X139081144Y-93805725D01*
X139222062Y-93946643D01*
X139222855Y-93947251D01*
X139222859Y-93947255D01*
X139257151Y-93973568D01*
X139257154Y-93973570D01*
X139259005Y-93974990D01*
X139336006Y-94003017D01*
X139353666Y-94009445D01*
X139370877Y-94025216D01*
X139371895Y-94027674D01*
X139406350Y-94122335D01*
X139407770Y-94124186D01*
X139407772Y-94124189D01*
X139430280Y-94153522D01*
X139434697Y-94159278D01*
X139575615Y-94300196D01*
X139576408Y-94300804D01*
X139576412Y-94300808D01*
X139610704Y-94327121D01*
X139610707Y-94327123D01*
X139612558Y-94328543D01*
X139668528Y-94348915D01*
X139707219Y-94362998D01*
X139724430Y-94378769D01*
X139725445Y-94381221D01*
X139759903Y-94475889D01*
X139761323Y-94477740D01*
X139761325Y-94477743D01*
X139787638Y-94512035D01*
X139788250Y-94512832D01*
X139929168Y-94653750D01*
X139929961Y-94654358D01*
X139929965Y-94654362D01*
X139964257Y-94680675D01*
X139964260Y-94680677D01*
X139966111Y-94682097D01*
X140060774Y-94716553D01*
X140077983Y-94732323D01*
X140079002Y-94734781D01*
X140113457Y-94829442D01*
X140114877Y-94831293D01*
X140114879Y-94831296D01*
X140141192Y-94865588D01*
X140141804Y-94866385D01*
X140205192Y-94929773D01*
X140214125Y-94951340D01*
X140205192Y-94972907D01*
X140141804Y-95036295D01*
X140141196Y-95037088D01*
X140141192Y-95037092D01*
X140114879Y-95071384D01*
X140114877Y-95071387D01*
X140113457Y-95073238D01*
X140112659Y-95075431D01*
X140079002Y-95167899D01*
X140063231Y-95185110D01*
X140060779Y-95186125D01*
X139966111Y-95220583D01*
X139964260Y-95222003D01*
X139964257Y-95222005D01*
X139929965Y-95248318D01*
X139929961Y-95248322D01*
X139929168Y-95248930D01*
X139788250Y-95389848D01*
X139787642Y-95390641D01*
X139787638Y-95390645D01*
X139761325Y-95424937D01*
X139761323Y-95424940D01*
X139759903Y-95426791D01*
X139727945Y-95514594D01*
X139725448Y-95521453D01*
X139709677Y-95538663D01*
X139707218Y-95539682D01*
X139612558Y-95574137D01*
X139610707Y-95575557D01*
X139610704Y-95575559D01*
X139576412Y-95601872D01*
X139576408Y-95601876D01*
X139575615Y-95602484D01*
X139434697Y-95743402D01*
X139434089Y-95744195D01*
X139434085Y-95744199D01*
X139407772Y-95778491D01*
X139407770Y-95778494D01*
X139406350Y-95780345D01*
X139405552Y-95782538D01*
X139371895Y-95875006D01*
X139356124Y-95892217D01*
X139353665Y-95893235D01*
X139259005Y-95927690D01*
X139257154Y-95929110D01*
X139257151Y-95929112D01*
X139222859Y-95955425D01*
X139222855Y-95955429D01*
X139222062Y-95956037D01*
X139081144Y-96096955D01*
X139080536Y-96097748D01*
X139080532Y-96097752D01*
X139054219Y-96132044D01*
X139054217Y-96132047D01*
X139052797Y-96133898D01*
X139051999Y-96136091D01*
X139018342Y-96228559D01*
X139002571Y-96245770D01*
X139000119Y-96246785D01*
X138905451Y-96281243D01*
X138903600Y-96282663D01*
X138903597Y-96282665D01*
X138869305Y-96308978D01*
X138869301Y-96308982D01*
X138868508Y-96309590D01*
X138727590Y-96450508D01*
X138726982Y-96451301D01*
X138726978Y-96451305D01*
X138700665Y-96485597D01*
X138700663Y-96485600D01*
X138699243Y-96487451D01*
X138666266Y-96578053D01*
X138664788Y-96582113D01*
X138649017Y-96599323D01*
X138646558Y-96600342D01*
X138551898Y-96634797D01*
X138550047Y-96636217D01*
X138550044Y-96636219D01*
X138515752Y-96662532D01*
X138515748Y-96662536D01*
X138514955Y-96663144D01*
X138451567Y-96726532D01*
X138430000Y-96735465D01*
X138408433Y-96726532D01*
X138345045Y-96663144D01*
X138344252Y-96662536D01*
X138344248Y-96662532D01*
X138309956Y-96636219D01*
X138309953Y-96636217D01*
X138308102Y-96634797D01*
X138213441Y-96600342D01*
X138196230Y-96584571D01*
X138195212Y-96582113D01*
X138193735Y-96578053D01*
X138160757Y-96487451D01*
X138159337Y-96485600D01*
X138159335Y-96485597D01*
X138133022Y-96451305D01*
X138133018Y-96451301D01*
X138132410Y-96450508D01*
X137991492Y-96309590D01*
X137990699Y-96308982D01*
X137990695Y-96308978D01*
X137956403Y-96282665D01*
X137956400Y-96282663D01*
X137954549Y-96281243D01*
X137859886Y-96246787D01*
X137842677Y-96231017D01*
X137841658Y-96228559D01*
X137808001Y-96136091D01*
X137807203Y-96133898D01*
X137805783Y-96132047D01*
X137805781Y-96132044D01*
X137779468Y-96097752D01*
X137779464Y-96097748D01*
X137778856Y-96096955D01*
X137637938Y-95956037D01*
X137637145Y-95955429D01*
X137637141Y-95955425D01*
X137602849Y-95929112D01*
X137602846Y-95929110D01*
X137600995Y-95927690D01*
X137495946Y-95889454D01*
X137384155Y-95889454D01*
X137279105Y-95927690D01*
X137277254Y-95929110D01*
X137277251Y-95929112D01*
X137242959Y-95955425D01*
X137242955Y-95955429D01*
X137242162Y-95956037D01*
X136437231Y-96760968D01*
X136415664Y-96769901D01*
X136396553Y-96763171D01*
X136384157Y-96753205D01*
X136382667Y-96752007D01*
X136326639Y-96726532D01*
X136259610Y-96696055D01*
X136259607Y-96696054D01*
X136257634Y-96695157D01*
X136255487Y-96694849D01*
X136255485Y-96694849D01*
X136123821Y-96675994D01*
X136121670Y-96675686D01*
X136119519Y-96675994D01*
X135987855Y-96694849D01*
X135987853Y-96694849D01*
X135985706Y-96695157D01*
X135983733Y-96696054D01*
X135983730Y-96696055D01*
X135916701Y-96726532D01*
X135860672Y-96752007D01*
X135859182Y-96753205D01*
X135815349Y-96788447D01*
X135815340Y-96788455D01*
X135814707Y-96788964D01*
X135396965Y-97206707D01*
X135360007Y-97252672D01*
X135359218Y-97254408D01*
X135359217Y-97254409D01*
X135336513Y-97304345D01*
X135303157Y-97377706D01*
X135283686Y-97513670D01*
X135283994Y-97515821D01*
X135302806Y-97647180D01*
X135303157Y-97649634D01*
X135304054Y-97651607D01*
X135304055Y-97651610D01*
X135320778Y-97688389D01*
X135321572Y-97711719D01*
X135305637Y-97728778D01*
X135280389Y-97728778D01*
X135243610Y-97712055D01*
X135243607Y-97712054D01*
X135241634Y-97711157D01*
X135239487Y-97710849D01*
X135239485Y-97710849D01*
X135107821Y-97691994D01*
X135105670Y-97691686D01*
X135103519Y-97691994D01*
X134971855Y-97710849D01*
X134971853Y-97710849D01*
X134969706Y-97711157D01*
X134967733Y-97712054D01*
X134967730Y-97712055D01*
X134893744Y-97745695D01*
X134844672Y-97768007D01*
X134843182Y-97769205D01*
X134799349Y-97804447D01*
X134799340Y-97804455D01*
X134798707Y-97804964D01*
X134380965Y-98222707D01*
X134344007Y-98268672D01*
X134296768Y-98372569D01*
X134289507Y-98388538D01*
X134272448Y-98404473D01*
X134249118Y-98403679D01*
X134240175Y-98397481D01*
X133009332Y-97166638D01*
X133000399Y-97145071D01*
X133004288Y-97130168D01*
X133092649Y-96972388D01*
X133093334Y-96971165D01*
X133117661Y-96899500D01*
X133158134Y-96780272D01*
X133158135Y-96780267D01*
X133158584Y-96778945D01*
X133187712Y-96578053D01*
X133189232Y-96520000D01*
X133170658Y-96317859D01*
X133115557Y-96122487D01*
X133102916Y-96096852D01*
X133026394Y-95941681D01*
X133026394Y-95941680D01*
X133025776Y-95940428D01*
X132904320Y-95777779D01*
X132755258Y-95639987D01*
X132583581Y-95531667D01*
X132395039Y-95456446D01*
X132393676Y-95456175D01*
X132393673Y-95456174D01*
X132296419Y-95436829D01*
X132195946Y-95416844D01*
X132101892Y-95415613D01*
X131994375Y-95414205D01*
X131994371Y-95414205D01*
X131992971Y-95414187D01*
X131975920Y-95417117D01*
X131794293Y-95448326D01*
X131794289Y-95448327D01*
X131792910Y-95448564D01*
X131791601Y-95449047D01*
X131791597Y-95449048D01*
X131642206Y-95504162D01*
X131602463Y-95518824D01*
X131601262Y-95519539D01*
X131601259Y-95519540D01*
X131537922Y-95557222D01*
X131428010Y-95622612D01*
X131275392Y-95756455D01*
X131149720Y-95915869D01*
X131149069Y-95917107D01*
X131149068Y-95917108D01*
X131136140Y-95941681D01*
X131055203Y-96095515D01*
X130995007Y-96289378D01*
X130994843Y-96290764D01*
X130971564Y-96487451D01*
X130971148Y-96490964D01*
X130984424Y-96693522D01*
X131034392Y-96890269D01*
X131119377Y-97074616D01*
X131120182Y-97075755D01*
X131235726Y-97239248D01*
X131235730Y-97239252D01*
X131236533Y-97240389D01*
X131381938Y-97382035D01*
X131550720Y-97494812D01*
X131599620Y-97515821D01*
X131735945Y-97574391D01*
X131735947Y-97574392D01*
X131737228Y-97574942D01*
X131935216Y-97619742D01*
X131936612Y-97619797D01*
X131936613Y-97619797D01*
X132084633Y-97625613D01*
X132138053Y-97627712D01*
X132338945Y-97598584D01*
X132340271Y-97598134D01*
X132342599Y-97597344D01*
X132365892Y-97598875D01*
X132373965Y-97604660D01*
X134404101Y-99634796D01*
X134408157Y-99639819D01*
X134418816Y-99656327D01*
X134420795Y-99657887D01*
X134449599Y-99680594D01*
X134452284Y-99682979D01*
X134457330Y-99688025D01*
X134474899Y-99700580D01*
X134476012Y-99701416D01*
X134483927Y-99707655D01*
X134516053Y-99732982D01*
X134516056Y-99732984D01*
X134518034Y-99734543D01*
X134522115Y-99735976D01*
X134522576Y-99736138D01*
X134530200Y-99740098D01*
X134534121Y-99742900D01*
X134536537Y-99743623D01*
X134536538Y-99743623D01*
X134585383Y-99758231D01*
X134586750Y-99758675D01*
X134635426Y-99775769D01*
X134635428Y-99775770D01*
X134637238Y-99776405D01*
X134639150Y-99776571D01*
X134639152Y-99776571D01*
X134642152Y-99776831D01*
X134642161Y-99776831D01*
X134642803Y-99776887D01*
X134643451Y-99776887D01*
X134644123Y-99776916D01*
X134644119Y-99777006D01*
X134652042Y-99778166D01*
X134655165Y-99779100D01*
X134657688Y-99779001D01*
X134657689Y-99779001D01*
X134710880Y-99776911D01*
X134712077Y-99776887D01*
X135254174Y-99776887D01*
X135260594Y-99777570D01*
X135267701Y-99779100D01*
X135279809Y-99781707D01*
X135318750Y-99777098D01*
X135322334Y-99776887D01*
X135329457Y-99776887D01*
X135330695Y-99776681D01*
X135350707Y-99773350D01*
X135352130Y-99773147D01*
X135381354Y-99769688D01*
X135405274Y-99766857D01*
X135407547Y-99765766D01*
X135407552Y-99765764D01*
X135409616Y-99764773D01*
X135417811Y-99762181D01*
X135420071Y-99761805D01*
X135422559Y-99761391D01*
X135424776Y-99760195D01*
X135424778Y-99760194D01*
X135469661Y-99735976D01*
X135470942Y-99735324D01*
X135472569Y-99734543D01*
X135478475Y-99731707D01*
X135517429Y-99713002D01*
X135517431Y-99713000D01*
X135519165Y-99712168D01*
X135523441Y-99708573D01*
X135523908Y-99708106D01*
X135524400Y-99707655D01*
X135524462Y-99707723D01*
X135530878Y-99702945D01*
X135531530Y-99702593D01*
X135533747Y-99701397D01*
X135571597Y-99660451D01*
X135572426Y-99659588D01*
X137226793Y-98005221D01*
X137231816Y-98001165D01*
X137246210Y-97991871D01*
X137248327Y-97990504D01*
X137272598Y-97959716D01*
X137274983Y-97957031D01*
X137280025Y-97951989D01*
X137292570Y-97934435D01*
X137293411Y-97933315D01*
X137307814Y-97915045D01*
X137324982Y-97893267D01*
X137324984Y-97893264D01*
X137326543Y-97891286D01*
X137328138Y-97886744D01*
X137332098Y-97879120D01*
X137334900Y-97875199D01*
X137350232Y-97823935D01*
X137350675Y-97822570D01*
X137367769Y-97773894D01*
X137367770Y-97773892D01*
X137368405Y-97772082D01*
X137368758Y-97768007D01*
X137368831Y-97767168D01*
X137368831Y-97767159D01*
X137368887Y-97766517D01*
X137368887Y-97765869D01*
X137368916Y-97765197D01*
X137369006Y-97765201D01*
X137370166Y-97757278D01*
X137371100Y-97754155D01*
X137370857Y-97747954D01*
X137368911Y-97698440D01*
X137368887Y-97697243D01*
X137368887Y-97647180D01*
X137377820Y-97625613D01*
X137399387Y-97616680D01*
X137420954Y-97625613D01*
X137542683Y-97747342D01*
X137543476Y-97747950D01*
X137543480Y-97747954D01*
X137577772Y-97774267D01*
X137577775Y-97774269D01*
X137579626Y-97775689D01*
X137684675Y-97813925D01*
X137766000Y-97813925D01*
X137787567Y-97822858D01*
X137796500Y-97844425D01*
X137796500Y-98762608D01*
X137786050Y-98785592D01*
X137701620Y-98859246D01*
X137686039Y-98872838D01*
X137594950Y-99002444D01*
X137537406Y-99150037D01*
X137516729Y-99307096D01*
X137516930Y-99308917D01*
X137516930Y-99308920D01*
X137529287Y-99420844D01*
X137534113Y-99464553D01*
X137588553Y-99613319D01*
X137676908Y-99744805D01*
X137794076Y-99851419D01*
X137933293Y-99927008D01*
X138086522Y-99967207D01*
X138088359Y-99967236D01*
X138088360Y-99967236D01*
X138112460Y-99967614D01*
X138189570Y-99968825D01*
X138210993Y-99978095D01*
X138219586Y-99999800D01*
X138219329Y-100003302D01*
X138211066Y-100066068D01*
X138211267Y-100067889D01*
X138211267Y-100067892D01*
X138211868Y-100073334D01*
X138228450Y-100223525D01*
X138282890Y-100372291D01*
X138371245Y-100503777D01*
X138488413Y-100610391D01*
X138490027Y-100611267D01*
X138490028Y-100611268D01*
X138511542Y-100622949D01*
X138627630Y-100685980D01*
X138780859Y-100726179D01*
X138782696Y-100726208D01*
X138782697Y-100726208D01*
X138877290Y-100727694D01*
X138939253Y-100728667D01*
X138950117Y-100726179D01*
X138995654Y-100715749D01*
X139093669Y-100693301D01*
X139235192Y-100622123D01*
X139295421Y-100570682D01*
X139354251Y-100520437D01*
X139354252Y-100520436D01*
X139355651Y-100519241D01*
X139383207Y-100480892D01*
X139403047Y-100468591D01*
X139425774Y-100473921D01*
X139429543Y-100477123D01*
X140581567Y-101629147D01*
X140590500Y-101650714D01*
X140590500Y-102457286D01*
X140581567Y-102478853D01*
X140130189Y-102930231D01*
X140108622Y-102939164D01*
X140087055Y-102930231D01*
X140078289Y-102911853D01*
X140074532Y-102876113D01*
X140074532Y-102876112D01*
X140074365Y-102874525D01*
X140024623Y-102721433D01*
X140019094Y-102704416D01*
X140019093Y-102704415D01*
X140018599Y-102702893D01*
X139928367Y-102546607D01*
X139859318Y-102469920D01*
X139808683Y-102413684D01*
X139808681Y-102413682D01*
X139807613Y-102412496D01*
X139761674Y-102379119D01*
X139662912Y-102307364D01*
X139662910Y-102307363D01*
X139661615Y-102306422D01*
X139579184Y-102269721D01*
X139498215Y-102233671D01*
X139498212Y-102233670D01*
X139496752Y-102233020D01*
X139495193Y-102232689D01*
X139495188Y-102232687D01*
X139321791Y-102195831D01*
X139321788Y-102195831D01*
X139320232Y-102195500D01*
X139263699Y-102195500D01*
X139242132Y-102186567D01*
X139233199Y-102165000D01*
X139234692Y-102155575D01*
X139273871Y-102034995D01*
X139274365Y-102033475D01*
X139293229Y-101854000D01*
X139274365Y-101674525D01*
X139218599Y-101502893D01*
X139128367Y-101346607D01*
X139046224Y-101255378D01*
X139008683Y-101213684D01*
X139008681Y-101213682D01*
X139007613Y-101212496D01*
X138907157Y-101139510D01*
X138862912Y-101107364D01*
X138862910Y-101107363D01*
X138861615Y-101106422D01*
X138779184Y-101069721D01*
X138698215Y-101033671D01*
X138698212Y-101033670D01*
X138696752Y-101033020D01*
X138695193Y-101032689D01*
X138695188Y-101032687D01*
X138521791Y-100995831D01*
X138521788Y-100995831D01*
X138520232Y-100995500D01*
X138339768Y-100995500D01*
X138338212Y-100995831D01*
X138338209Y-100995831D01*
X138164812Y-101032687D01*
X138164807Y-101032689D01*
X138163248Y-101033020D01*
X138161788Y-101033670D01*
X138161785Y-101033671D01*
X138080817Y-101069721D01*
X137998386Y-101106422D01*
X137997091Y-101107363D01*
X137997089Y-101107364D01*
X137960663Y-101133829D01*
X137852387Y-101212496D01*
X137851319Y-101213682D01*
X137851317Y-101213684D01*
X137813776Y-101255378D01*
X137731633Y-101346607D01*
X137730834Y-101347991D01*
X137656414Y-101476890D01*
X137637894Y-101491101D01*
X137614750Y-101488054D01*
X137603586Y-101476890D01*
X137529166Y-101347991D01*
X137528367Y-101346607D01*
X137446224Y-101255378D01*
X137408683Y-101213684D01*
X137408681Y-101213682D01*
X137407613Y-101212496D01*
X137307157Y-101139510D01*
X137262912Y-101107364D01*
X137262910Y-101107363D01*
X137261615Y-101106422D01*
X137179184Y-101069721D01*
X137098215Y-101033671D01*
X137098212Y-101033670D01*
X137096752Y-101033020D01*
X137095193Y-101032689D01*
X137095188Y-101032687D01*
X136921791Y-100995831D01*
X136921788Y-100995831D01*
X136920232Y-100995500D01*
X136739768Y-100995500D01*
X136738212Y-100995831D01*
X136738209Y-100995831D01*
X136564812Y-101032687D01*
X136564807Y-101032689D01*
X136563248Y-101033020D01*
X136561788Y-101033670D01*
X136561785Y-101033671D01*
X136480817Y-101069721D01*
X136398386Y-101106422D01*
X136397091Y-101107363D01*
X136397089Y-101107364D01*
X136360663Y-101133829D01*
X136252387Y-101212496D01*
X136251319Y-101213682D01*
X136251317Y-101213684D01*
X136213776Y-101255378D01*
X136131633Y-101346607D01*
X136041401Y-101502893D01*
X135985635Y-101674525D01*
X135966771Y-101854000D01*
X135985635Y-102033475D01*
X135986129Y-102034995D01*
X136038280Y-102195500D01*
X136041401Y-102205107D01*
X136131633Y-102361393D01*
X136252387Y-102495504D01*
X136253681Y-102496444D01*
X136321088Y-102545418D01*
X136398385Y-102601578D01*
X136480816Y-102638279D01*
X136561785Y-102674329D01*
X136561788Y-102674330D01*
X136563248Y-102674980D01*
X136564807Y-102675311D01*
X136564812Y-102675313D01*
X136738209Y-102712169D01*
X136738212Y-102712169D01*
X136739768Y-102712500D01*
X136796301Y-102712500D01*
X136817868Y-102721433D01*
X136826801Y-102743000D01*
X136825308Y-102752423D01*
X136785635Y-102874525D01*
X136766771Y-103054000D01*
X136785635Y-103233475D01*
X136811050Y-103311696D01*
X136839386Y-103398904D01*
X136841401Y-103405107D01*
X136931633Y-103561393D01*
X136932704Y-103562582D01*
X137050773Y-103693711D01*
X137052387Y-103695504D01*
X137065905Y-103705326D01*
X137078102Y-103725229D01*
X137072652Y-103747928D01*
X137052748Y-103760125D01*
X137047977Y-103760500D01*
X133143297Y-103760500D01*
X133121730Y-103751567D01*
X133115767Y-103742384D01*
X133115557Y-103742487D01*
X133026394Y-103561681D01*
X133026394Y-103561680D01*
X133025776Y-103560428D01*
X132904320Y-103397779D01*
X132755258Y-103259987D01*
X132583581Y-103151667D01*
X132395039Y-103076446D01*
X132393676Y-103076175D01*
X132393673Y-103076174D01*
X132282195Y-103054000D01*
X132195946Y-103036844D01*
X132101892Y-103035613D01*
X131994375Y-103034205D01*
X131994371Y-103034205D01*
X131992971Y-103034187D01*
X131975920Y-103037117D01*
X131794293Y-103068326D01*
X131794289Y-103068327D01*
X131792910Y-103068564D01*
X131791601Y-103069047D01*
X131791597Y-103069048D01*
X131649421Y-103121500D01*
X131602463Y-103138824D01*
X131601262Y-103139539D01*
X131601259Y-103139540D01*
X131537922Y-103177222D01*
X131428010Y-103242612D01*
X131275392Y-103376455D01*
X131149720Y-103535869D01*
X131149069Y-103537107D01*
X131149068Y-103537108D01*
X131066675Y-103693711D01*
X131055203Y-103715515D01*
X130995007Y-103909378D01*
X130971148Y-104110964D01*
X129286000Y-104110964D01*
X129286000Y-101570964D01*
X130971148Y-101570964D01*
X130984424Y-101773522D01*
X131034392Y-101970269D01*
X131119377Y-102154616D01*
X131120182Y-102155755D01*
X131235726Y-102319248D01*
X131235730Y-102319252D01*
X131236533Y-102320389D01*
X131381938Y-102462035D01*
X131550720Y-102574812D01*
X131610827Y-102600636D01*
X131735945Y-102654391D01*
X131735947Y-102654392D01*
X131737228Y-102654942D01*
X131935216Y-102699742D01*
X131936612Y-102699797D01*
X131936613Y-102699797D01*
X132093676Y-102705968D01*
X132138053Y-102707712D01*
X132338945Y-102678584D01*
X132340267Y-102678135D01*
X132340272Y-102678134D01*
X132529836Y-102613785D01*
X132531165Y-102613334D01*
X132708276Y-102514147D01*
X132770934Y-102462035D01*
X132830497Y-102412496D01*
X132864345Y-102384345D01*
X132989660Y-102233671D01*
X132993253Y-102229351D01*
X132993253Y-102229350D01*
X132994147Y-102228276D01*
X133012503Y-102195500D01*
X133092649Y-102052388D01*
X133093334Y-102051165D01*
X133108506Y-102006469D01*
X133158134Y-101860272D01*
X133158135Y-101860267D01*
X133158584Y-101858945D01*
X133187712Y-101658053D01*
X133189232Y-101600000D01*
X133170658Y-101397859D01*
X133115557Y-101202487D01*
X133102916Y-101176852D01*
X133026394Y-101021681D01*
X133026394Y-101021680D01*
X133025776Y-101020428D01*
X132904320Y-100857779D01*
X132755258Y-100719987D01*
X132583581Y-100611667D01*
X132395039Y-100536446D01*
X132393676Y-100536175D01*
X132393673Y-100536174D01*
X132296419Y-100516829D01*
X132195946Y-100496844D01*
X132101892Y-100495613D01*
X131994375Y-100494205D01*
X131994371Y-100494205D01*
X131992971Y-100494187D01*
X131975920Y-100497117D01*
X131794293Y-100528326D01*
X131794289Y-100528327D01*
X131792910Y-100528564D01*
X131791601Y-100529047D01*
X131791597Y-100529048D01*
X131649421Y-100581500D01*
X131602463Y-100598824D01*
X131601262Y-100599539D01*
X131601259Y-100599540D01*
X131561912Y-100622949D01*
X131428010Y-100702612D01*
X131275392Y-100836455D01*
X131149720Y-100995869D01*
X131149069Y-100997107D01*
X131149068Y-100997108D01*
X131066675Y-101153711D01*
X131055203Y-101175515D01*
X130995007Y-101369378D01*
X130994843Y-101370764D01*
X130975052Y-101537982D01*
X130971148Y-101570964D01*
X129286000Y-101570964D01*
X129286000Y-99030964D01*
X130971148Y-99030964D01*
X130984424Y-99233522D01*
X130990157Y-99256096D01*
X131027394Y-99402713D01*
X131034392Y-99430269D01*
X131119377Y-99614616D01*
X131120182Y-99615755D01*
X131235726Y-99779248D01*
X131235730Y-99779252D01*
X131236533Y-99780389D01*
X131381938Y-99922035D01*
X131550720Y-100034812D01*
X131627716Y-100067892D01*
X131735945Y-100114391D01*
X131735947Y-100114392D01*
X131737228Y-100114942D01*
X131935216Y-100159742D01*
X131936612Y-100159797D01*
X131936613Y-100159797D01*
X132093676Y-100165968D01*
X132138053Y-100167712D01*
X132338945Y-100138584D01*
X132340267Y-100138135D01*
X132340272Y-100138134D01*
X132529836Y-100073785D01*
X132531165Y-100073334D01*
X132656216Y-100003302D01*
X132707055Y-99974831D01*
X132707057Y-99974830D01*
X132708276Y-99974147D01*
X132770934Y-99922035D01*
X132863270Y-99845239D01*
X132864345Y-99844345D01*
X132956965Y-99732982D01*
X132993253Y-99689351D01*
X132993253Y-99689350D01*
X132994147Y-99688276D01*
X132997114Y-99682979D01*
X133092649Y-99512388D01*
X133093334Y-99511165D01*
X133118041Y-99438382D01*
X133158134Y-99320272D01*
X133158135Y-99320267D01*
X133158584Y-99318945D01*
X133187712Y-99118053D01*
X133189232Y-99060000D01*
X133170658Y-98857859D01*
X133115557Y-98662487D01*
X133104606Y-98640279D01*
X133026394Y-98481681D01*
X133026394Y-98481680D01*
X133025776Y-98480428D01*
X132904320Y-98317779D01*
X132902290Y-98315902D01*
X132882445Y-98297558D01*
X132755258Y-98179987D01*
X132583581Y-98071667D01*
X132395039Y-97996446D01*
X132393676Y-97996175D01*
X132393673Y-97996174D01*
X132296419Y-97976829D01*
X132195946Y-97956844D01*
X132101892Y-97955613D01*
X131994375Y-97954205D01*
X131994371Y-97954205D01*
X131992971Y-97954187D01*
X131924376Y-97965974D01*
X131794293Y-97988326D01*
X131794289Y-97988327D01*
X131792910Y-97988564D01*
X131791601Y-97989047D01*
X131791597Y-97989048D01*
X131747759Y-98005221D01*
X131602463Y-98058824D01*
X131601262Y-98059539D01*
X131601259Y-98059540D01*
X131537922Y-98097222D01*
X131428010Y-98162612D01*
X131275392Y-98296455D01*
X131149720Y-98455869D01*
X131149069Y-98457107D01*
X131149068Y-98457108D01*
X131136140Y-98481681D01*
X131055203Y-98635515D01*
X130995007Y-98829378D01*
X130994843Y-98830764D01*
X130974524Y-99002444D01*
X130971148Y-99030964D01*
X129286000Y-99030964D01*
X129286000Y-75324933D01*
X130975500Y-75324933D01*
X130975501Y-77075066D01*
X130990266Y-77149301D01*
X131046516Y-77233484D01*
X131130699Y-77289734D01*
X131204933Y-77304500D01*
X132080000Y-77304500D01*
X132955066Y-77304499D01*
X133029301Y-77289734D01*
X133113484Y-77233484D01*
X133169734Y-77149301D01*
X133184500Y-77075067D01*
X133184499Y-75324934D01*
X133169734Y-75250699D01*
X133113484Y-75166516D01*
X133029301Y-75110266D01*
X132955067Y-75095500D01*
X132953571Y-75095500D01*
X132080001Y-75095501D01*
X131204934Y-75095501D01*
X131130699Y-75110266D01*
X131046516Y-75166516D01*
X130990266Y-75250699D01*
X130975500Y-75324933D01*
X129286000Y-75324933D01*
X129286000Y-74452500D01*
X129294933Y-74430933D01*
X129316500Y-74422000D01*
X147543500Y-74422000D01*
X147565067Y-74430933D01*
G37*
%TD.AperFunction*%
%TD*%
M02*
