%TF.GenerationSoftware,KiCad,Pcbnew,6.0.2+dfsg-1*%
%TF.CreationDate,2022-08-12T08:44:15-04:00*%
%TF.ProjectId,attiny_devboard,61747469-6e79-45f6-9465-76626f617264,rev?*%
%TF.SameCoordinates,Original*%
%TF.FileFunction,Legend,Top*%
%TF.FilePolarity,Positive*%
%FSLAX46Y46*%
G04 Gerber Fmt 4.6, Leading zero omitted, Abs format (unit mm)*
G04 Created by KiCad (PCBNEW 6.0.2+dfsg-1) date 2022-08-12 08:44:15*
%MOMM*%
%LPD*%
G01*
G04 APERTURE LIST*
G04 Aperture macros list*
%AMRoundRect*
0 Rectangle with rounded corners*
0 $1 Rounding radius*
0 $2 $3 $4 $5 $6 $7 $8 $9 X,Y pos of 4 corners*
0 Add a 4 corners polygon primitive as box body*
4,1,4,$2,$3,$4,$5,$6,$7,$8,$9,$2,$3,0*
0 Add four circle primitives for the rounded corners*
1,1,$1+$1,$2,$3*
1,1,$1+$1,$4,$5*
1,1,$1+$1,$6,$7*
1,1,$1+$1,$8,$9*
0 Add four rect primitives between the rounded corners*
20,1,$1+$1,$2,$3,$4,$5,0*
20,1,$1+$1,$4,$5,$6,$7,0*
20,1,$1+$1,$6,$7,$8,$9,0*
20,1,$1+$1,$8,$9,$2,$3,0*%
%AMRotRect*
0 Rectangle, with rotation*
0 The origin of the aperture is its center*
0 $1 length*
0 $2 width*
0 $3 Rotation angle, in degrees counterclockwise*
0 Add horizontal line*
21,1,$1,$2,0,0,$3*%
G04 Aperture macros list end*
%ADD10C,0.115000*%
%ADD11C,0.150000*%
%ADD12C,0.120000*%
%ADD13C,0.200000*%
%ADD14C,0.127000*%
%ADD15RoundRect,0.225000X-0.335876X-0.017678X-0.017678X-0.335876X0.335876X0.017678X0.017678X0.335876X0*%
%ADD16RoundRect,0.250000X-0.600000X-0.600000X0.600000X-0.600000X0.600000X0.600000X-0.600000X0.600000X0*%
%ADD17C,1.700000*%
%ADD18RoundRect,0.062500X-0.203293X-0.291682X0.291682X0.203293X0.203293X0.291682X-0.291682X-0.203293X0*%
%ADD19RoundRect,0.062500X0.203293X-0.291682X0.291682X-0.203293X-0.203293X0.291682X-0.291682X0.203293X0*%
%ADD20RotRect,2.600000X2.600000X45.000000*%
%ADD21O,1.700000X2.900000*%
%ADD22O,1.700000X2.980000*%
%ADD23C,1.208000*%
%ADD24R,1.700000X1.700000*%
%ADD25O,1.700000X1.700000*%
G04 APERTURE END LIST*
D10*
X129923000Y-103604285D02*
X129923000Y-103961428D01*
X129708714Y-103532857D02*
X130458714Y-103782857D01*
X129708714Y-104032857D01*
X130458714Y-104211428D02*
X130458714Y-104711428D01*
X129708714Y-104390000D01*
X129780142Y-78615000D02*
X129744428Y-78579285D01*
X129708714Y-78472142D01*
X129708714Y-78400714D01*
X129744428Y-78293571D01*
X129815857Y-78222142D01*
X129887285Y-78186428D01*
X130030142Y-78150714D01*
X130137285Y-78150714D01*
X130280142Y-78186428D01*
X130351571Y-78222142D01*
X130423000Y-78293571D01*
X130458714Y-78400714D01*
X130458714Y-78472142D01*
X130423000Y-78579285D01*
X130387285Y-78615000D01*
X130458714Y-78865000D02*
X130458714Y-79329285D01*
X130173000Y-79079285D01*
X130173000Y-79186428D01*
X130137285Y-79257857D01*
X130101571Y-79293571D01*
X130030142Y-79329285D01*
X129851571Y-79329285D01*
X129780142Y-79293571D01*
X129744428Y-79257857D01*
X129708714Y-79186428D01*
X129708714Y-78972142D01*
X129744428Y-78900714D01*
X129780142Y-78865000D01*
X146758428Y-91743571D02*
X146794142Y-91636428D01*
X146829857Y-91600714D01*
X146901285Y-91565000D01*
X147008428Y-91565000D01*
X147079857Y-91600714D01*
X147115571Y-91636428D01*
X147151285Y-91707857D01*
X147151285Y-91993571D01*
X146401285Y-91993571D01*
X146401285Y-91743571D01*
X146437000Y-91672142D01*
X146472714Y-91636428D01*
X146544142Y-91600714D01*
X146615571Y-91600714D01*
X146687000Y-91636428D01*
X146722714Y-91672142D01*
X146758428Y-91743571D01*
X146758428Y-91993571D01*
X146472714Y-91279285D02*
X146437000Y-91243571D01*
X146401285Y-91172142D01*
X146401285Y-90993571D01*
X146437000Y-90922142D01*
X146472714Y-90886428D01*
X146544142Y-90850714D01*
X146615571Y-90850714D01*
X146722714Y-90886428D01*
X147151285Y-91315000D01*
X147151285Y-90850714D01*
X129923000Y-93444285D02*
X129923000Y-93801428D01*
X129708714Y-93372857D02*
X130458714Y-93622857D01*
X129708714Y-93872857D01*
X130458714Y-94051428D02*
X130458714Y-94515714D01*
X130173000Y-94265714D01*
X130173000Y-94372857D01*
X130137285Y-94444285D01*
X130101571Y-94480000D01*
X130030142Y-94515714D01*
X129851571Y-94515714D01*
X129780142Y-94480000D01*
X129744428Y-94444285D01*
X129708714Y-94372857D01*
X129708714Y-94158571D01*
X129744428Y-94087142D01*
X129780142Y-94051428D01*
X146437000Y-76771428D02*
X146401285Y-76842857D01*
X146401285Y-76950000D01*
X146437000Y-77057142D01*
X146508428Y-77128571D01*
X146579857Y-77164285D01*
X146722714Y-77200000D01*
X146829857Y-77200000D01*
X146972714Y-77164285D01*
X147044142Y-77128571D01*
X147115571Y-77057142D01*
X147151285Y-76950000D01*
X147151285Y-76878571D01*
X147115571Y-76771428D01*
X147079857Y-76735714D01*
X146829857Y-76735714D01*
X146829857Y-76878571D01*
X147151285Y-76414285D02*
X146401285Y-76414285D01*
X147151285Y-75985714D01*
X146401285Y-75985714D01*
X147151285Y-75628571D02*
X146401285Y-75628571D01*
X146401285Y-75450000D01*
X146437000Y-75342857D01*
X146508428Y-75271428D01*
X146579857Y-75235714D01*
X146722714Y-75200000D01*
X146829857Y-75200000D01*
X146972714Y-75235714D01*
X147044142Y-75271428D01*
X147115571Y-75342857D01*
X147151285Y-75450000D01*
X147151285Y-75628571D01*
X147079857Y-83945000D02*
X147115571Y-83980714D01*
X147151285Y-84087857D01*
X147151285Y-84159285D01*
X147115571Y-84266428D01*
X147044142Y-84337857D01*
X146972714Y-84373571D01*
X146829857Y-84409285D01*
X146722714Y-84409285D01*
X146579857Y-84373571D01*
X146508428Y-84337857D01*
X146437000Y-84266428D01*
X146401285Y-84159285D01*
X146401285Y-84087857D01*
X146437000Y-83980714D01*
X146472714Y-83945000D01*
X146401285Y-83480714D02*
X146401285Y-83409285D01*
X146437000Y-83337857D01*
X146472714Y-83302142D01*
X146544142Y-83266428D01*
X146687000Y-83230714D01*
X146865571Y-83230714D01*
X147008428Y-83266428D01*
X147079857Y-83302142D01*
X147115571Y-83337857D01*
X147151285Y-83409285D01*
X147151285Y-83480714D01*
X147115571Y-83552142D01*
X147079857Y-83587857D01*
X147008428Y-83623571D01*
X146865571Y-83659285D01*
X146687000Y-83659285D01*
X146544142Y-83623571D01*
X146472714Y-83587857D01*
X146437000Y-83552142D01*
X146401285Y-83480714D01*
X146758428Y-94283571D02*
X146794142Y-94176428D01*
X146829857Y-94140714D01*
X146901285Y-94105000D01*
X147008428Y-94105000D01*
X147079857Y-94140714D01*
X147115571Y-94176428D01*
X147151285Y-94247857D01*
X147151285Y-94533571D01*
X146401285Y-94533571D01*
X146401285Y-94283571D01*
X146437000Y-94212142D01*
X146472714Y-94176428D01*
X146544142Y-94140714D01*
X146615571Y-94140714D01*
X146687000Y-94176428D01*
X146722714Y-94212142D01*
X146758428Y-94283571D01*
X146758428Y-94533571D01*
X146401285Y-93855000D02*
X146401285Y-93390714D01*
X146687000Y-93640714D01*
X146687000Y-93533571D01*
X146722714Y-93462142D01*
X146758428Y-93426428D01*
X146829857Y-93390714D01*
X147008428Y-93390714D01*
X147079857Y-93426428D01*
X147115571Y-93462142D01*
X147151285Y-93533571D01*
X147151285Y-93747857D01*
X147115571Y-93819285D01*
X147079857Y-93855000D01*
X147079857Y-81405000D02*
X147115571Y-81440714D01*
X147151285Y-81547857D01*
X147151285Y-81619285D01*
X147115571Y-81726428D01*
X147044142Y-81797857D01*
X146972714Y-81833571D01*
X146829857Y-81869285D01*
X146722714Y-81869285D01*
X146579857Y-81833571D01*
X146508428Y-81797857D01*
X146437000Y-81726428D01*
X146401285Y-81619285D01*
X146401285Y-81547857D01*
X146437000Y-81440714D01*
X146472714Y-81405000D01*
X147151285Y-80690714D02*
X147151285Y-81119285D01*
X147151285Y-80905000D02*
X146401285Y-80905000D01*
X146508428Y-80976428D01*
X146579857Y-81047857D01*
X146615571Y-81119285D01*
X146758428Y-89203571D02*
X146794142Y-89096428D01*
X146829857Y-89060714D01*
X146901285Y-89025000D01*
X147008428Y-89025000D01*
X147079857Y-89060714D01*
X147115571Y-89096428D01*
X147151285Y-89167857D01*
X147151285Y-89453571D01*
X146401285Y-89453571D01*
X146401285Y-89203571D01*
X146437000Y-89132142D01*
X146472714Y-89096428D01*
X146544142Y-89060714D01*
X146615571Y-89060714D01*
X146687000Y-89096428D01*
X146722714Y-89132142D01*
X146758428Y-89203571D01*
X146758428Y-89453571D01*
X147151285Y-88310714D02*
X147151285Y-88739285D01*
X147151285Y-88525000D02*
X146401285Y-88525000D01*
X146508428Y-88596428D01*
X146579857Y-88667857D01*
X146615571Y-88739285D01*
X147079857Y-78865000D02*
X147115571Y-78900714D01*
X147151285Y-79007857D01*
X147151285Y-79079285D01*
X147115571Y-79186428D01*
X147044142Y-79257857D01*
X146972714Y-79293571D01*
X146829857Y-79329285D01*
X146722714Y-79329285D01*
X146579857Y-79293571D01*
X146508428Y-79257857D01*
X146437000Y-79186428D01*
X146401285Y-79079285D01*
X146401285Y-79007857D01*
X146437000Y-78900714D01*
X146472714Y-78865000D01*
X146472714Y-78579285D02*
X146437000Y-78543571D01*
X146401285Y-78472142D01*
X146401285Y-78293571D01*
X146437000Y-78222142D01*
X146472714Y-78186428D01*
X146544142Y-78150714D01*
X146615571Y-78150714D01*
X146722714Y-78186428D01*
X147151285Y-78615000D01*
X147151285Y-78150714D01*
X129923000Y-101064285D02*
X129923000Y-101421428D01*
X129708714Y-100992857D02*
X130458714Y-101242857D01*
X129708714Y-101492857D01*
X130458714Y-102064285D02*
X130458714Y-101921428D01*
X130423000Y-101850000D01*
X130387285Y-101814285D01*
X130280142Y-101742857D01*
X130137285Y-101707142D01*
X129851571Y-101707142D01*
X129780142Y-101742857D01*
X129744428Y-101778571D01*
X129708714Y-101850000D01*
X129708714Y-101992857D01*
X129744428Y-102064285D01*
X129780142Y-102100000D01*
X129851571Y-102135714D01*
X130030142Y-102135714D01*
X130101571Y-102100000D01*
X130137285Y-102064285D01*
X130173000Y-101992857D01*
X130173000Y-101850000D01*
X130137285Y-101778571D01*
X130101571Y-101742857D01*
X130030142Y-101707142D01*
X129923000Y-88364285D02*
X129923000Y-88721428D01*
X129708714Y-88292857D02*
X130458714Y-88542857D01*
X129708714Y-88792857D01*
X129708714Y-89435714D02*
X129708714Y-89007142D01*
X129708714Y-89221428D02*
X130458714Y-89221428D01*
X130351571Y-89150000D01*
X130280142Y-89078571D01*
X130244428Y-89007142D01*
X129780142Y-83695000D02*
X129744428Y-83659285D01*
X129708714Y-83552142D01*
X129708714Y-83480714D01*
X129744428Y-83373571D01*
X129815857Y-83302142D01*
X129887285Y-83266428D01*
X130030142Y-83230714D01*
X130137285Y-83230714D01*
X130280142Y-83266428D01*
X130351571Y-83302142D01*
X130423000Y-83373571D01*
X130458714Y-83480714D01*
X130458714Y-83552142D01*
X130423000Y-83659285D01*
X130387285Y-83695000D01*
X130458714Y-84373571D02*
X130458714Y-84016428D01*
X130101571Y-83980714D01*
X130137285Y-84016428D01*
X130173000Y-84087857D01*
X130173000Y-84266428D01*
X130137285Y-84337857D01*
X130101571Y-84373571D01*
X130030142Y-84409285D01*
X129851571Y-84409285D01*
X129780142Y-84373571D01*
X129744428Y-84337857D01*
X129708714Y-84266428D01*
X129708714Y-84087857D01*
X129744428Y-84016428D01*
X129780142Y-83980714D01*
X129923000Y-90904285D02*
X129923000Y-91261428D01*
X129708714Y-90832857D02*
X130458714Y-91082857D01*
X129708714Y-91332857D01*
X130387285Y-91547142D02*
X130423000Y-91582857D01*
X130458714Y-91654285D01*
X130458714Y-91832857D01*
X130423000Y-91904285D01*
X130387285Y-91940000D01*
X130315857Y-91975714D01*
X130244428Y-91975714D01*
X130137285Y-91940000D01*
X129708714Y-91511428D01*
X129708714Y-91975714D01*
X130458714Y-75200000D02*
X129708714Y-75450000D01*
X130458714Y-75700000D01*
X129780142Y-76378571D02*
X129744428Y-76342857D01*
X129708714Y-76235714D01*
X129708714Y-76164285D01*
X129744428Y-76057142D01*
X129815857Y-75985714D01*
X129887285Y-75950000D01*
X130030142Y-75914285D01*
X130137285Y-75914285D01*
X130280142Y-75950000D01*
X130351571Y-75985714D01*
X130423000Y-76057142D01*
X130458714Y-76164285D01*
X130458714Y-76235714D01*
X130423000Y-76342857D01*
X130387285Y-76378571D01*
X129780142Y-77128571D02*
X129744428Y-77092857D01*
X129708714Y-76985714D01*
X129708714Y-76914285D01*
X129744428Y-76807142D01*
X129815857Y-76735714D01*
X129887285Y-76700000D01*
X130030142Y-76664285D01*
X130137285Y-76664285D01*
X130280142Y-76700000D01*
X130351571Y-76735714D01*
X130423000Y-76807142D01*
X130458714Y-76914285D01*
X130458714Y-76985714D01*
X130423000Y-77092857D01*
X130387285Y-77128571D01*
X146758428Y-96823571D02*
X146794142Y-96716428D01*
X146829857Y-96680714D01*
X146901285Y-96645000D01*
X147008428Y-96645000D01*
X147079857Y-96680714D01*
X147115571Y-96716428D01*
X147151285Y-96787857D01*
X147151285Y-97073571D01*
X146401285Y-97073571D01*
X146401285Y-96823571D01*
X146437000Y-96752142D01*
X146472714Y-96716428D01*
X146544142Y-96680714D01*
X146615571Y-96680714D01*
X146687000Y-96716428D01*
X146722714Y-96752142D01*
X146758428Y-96823571D01*
X146758428Y-97073571D01*
X146651285Y-96002142D02*
X147151285Y-96002142D01*
X146365571Y-96180714D02*
X146901285Y-96359285D01*
X146901285Y-95895000D01*
X129923000Y-95984285D02*
X129923000Y-96341428D01*
X129708714Y-95912857D02*
X130458714Y-96162857D01*
X129708714Y-96412857D01*
X130208714Y-96984285D02*
X129708714Y-96984285D01*
X130494428Y-96805714D02*
X129958714Y-96627142D01*
X129958714Y-97091428D01*
X146758428Y-99363571D02*
X146794142Y-99256428D01*
X146829857Y-99220714D01*
X146901285Y-99185000D01*
X147008428Y-99185000D01*
X147079857Y-99220714D01*
X147115571Y-99256428D01*
X147151285Y-99327857D01*
X147151285Y-99613571D01*
X146401285Y-99613571D01*
X146401285Y-99363571D01*
X146437000Y-99292142D01*
X146472714Y-99256428D01*
X146544142Y-99220714D01*
X146615571Y-99220714D01*
X146687000Y-99256428D01*
X146722714Y-99292142D01*
X146758428Y-99363571D01*
X146758428Y-99613571D01*
X146401285Y-98506428D02*
X146401285Y-98863571D01*
X146758428Y-98899285D01*
X146722714Y-98863571D01*
X146687000Y-98792142D01*
X146687000Y-98613571D01*
X146722714Y-98542142D01*
X146758428Y-98506428D01*
X146829857Y-98470714D01*
X147008428Y-98470714D01*
X147079857Y-98506428D01*
X147115571Y-98542142D01*
X147151285Y-98613571D01*
X147151285Y-98792142D01*
X147115571Y-98863571D01*
X147079857Y-98899285D01*
X146401285Y-107680000D02*
X147151285Y-107430000D01*
X146401285Y-107180000D01*
X147079857Y-106501428D02*
X147115571Y-106537142D01*
X147151285Y-106644285D01*
X147151285Y-106715714D01*
X147115571Y-106822857D01*
X147044142Y-106894285D01*
X146972714Y-106930000D01*
X146829857Y-106965714D01*
X146722714Y-106965714D01*
X146579857Y-106930000D01*
X146508428Y-106894285D01*
X146437000Y-106822857D01*
X146401285Y-106715714D01*
X146401285Y-106644285D01*
X146437000Y-106537142D01*
X146472714Y-106501428D01*
X147079857Y-105751428D02*
X147115571Y-105787142D01*
X147151285Y-105894285D01*
X147151285Y-105965714D01*
X147115571Y-106072857D01*
X147044142Y-106144285D01*
X146972714Y-106180000D01*
X146829857Y-106215714D01*
X146722714Y-106215714D01*
X146579857Y-106180000D01*
X146508428Y-106144285D01*
X146437000Y-106072857D01*
X146401285Y-105965714D01*
X146401285Y-105894285D01*
X146437000Y-105787142D01*
X146472714Y-105751428D01*
X146758428Y-101903571D02*
X146794142Y-101796428D01*
X146829857Y-101760714D01*
X146901285Y-101725000D01*
X147008428Y-101725000D01*
X147079857Y-101760714D01*
X147115571Y-101796428D01*
X147151285Y-101867857D01*
X147151285Y-102153571D01*
X146401285Y-102153571D01*
X146401285Y-101903571D01*
X146437000Y-101832142D01*
X146472714Y-101796428D01*
X146544142Y-101760714D01*
X146615571Y-101760714D01*
X146687000Y-101796428D01*
X146722714Y-101832142D01*
X146758428Y-101903571D01*
X146758428Y-102153571D01*
X146401285Y-101082142D02*
X146401285Y-101225000D01*
X146437000Y-101296428D01*
X146472714Y-101332142D01*
X146579857Y-101403571D01*
X146722714Y-101439285D01*
X147008428Y-101439285D01*
X147079857Y-101403571D01*
X147115571Y-101367857D01*
X147151285Y-101296428D01*
X147151285Y-101153571D01*
X147115571Y-101082142D01*
X147079857Y-101046428D01*
X147008428Y-101010714D01*
X146829857Y-101010714D01*
X146758428Y-101046428D01*
X146722714Y-101082142D01*
X146687000Y-101153571D01*
X146687000Y-101296428D01*
X146722714Y-101367857D01*
X146758428Y-101403571D01*
X146829857Y-101439285D01*
X129780142Y-81155000D02*
X129744428Y-81119285D01*
X129708714Y-81012142D01*
X129708714Y-80940714D01*
X129744428Y-80833571D01*
X129815857Y-80762142D01*
X129887285Y-80726428D01*
X130030142Y-80690714D01*
X130137285Y-80690714D01*
X130280142Y-80726428D01*
X130351571Y-80762142D01*
X130423000Y-80833571D01*
X130458714Y-80940714D01*
X130458714Y-81012142D01*
X130423000Y-81119285D01*
X130387285Y-81155000D01*
X130208714Y-81797857D02*
X129708714Y-81797857D01*
X130494428Y-81619285D02*
X129958714Y-81440714D01*
X129958714Y-81905000D01*
X146758428Y-86663571D02*
X146794142Y-86556428D01*
X146829857Y-86520714D01*
X146901285Y-86485000D01*
X147008428Y-86485000D01*
X147079857Y-86520714D01*
X147115571Y-86556428D01*
X147151285Y-86627857D01*
X147151285Y-86913571D01*
X146401285Y-86913571D01*
X146401285Y-86663571D01*
X146437000Y-86592142D01*
X146472714Y-86556428D01*
X146544142Y-86520714D01*
X146615571Y-86520714D01*
X146687000Y-86556428D01*
X146722714Y-86592142D01*
X146758428Y-86663571D01*
X146758428Y-86913571D01*
X146401285Y-86020714D02*
X146401285Y-85949285D01*
X146437000Y-85877857D01*
X146472714Y-85842142D01*
X146544142Y-85806428D01*
X146687000Y-85770714D01*
X146865571Y-85770714D01*
X147008428Y-85806428D01*
X147079857Y-85842142D01*
X147115571Y-85877857D01*
X147151285Y-85949285D01*
X147151285Y-86020714D01*
X147115571Y-86092142D01*
X147079857Y-86127857D01*
X147008428Y-86163571D01*
X146865571Y-86199285D01*
X146687000Y-86199285D01*
X146544142Y-86163571D01*
X146472714Y-86127857D01*
X146437000Y-86092142D01*
X146401285Y-86020714D01*
X129923000Y-85824285D02*
X129923000Y-86181428D01*
X129708714Y-85752857D02*
X130458714Y-86002857D01*
X129708714Y-86252857D01*
X130458714Y-86645714D02*
X130458714Y-86717142D01*
X130423000Y-86788571D01*
X130387285Y-86824285D01*
X130315857Y-86860000D01*
X130173000Y-86895714D01*
X129994428Y-86895714D01*
X129851571Y-86860000D01*
X129780142Y-86824285D01*
X129744428Y-86788571D01*
X129708714Y-86717142D01*
X129708714Y-86645714D01*
X129744428Y-86574285D01*
X129780142Y-86538571D01*
X129851571Y-86502857D01*
X129994428Y-86467142D01*
X130173000Y-86467142D01*
X130315857Y-86502857D01*
X130387285Y-86538571D01*
X130423000Y-86574285D01*
X130458714Y-86645714D01*
X129923000Y-98524285D02*
X129923000Y-98881428D01*
X129708714Y-98452857D02*
X130458714Y-98702857D01*
X129708714Y-98952857D01*
X130458714Y-99560000D02*
X130458714Y-99202857D01*
X130101571Y-99167142D01*
X130137285Y-99202857D01*
X130173000Y-99274285D01*
X130173000Y-99452857D01*
X130137285Y-99524285D01*
X130101571Y-99560000D01*
X130030142Y-99595714D01*
X129851571Y-99595714D01*
X129780142Y-99560000D01*
X129744428Y-99524285D01*
X129708714Y-99452857D01*
X129708714Y-99274285D01*
X129744428Y-99202857D01*
X129780142Y-99167142D01*
X130423000Y-106108571D02*
X130458714Y-106037142D01*
X130458714Y-105930000D01*
X130423000Y-105822857D01*
X130351571Y-105751428D01*
X130280142Y-105715714D01*
X130137285Y-105680000D01*
X130030142Y-105680000D01*
X129887285Y-105715714D01*
X129815857Y-105751428D01*
X129744428Y-105822857D01*
X129708714Y-105930000D01*
X129708714Y-106001428D01*
X129744428Y-106108571D01*
X129780142Y-106144285D01*
X130030142Y-106144285D01*
X130030142Y-106001428D01*
X129708714Y-106465714D02*
X130458714Y-106465714D01*
X129708714Y-106894285D01*
X130458714Y-106894285D01*
X129708714Y-107251428D02*
X130458714Y-107251428D01*
X130458714Y-107430000D01*
X130423000Y-107537142D01*
X130351571Y-107608571D01*
X130280142Y-107644285D01*
X130137285Y-107680000D01*
X130030142Y-107680000D01*
X129887285Y-107644285D01*
X129815857Y-107608571D01*
X129744428Y-107537142D01*
X129708714Y-107430000D01*
X129708714Y-107251428D01*
X146758428Y-104443571D02*
X146794142Y-104336428D01*
X146829857Y-104300714D01*
X146901285Y-104265000D01*
X147008428Y-104265000D01*
X147079857Y-104300714D01*
X147115571Y-104336428D01*
X147151285Y-104407857D01*
X147151285Y-104693571D01*
X146401285Y-104693571D01*
X146401285Y-104443571D01*
X146437000Y-104372142D01*
X146472714Y-104336428D01*
X146544142Y-104300714D01*
X146615571Y-104300714D01*
X146687000Y-104336428D01*
X146722714Y-104372142D01*
X146758428Y-104443571D01*
X146758428Y-104693571D01*
X146401285Y-104015000D02*
X146401285Y-103515000D01*
X147151285Y-103836428D01*
D11*
%TO.C,C2*%
X134609389Y-99560312D02*
X134676732Y-99560312D01*
X134811419Y-99627656D01*
X134878763Y-99695000D01*
X134946106Y-99829687D01*
X134946106Y-99964374D01*
X134912435Y-100065389D01*
X134811419Y-100233748D01*
X134710404Y-100334763D01*
X134542045Y-100435778D01*
X134441030Y-100469450D01*
X134306343Y-100469450D01*
X134171656Y-100402106D01*
X134104312Y-100334763D01*
X134036969Y-100200076D01*
X134036969Y-100132732D01*
X133767595Y-99863358D02*
X133700251Y-99863358D01*
X133599236Y-99829687D01*
X133430877Y-99661328D01*
X133397206Y-99560312D01*
X133397206Y-99492969D01*
X133430877Y-99391954D01*
X133498221Y-99324610D01*
X133632908Y-99257267D01*
X134441030Y-99257267D01*
X134003297Y-98819534D01*
%TO.C,C1*%
X135244389Y-96131312D02*
X135311732Y-96131312D01*
X135446419Y-96198656D01*
X135513763Y-96266000D01*
X135581106Y-96400687D01*
X135581106Y-96535374D01*
X135547435Y-96636389D01*
X135446419Y-96804748D01*
X135345404Y-96905763D01*
X135177045Y-97006778D01*
X135076030Y-97040450D01*
X134941343Y-97040450D01*
X134806656Y-96973106D01*
X134739312Y-96905763D01*
X134671969Y-96771076D01*
X134671969Y-96703732D01*
X134638297Y-95390534D02*
X135042358Y-95794595D01*
X134840328Y-95592564D02*
X134133221Y-96299671D01*
X134301580Y-96266000D01*
X134436267Y-96265999D01*
X134537282Y-96299671D01*
%TO.C,U1*%
X135170574Y-92769410D02*
X135742994Y-93341830D01*
X135844009Y-93375502D01*
X135911353Y-93375502D01*
X136012368Y-93341830D01*
X136147055Y-93207143D01*
X136180727Y-93106128D01*
X136180727Y-93038784D01*
X136147055Y-92937769D01*
X135574635Y-92365349D01*
X136988849Y-92365349D02*
X136584788Y-92769410D01*
X136786818Y-92567380D02*
X136079712Y-91860273D01*
X136113383Y-92028632D01*
X136113383Y-92163319D01*
X136079712Y-92264334D01*
D12*
%TO.C,C2*%
X135175970Y-99321219D02*
X135374781Y-99520030D01*
X135897219Y-98599970D02*
X136096030Y-98798781D01*
%TO.C,C1*%
X136191970Y-98305219D02*
X136390781Y-98504030D01*
X136913219Y-97583970D02*
X137112030Y-97782781D01*
%TO.C,J1*%
X142990000Y-74800000D02*
X142990000Y-90300000D01*
X135180000Y-84600000D02*
X133870000Y-84600000D01*
X133480000Y-80010000D02*
X132480000Y-79510000D01*
X132480000Y-79510000D02*
X132480000Y-80510000D01*
X135180000Y-76100000D02*
X141680000Y-76100000D01*
X141680000Y-76100000D02*
X141680000Y-89000000D01*
X132480000Y-80510000D02*
X133480000Y-80010000D01*
X133870000Y-80500000D02*
X135180000Y-80500000D01*
X135180000Y-89000000D02*
X135180000Y-84600000D01*
X135180000Y-84600000D02*
X135180000Y-84600000D01*
X135180000Y-80500000D02*
X135180000Y-76100000D01*
X133870000Y-90300000D02*
X133870000Y-74800000D01*
X141680000Y-89000000D02*
X135180000Y-89000000D01*
X142990000Y-90300000D02*
X133870000Y-90300000D01*
X133870000Y-74800000D02*
X142990000Y-74800000D01*
%TO.C,U1*%
X138430000Y-91967349D02*
X138765876Y-92303225D01*
X141413991Y-94951340D02*
X141078115Y-94615464D01*
X135781885Y-94615464D02*
X135446009Y-94951340D01*
X138094124Y-92303225D02*
X138430000Y-91967349D01*
X141078115Y-95287216D02*
X141413991Y-94951340D01*
X138430000Y-97935331D02*
X138094124Y-97599455D01*
X138765876Y-97599455D02*
X138430000Y-97935331D01*
D13*
%TO.C,J2*%
X137015000Y-100004000D02*
G75*
G03*
X137015000Y-100004000I-200000J0D01*
G01*
D14*
X142780000Y-110654000D02*
X134080000Y-110654000D01*
X142780000Y-108604000D02*
X142780000Y-110654000D01*
X134080000Y-105204000D02*
X134080000Y-101054000D01*
X142780000Y-101054000D02*
X142780000Y-105204000D01*
X134080000Y-101054000D02*
X142780000Y-101054000D01*
X134080000Y-110654000D02*
X134080000Y-108604000D01*
%TD*%
%LPC*%
D15*
%TO.C,C2*%
X135087992Y-98511992D03*
X136184008Y-99608008D03*
%TD*%
%TO.C,C1*%
X136103992Y-97495992D03*
X137200008Y-98592008D03*
%TD*%
D16*
%TO.C,J1*%
X137160000Y-80010000D03*
D17*
X139700000Y-80010000D03*
X137160000Y-82550000D03*
X139700000Y-82550000D03*
X137160000Y-85090000D03*
X139700000Y-85090000D03*
%TD*%
D18*
%TO.C,U1*%
X136176097Y-95437476D03*
X136529651Y-95791029D03*
X136883204Y-96144583D03*
X137236757Y-96498136D03*
X137590311Y-96851689D03*
X137943864Y-97205243D03*
D19*
X138916136Y-97205243D03*
X139269689Y-96851689D03*
X139623243Y-96498136D03*
X139976796Y-96144583D03*
X140330349Y-95791029D03*
X140683903Y-95437476D03*
D18*
X140683903Y-94465204D03*
X140330349Y-94111651D03*
X139976796Y-93758097D03*
X139623243Y-93404544D03*
X139269689Y-93050991D03*
X138916136Y-92697437D03*
D19*
X137943864Y-92697437D03*
X137590311Y-93050991D03*
X137236757Y-93404544D03*
X136883204Y-93758097D03*
X136529651Y-94111651D03*
X136176097Y-94465204D03*
D20*
X138430000Y-94951340D03*
%TD*%
D21*
%TO.C,J2*%
X142080000Y-106904000D03*
D22*
X134780000Y-106904000D03*
D23*
X140030000Y-101854000D03*
X139230000Y-103054000D03*
X138430000Y-101854000D03*
X137630000Y-103054000D03*
X136830000Y-101854000D03*
%TD*%
D24*
%TO.C,J4*%
X144780000Y-106680000D03*
D25*
X144780000Y-104140000D03*
X144780000Y-101600000D03*
X144780000Y-99060000D03*
X144780000Y-96520000D03*
X144780000Y-93980000D03*
X144780000Y-91440000D03*
X144780000Y-88900000D03*
X144780000Y-86360000D03*
X144780000Y-83820000D03*
X144780000Y-81280000D03*
X144780000Y-78740000D03*
X144780000Y-76200000D03*
%TD*%
D24*
%TO.C,J3*%
X132080000Y-76200000D03*
D25*
X132080000Y-78740000D03*
X132080000Y-81280000D03*
X132080000Y-83820000D03*
X132080000Y-86360000D03*
X132080000Y-88900000D03*
X132080000Y-91440000D03*
X132080000Y-93980000D03*
X132080000Y-96520000D03*
X132080000Y-99060000D03*
X132080000Y-101600000D03*
X132080000Y-104140000D03*
X132080000Y-106680000D03*
%TD*%
M02*
