%FSLAX45Y45*%
G04 Gerber Fmt 4.5, Leading zero omitted, Abs format (unit mm)*
G04 Created by KiCad (PCBNEW 6.0.2+dfsg-1) date 2022-08-12 08:44:58*
%MOMM*%
%LPD*%
G01*
G04 APERTURE LIST*
%TA.AperFunction,Profile*%
%ADD10C,0.100000*%
%TD*%
%ADD11C,0.200000*%
%ADD12C,0.040000*%
%ADD13C,0.070000*%
%ADD14C,0.080000*%
%ADD15C,0.100000*%
G04 APERTURE END LIST*
D10*
X14782800Y-10871200D02*
X14782800Y-7416800D01*
X14782800Y-7416800D02*
X12903200Y-7416800D01*
X12903200Y-7416800D02*
X12903200Y-10871200D01*
X12903200Y-10871200D02*
X14782800Y-10871200D01*
D11*
D12*
X13488799Y-9831199D02*
X13528799Y-9871199D01*
X13528799Y-9831199D02*
X13488799Y-9871199D01*
X13590399Y-9729599D02*
X13630399Y-9769599D01*
X13630399Y-9729599D02*
X13590399Y-9769599D01*
X13797600Y-9911400D02*
X13837600Y-9951400D01*
X13837600Y-9911400D02*
X13797600Y-9951400D01*
X13867034Y-9987297D02*
X13907034Y-10027297D01*
X13907034Y-9987297D02*
X13867034Y-10027297D01*
D13*
X13718000Y-10185400D02*
G75*
G03*
X13718000Y-10185400I-35000J0D01*
G01*
X13798000Y-10305400D02*
G75*
G03*
X13798000Y-10305400I-35000J0D01*
G01*
X13878000Y-10185400D02*
G75*
G03*
X13878000Y-10185400I-35000J0D01*
G01*
X13958000Y-10305400D02*
G75*
G03*
X13958000Y-10305400I-35000J0D01*
G01*
X14038000Y-10185400D02*
G75*
G03*
X14038000Y-10185400I-35000J0D01*
G01*
D14*
X13478000Y-10650400D02*
X13478000Y-10730400D01*
X13438000Y-10690400D02*
X13518000Y-10690400D01*
D11*
X13448000Y-10635400D02*
X13448000Y-10745400D01*
X13508000Y-10635400D02*
X13508000Y-10745400D01*
X13448000Y-10745400D02*
G75*
G03*
X13508000Y-10745400I30000J0D01*
G01*
X13508000Y-10635400D02*
G75*
G03*
X13448000Y-10635400I-30000J0D01*
G01*
D14*
X14208000Y-10650400D02*
X14208000Y-10730400D01*
X14168000Y-10690400D02*
X14248000Y-10690400D01*
D11*
X14178000Y-10635400D02*
X14178000Y-10745400D01*
X14238000Y-10635400D02*
X14238000Y-10745400D01*
X14178000Y-10745400D02*
G75*
G03*
X14238000Y-10745400I30000J0D01*
G01*
X14238000Y-10635400D02*
G75*
G03*
X14178000Y-10635400I-30000J0D01*
G01*
D15*
X13243356Y-7655356D02*
X13243356Y-7584644D01*
X13172644Y-7584644D01*
X13172644Y-7655356D01*
X13243356Y-7655356D01*
X13243356Y-7909356D02*
X13243356Y-7838644D01*
X13172644Y-7838644D01*
X13172644Y-7909356D01*
X13243356Y-7909356D01*
X13243356Y-8163356D02*
X13243356Y-8092644D01*
X13172644Y-8092644D01*
X13172644Y-8163356D01*
X13243356Y-8163356D01*
X13243356Y-8417356D02*
X13243356Y-8346644D01*
X13172644Y-8346644D01*
X13172644Y-8417356D01*
X13243356Y-8417356D01*
X13243356Y-8671356D02*
X13243356Y-8600644D01*
X13172644Y-8600644D01*
X13172644Y-8671356D01*
X13243356Y-8671356D01*
X13243356Y-8925356D02*
X13243356Y-8854644D01*
X13172644Y-8854644D01*
X13172644Y-8925356D01*
X13243356Y-8925356D01*
X13243356Y-9179356D02*
X13243356Y-9108644D01*
X13172644Y-9108644D01*
X13172644Y-9179356D01*
X13243356Y-9179356D01*
X13243356Y-9433356D02*
X13243356Y-9362644D01*
X13172644Y-9362644D01*
X13172644Y-9433356D01*
X13243356Y-9433356D01*
X13243356Y-9687356D02*
X13243356Y-9616644D01*
X13172644Y-9616644D01*
X13172644Y-9687356D01*
X13243356Y-9687356D01*
X13243356Y-9941356D02*
X13243356Y-9870644D01*
X13172644Y-9870644D01*
X13172644Y-9941356D01*
X13243356Y-9941356D01*
X13243356Y-10195356D02*
X13243356Y-10124644D01*
X13172644Y-10124644D01*
X13172644Y-10195356D01*
X13243356Y-10195356D01*
X13243356Y-10449356D02*
X13243356Y-10378644D01*
X13172644Y-10378644D01*
X13172644Y-10449356D01*
X13243356Y-10449356D01*
X13243356Y-10703356D02*
X13243356Y-10632644D01*
X13172644Y-10632644D01*
X13172644Y-10703356D01*
X13243356Y-10703356D01*
X13751356Y-8036356D02*
X13751356Y-7965644D01*
X13680644Y-7965644D01*
X13680644Y-8036356D01*
X13751356Y-8036356D01*
X13751356Y-8290356D02*
X13751356Y-8219644D01*
X13680644Y-8219644D01*
X13680644Y-8290356D01*
X13751356Y-8290356D01*
X13751356Y-8544356D02*
X13751356Y-8473644D01*
X13680644Y-8473644D01*
X13680644Y-8544356D01*
X13751356Y-8544356D01*
X14005356Y-8036356D02*
X14005356Y-7965644D01*
X13934644Y-7965644D01*
X13934644Y-8036356D01*
X14005356Y-8036356D01*
X14005356Y-8290356D02*
X14005356Y-8219644D01*
X13934644Y-8219644D01*
X13934644Y-8290356D01*
X14005356Y-8290356D01*
X14005356Y-8544356D02*
X14005356Y-8473644D01*
X13934644Y-8473644D01*
X13934644Y-8544356D01*
X14005356Y-8544356D01*
X14513356Y-7655356D02*
X14513356Y-7584644D01*
X14442644Y-7584644D01*
X14442644Y-7655356D01*
X14513356Y-7655356D01*
X14513356Y-7909356D02*
X14513356Y-7838644D01*
X14442644Y-7838644D01*
X14442644Y-7909356D01*
X14513356Y-7909356D01*
X14513356Y-8163356D02*
X14513356Y-8092644D01*
X14442644Y-8092644D01*
X14442644Y-8163356D01*
X14513356Y-8163356D01*
X14513356Y-8417356D02*
X14513356Y-8346644D01*
X14442644Y-8346644D01*
X14442644Y-8417356D01*
X14513356Y-8417356D01*
X14513356Y-8671356D02*
X14513356Y-8600644D01*
X14442644Y-8600644D01*
X14442644Y-8671356D01*
X14513356Y-8671356D01*
X14513356Y-8925356D02*
X14513356Y-8854644D01*
X14442644Y-8854644D01*
X14442644Y-8925356D01*
X14513356Y-8925356D01*
X14513356Y-9179356D02*
X14513356Y-9108644D01*
X14442644Y-9108644D01*
X14442644Y-9179356D01*
X14513356Y-9179356D01*
X14513356Y-9433356D02*
X14513356Y-9362644D01*
X14442644Y-9362644D01*
X14442644Y-9433356D01*
X14513356Y-9433356D01*
X14513356Y-9687356D02*
X14513356Y-9616644D01*
X14442644Y-9616644D01*
X14442644Y-9687356D01*
X14513356Y-9687356D01*
X14513356Y-9941356D02*
X14513356Y-9870644D01*
X14442644Y-9870644D01*
X14442644Y-9941356D01*
X14513356Y-9941356D01*
X14513356Y-10195356D02*
X14513356Y-10124644D01*
X14442644Y-10124644D01*
X14442644Y-10195356D01*
X14513356Y-10195356D01*
X14513356Y-10449356D02*
X14513356Y-10378644D01*
X14442644Y-10378644D01*
X14442644Y-10449356D01*
X14513356Y-10449356D01*
X14513356Y-10703356D02*
X14513356Y-10632644D01*
X14442644Y-10632644D01*
X14442644Y-10703356D01*
X14513356Y-10703356D01*
D11*
X13155819Y-11186676D02*
X13155819Y-10986676D01*
X13203438Y-10986676D01*
X13232009Y-10996200D01*
X13251057Y-11015248D01*
X13260581Y-11034295D01*
X13270105Y-11072390D01*
X13270105Y-11100962D01*
X13260581Y-11139057D01*
X13251057Y-11158105D01*
X13232009Y-11177152D01*
X13203438Y-11186676D01*
X13155819Y-11186676D01*
X13355819Y-11186676D02*
X13355819Y-11053343D01*
X13355819Y-11091438D02*
X13365343Y-11072390D01*
X13374867Y-11062867D01*
X13393914Y-11053343D01*
X13412962Y-11053343D01*
X13479628Y-11186676D02*
X13479628Y-11053343D01*
X13479628Y-10986676D02*
X13470105Y-10996200D01*
X13479628Y-11005724D01*
X13489152Y-10996200D01*
X13479628Y-10986676D01*
X13479628Y-11005724D01*
X13603438Y-11186676D02*
X13584390Y-11177152D01*
X13574867Y-11158105D01*
X13574867Y-10986676D01*
X13708200Y-11186676D02*
X13689152Y-11177152D01*
X13679628Y-11158105D01*
X13679628Y-10986676D01*
X13936771Y-11186676D02*
X13936771Y-10986676D01*
X14003438Y-11129533D01*
X14070105Y-10986676D01*
X14070105Y-11186676D01*
X14251057Y-11186676D02*
X14251057Y-11081914D01*
X14241533Y-11062867D01*
X14222486Y-11053343D01*
X14184390Y-11053343D01*
X14165343Y-11062867D01*
X14251057Y-11177152D02*
X14232009Y-11186676D01*
X14184390Y-11186676D01*
X14165343Y-11177152D01*
X14155819Y-11158105D01*
X14155819Y-11139057D01*
X14165343Y-11120010D01*
X14184390Y-11110486D01*
X14232009Y-11110486D01*
X14251057Y-11100962D01*
X14346295Y-11053343D02*
X14346295Y-11253343D01*
X14346295Y-11062867D02*
X14365343Y-11053343D01*
X14403438Y-11053343D01*
X14422486Y-11062867D01*
X14432009Y-11072390D01*
X14441533Y-11091438D01*
X14441533Y-11148581D01*
X14432009Y-11167629D01*
X14422486Y-11177152D01*
X14403438Y-11186676D01*
X14365343Y-11186676D01*
X14346295Y-11177152D01*
X14527248Y-11167629D02*
X14536771Y-11177152D01*
X14527248Y-11186676D01*
X14517724Y-11177152D01*
X14527248Y-11167629D01*
X14527248Y-11186676D01*
X14527248Y-11062867D02*
X14536771Y-11072390D01*
X14527248Y-11081914D01*
X14517724Y-11072390D01*
X14527248Y-11062867D01*
X14527248Y-11081914D01*
D12*
X12858200Y-11496200D02*
X12898200Y-11536200D01*
X12898200Y-11496200D02*
X12858200Y-11536200D01*
D11*
X13193914Y-11406676D02*
X13212962Y-11406676D01*
X13232009Y-11416200D01*
X13241533Y-11425724D01*
X13251057Y-11444771D01*
X13260581Y-11482867D01*
X13260581Y-11530486D01*
X13251057Y-11568581D01*
X13241533Y-11587628D01*
X13232009Y-11597152D01*
X13212962Y-11606676D01*
X13193914Y-11606676D01*
X13174867Y-11597152D01*
X13165343Y-11587628D01*
X13155819Y-11568581D01*
X13146295Y-11530486D01*
X13146295Y-11482867D01*
X13155819Y-11444771D01*
X13165343Y-11425724D01*
X13174867Y-11416200D01*
X13193914Y-11406676D01*
X13346295Y-11587628D02*
X13355819Y-11597152D01*
X13346295Y-11606676D01*
X13336771Y-11597152D01*
X13346295Y-11587628D01*
X13346295Y-11606676D01*
X13527248Y-11473343D02*
X13527248Y-11606676D01*
X13479628Y-11397152D02*
X13432009Y-11540009D01*
X13555819Y-11540009D01*
X13670105Y-11406676D02*
X13689152Y-11406676D01*
X13708200Y-11416200D01*
X13717724Y-11425724D01*
X13727248Y-11444771D01*
X13736771Y-11482867D01*
X13736771Y-11530486D01*
X13727248Y-11568581D01*
X13717724Y-11587628D01*
X13708200Y-11597152D01*
X13689152Y-11606676D01*
X13670105Y-11606676D01*
X13651057Y-11597152D01*
X13641533Y-11587628D01*
X13632009Y-11568581D01*
X13622486Y-11530486D01*
X13622486Y-11482867D01*
X13632009Y-11444771D01*
X13641533Y-11425724D01*
X13651057Y-11416200D01*
X13670105Y-11406676D01*
X13860581Y-11406676D02*
X13879628Y-11406676D01*
X13898676Y-11416200D01*
X13908200Y-11425724D01*
X13917724Y-11444771D01*
X13927248Y-11482867D01*
X13927248Y-11530486D01*
X13917724Y-11568581D01*
X13908200Y-11587628D01*
X13898676Y-11597152D01*
X13879628Y-11606676D01*
X13860581Y-11606676D01*
X13841533Y-11597152D01*
X13832009Y-11587628D01*
X13822486Y-11568581D01*
X13812962Y-11530486D01*
X13812962Y-11482867D01*
X13822486Y-11444771D01*
X13832009Y-11425724D01*
X13841533Y-11416200D01*
X13860581Y-11406676D01*
X14012962Y-11606676D02*
X14012962Y-11473343D01*
X14012962Y-11492390D02*
X14022486Y-11482867D01*
X14041533Y-11473343D01*
X14070105Y-11473343D01*
X14089152Y-11482867D01*
X14098676Y-11501914D01*
X14098676Y-11606676D01*
X14098676Y-11501914D02*
X14108200Y-11482867D01*
X14127248Y-11473343D01*
X14155819Y-11473343D01*
X14174867Y-11482867D01*
X14184390Y-11501914D01*
X14184390Y-11606676D01*
X14279628Y-11606676D02*
X14279628Y-11473343D01*
X14279628Y-11492390D02*
X14289152Y-11482867D01*
X14308200Y-11473343D01*
X14336771Y-11473343D01*
X14355819Y-11482867D01*
X14365343Y-11501914D01*
X14365343Y-11606676D01*
X14365343Y-11501914D02*
X14374867Y-11482867D01*
X14393914Y-11473343D01*
X14422486Y-11473343D01*
X14441533Y-11482867D01*
X14451057Y-11501914D01*
X14451057Y-11606676D01*
X14841533Y-11397152D02*
X14670105Y-11654295D01*
X15098676Y-11406676D02*
X15117724Y-11406676D01*
X15136771Y-11416200D01*
X15146295Y-11425724D01*
X15155819Y-11444771D01*
X15165343Y-11482867D01*
X15165343Y-11530486D01*
X15155819Y-11568581D01*
X15146295Y-11587628D01*
X15136771Y-11597152D01*
X15117724Y-11606676D01*
X15098676Y-11606676D01*
X15079628Y-11597152D01*
X15070105Y-11587628D01*
X15060581Y-11568581D01*
X15051057Y-11530486D01*
X15051057Y-11482867D01*
X15060581Y-11444771D01*
X15070105Y-11425724D01*
X15079628Y-11416200D01*
X15098676Y-11406676D01*
X15251057Y-11587628D02*
X15260581Y-11597152D01*
X15251057Y-11606676D01*
X15241533Y-11597152D01*
X15251057Y-11587628D01*
X15251057Y-11606676D01*
X15384390Y-11406676D02*
X15403438Y-11406676D01*
X15422486Y-11416200D01*
X15432009Y-11425724D01*
X15441533Y-11444771D01*
X15451057Y-11482867D01*
X15451057Y-11530486D01*
X15441533Y-11568581D01*
X15432009Y-11587628D01*
X15422486Y-11597152D01*
X15403438Y-11606676D01*
X15384390Y-11606676D01*
X15365343Y-11597152D01*
X15355819Y-11587628D01*
X15346295Y-11568581D01*
X15336771Y-11530486D01*
X15336771Y-11482867D01*
X15346295Y-11444771D01*
X15355819Y-11425724D01*
X15365343Y-11416200D01*
X15384390Y-11406676D01*
X15641533Y-11606676D02*
X15527248Y-11606676D01*
X15584390Y-11606676D02*
X15584390Y-11406676D01*
X15565343Y-11435248D01*
X15546295Y-11454295D01*
X15527248Y-11463819D01*
X15822486Y-11406676D02*
X15727248Y-11406676D01*
X15717724Y-11501914D01*
X15727248Y-11492390D01*
X15746295Y-11482867D01*
X15793914Y-11482867D01*
X15812962Y-11492390D01*
X15822486Y-11501914D01*
X15832009Y-11520962D01*
X15832009Y-11568581D01*
X15822486Y-11587628D01*
X15812962Y-11597152D01*
X15793914Y-11606676D01*
X15746295Y-11606676D01*
X15727248Y-11597152D01*
X15717724Y-11587628D01*
X15898676Y-11406676D02*
X16032009Y-11406676D01*
X15946295Y-11606676D01*
X16098676Y-11406676D02*
X16098676Y-11444771D01*
X16174867Y-11406676D02*
X16174867Y-11444771D01*
X16470105Y-11682867D02*
X16460581Y-11673343D01*
X16441533Y-11644771D01*
X16432009Y-11625724D01*
X16422486Y-11597152D01*
X16412962Y-11549533D01*
X16412962Y-11511438D01*
X16422486Y-11463819D01*
X16432009Y-11435248D01*
X16441533Y-11416200D01*
X16460581Y-11387628D01*
X16470105Y-11378105D01*
X16632009Y-11473343D02*
X16632009Y-11606676D01*
X16584390Y-11397152D02*
X16536771Y-11540009D01*
X16660581Y-11540009D01*
X16889152Y-11606676D02*
X16889152Y-11406676D01*
X16974867Y-11606676D02*
X16974867Y-11501914D01*
X16965343Y-11482867D01*
X16946295Y-11473343D01*
X16917724Y-11473343D01*
X16898676Y-11482867D01*
X16889152Y-11492390D01*
X17098676Y-11606676D02*
X17079629Y-11597152D01*
X17070105Y-11587628D01*
X17060581Y-11568581D01*
X17060581Y-11511438D01*
X17070105Y-11492390D01*
X17079629Y-11482867D01*
X17098676Y-11473343D01*
X17127248Y-11473343D01*
X17146295Y-11482867D01*
X17155819Y-11492390D01*
X17165343Y-11511438D01*
X17165343Y-11568581D01*
X17155819Y-11587628D01*
X17146295Y-11597152D01*
X17127248Y-11606676D01*
X17098676Y-11606676D01*
X17279629Y-11606676D02*
X17260581Y-11597152D01*
X17251057Y-11578105D01*
X17251057Y-11406676D01*
X17432010Y-11597152D02*
X17412962Y-11606676D01*
X17374867Y-11606676D01*
X17355819Y-11597152D01*
X17346295Y-11578105D01*
X17346295Y-11501914D01*
X17355819Y-11482867D01*
X17374867Y-11473343D01*
X17412962Y-11473343D01*
X17432010Y-11482867D01*
X17441533Y-11501914D01*
X17441533Y-11520962D01*
X17346295Y-11540009D01*
X17517724Y-11597152D02*
X17536771Y-11606676D01*
X17574867Y-11606676D01*
X17593914Y-11597152D01*
X17603438Y-11578105D01*
X17603438Y-11568581D01*
X17593914Y-11549533D01*
X17574867Y-11540009D01*
X17546295Y-11540009D01*
X17527248Y-11530486D01*
X17517724Y-11511438D01*
X17517724Y-11501914D01*
X17527248Y-11482867D01*
X17546295Y-11473343D01*
X17574867Y-11473343D01*
X17593914Y-11482867D01*
X17670105Y-11682867D02*
X17679629Y-11673343D01*
X17698676Y-11644771D01*
X17708200Y-11625724D01*
X17717724Y-11597152D01*
X17727248Y-11549533D01*
X17727248Y-11511438D01*
X17717724Y-11463819D01*
X17708200Y-11435248D01*
X17698676Y-11416200D01*
X17679629Y-11387628D01*
X17670105Y-11378105D01*
D13*
X12898200Y-11780200D02*
G75*
G03*
X12898200Y-11780200I-35000J0D01*
G01*
D11*
X13193914Y-11670676D02*
X13212962Y-11670676D01*
X13232009Y-11680200D01*
X13241533Y-11689724D01*
X13251057Y-11708771D01*
X13260581Y-11746867D01*
X13260581Y-11794486D01*
X13251057Y-11832581D01*
X13241533Y-11851628D01*
X13232009Y-11861152D01*
X13212962Y-11870676D01*
X13193914Y-11870676D01*
X13174867Y-11861152D01*
X13165343Y-11851628D01*
X13155819Y-11832581D01*
X13146295Y-11794486D01*
X13146295Y-11746867D01*
X13155819Y-11708771D01*
X13165343Y-11689724D01*
X13174867Y-11680200D01*
X13193914Y-11670676D01*
X13346295Y-11851628D02*
X13355819Y-11861152D01*
X13346295Y-11870676D01*
X13336771Y-11861152D01*
X13346295Y-11851628D01*
X13346295Y-11870676D01*
X13422486Y-11670676D02*
X13555819Y-11670676D01*
X13470105Y-11870676D01*
X13670105Y-11670676D02*
X13689152Y-11670676D01*
X13708200Y-11680200D01*
X13717724Y-11689724D01*
X13727248Y-11708771D01*
X13736771Y-11746867D01*
X13736771Y-11794486D01*
X13727248Y-11832581D01*
X13717724Y-11851628D01*
X13708200Y-11861152D01*
X13689152Y-11870676D01*
X13670105Y-11870676D01*
X13651057Y-11861152D01*
X13641533Y-11851628D01*
X13632009Y-11832581D01*
X13622486Y-11794486D01*
X13622486Y-11746867D01*
X13632009Y-11708771D01*
X13641533Y-11689724D01*
X13651057Y-11680200D01*
X13670105Y-11670676D01*
X13860581Y-11670676D02*
X13879628Y-11670676D01*
X13898676Y-11680200D01*
X13908200Y-11689724D01*
X13917724Y-11708771D01*
X13927248Y-11746867D01*
X13927248Y-11794486D01*
X13917724Y-11832581D01*
X13908200Y-11851628D01*
X13898676Y-11861152D01*
X13879628Y-11870676D01*
X13860581Y-11870676D01*
X13841533Y-11861152D01*
X13832009Y-11851628D01*
X13822486Y-11832581D01*
X13812962Y-11794486D01*
X13812962Y-11746867D01*
X13822486Y-11708771D01*
X13832009Y-11689724D01*
X13841533Y-11680200D01*
X13860581Y-11670676D01*
X14012962Y-11870676D02*
X14012962Y-11737343D01*
X14012962Y-11756390D02*
X14022486Y-11746867D01*
X14041533Y-11737343D01*
X14070105Y-11737343D01*
X14089152Y-11746867D01*
X14098676Y-11765914D01*
X14098676Y-11870676D01*
X14098676Y-11765914D02*
X14108200Y-11746867D01*
X14127248Y-11737343D01*
X14155819Y-11737343D01*
X14174867Y-11746867D01*
X14184390Y-11765914D01*
X14184390Y-11870676D01*
X14279628Y-11870676D02*
X14279628Y-11737343D01*
X14279628Y-11756390D02*
X14289152Y-11746867D01*
X14308200Y-11737343D01*
X14336771Y-11737343D01*
X14355819Y-11746867D01*
X14365343Y-11765914D01*
X14365343Y-11870676D01*
X14365343Y-11765914D02*
X14374867Y-11746867D01*
X14393914Y-11737343D01*
X14422486Y-11737343D01*
X14441533Y-11746867D01*
X14451057Y-11765914D01*
X14451057Y-11870676D01*
X14841533Y-11661152D02*
X14670105Y-11918295D01*
X15098676Y-11670676D02*
X15117724Y-11670676D01*
X15136771Y-11680200D01*
X15146295Y-11689724D01*
X15155819Y-11708771D01*
X15165343Y-11746867D01*
X15165343Y-11794486D01*
X15155819Y-11832581D01*
X15146295Y-11851628D01*
X15136771Y-11861152D01*
X15117724Y-11870676D01*
X15098676Y-11870676D01*
X15079628Y-11861152D01*
X15070105Y-11851628D01*
X15060581Y-11832581D01*
X15051057Y-11794486D01*
X15051057Y-11746867D01*
X15060581Y-11708771D01*
X15070105Y-11689724D01*
X15079628Y-11680200D01*
X15098676Y-11670676D01*
X15251057Y-11851628D02*
X15260581Y-11861152D01*
X15251057Y-11870676D01*
X15241533Y-11861152D01*
X15251057Y-11851628D01*
X15251057Y-11870676D01*
X15384390Y-11670676D02*
X15403438Y-11670676D01*
X15422486Y-11680200D01*
X15432009Y-11689724D01*
X15441533Y-11708771D01*
X15451057Y-11746867D01*
X15451057Y-11794486D01*
X15441533Y-11832581D01*
X15432009Y-11851628D01*
X15422486Y-11861152D01*
X15403438Y-11870676D01*
X15384390Y-11870676D01*
X15365343Y-11861152D01*
X15355819Y-11851628D01*
X15346295Y-11832581D01*
X15336771Y-11794486D01*
X15336771Y-11746867D01*
X15346295Y-11708771D01*
X15355819Y-11689724D01*
X15365343Y-11680200D01*
X15384390Y-11670676D01*
X15527248Y-11689724D02*
X15536771Y-11680200D01*
X15555819Y-11670676D01*
X15603438Y-11670676D01*
X15622486Y-11680200D01*
X15632009Y-11689724D01*
X15641533Y-11708771D01*
X15641533Y-11727819D01*
X15632009Y-11756390D01*
X15517724Y-11870676D01*
X15641533Y-11870676D01*
X15708200Y-11670676D02*
X15841533Y-11670676D01*
X15755819Y-11870676D01*
X16003438Y-11670676D02*
X15965343Y-11670676D01*
X15946295Y-11680200D01*
X15936771Y-11689724D01*
X15917724Y-11718295D01*
X15908200Y-11756390D01*
X15908200Y-11832581D01*
X15917724Y-11851628D01*
X15927248Y-11861152D01*
X15946295Y-11870676D01*
X15984390Y-11870676D01*
X16003438Y-11861152D01*
X16012962Y-11851628D01*
X16022486Y-11832581D01*
X16022486Y-11784962D01*
X16012962Y-11765914D01*
X16003438Y-11756390D01*
X15984390Y-11746867D01*
X15946295Y-11746867D01*
X15927248Y-11756390D01*
X15917724Y-11765914D01*
X15908200Y-11784962D01*
X16098676Y-11670676D02*
X16098676Y-11708771D01*
X16174867Y-11670676D02*
X16174867Y-11708771D01*
X16470105Y-11946867D02*
X16460581Y-11937343D01*
X16441533Y-11908771D01*
X16432009Y-11889724D01*
X16422486Y-11861152D01*
X16412962Y-11813533D01*
X16412962Y-11775438D01*
X16422486Y-11727819D01*
X16432009Y-11699248D01*
X16441533Y-11680200D01*
X16460581Y-11651628D01*
X16470105Y-11642105D01*
X16641533Y-11670676D02*
X16546295Y-11670676D01*
X16536771Y-11765914D01*
X16546295Y-11756390D01*
X16565343Y-11746867D01*
X16612962Y-11746867D01*
X16632009Y-11756390D01*
X16641533Y-11765914D01*
X16651057Y-11784962D01*
X16651057Y-11832581D01*
X16641533Y-11851628D01*
X16632009Y-11861152D01*
X16612962Y-11870676D01*
X16565343Y-11870676D01*
X16546295Y-11861152D01*
X16536771Y-11851628D01*
X16889152Y-11870676D02*
X16889152Y-11670676D01*
X16974867Y-11870676D02*
X16974867Y-11765914D01*
X16965343Y-11746867D01*
X16946295Y-11737343D01*
X16917724Y-11737343D01*
X16898676Y-11746867D01*
X16889152Y-11756390D01*
X17098676Y-11870676D02*
X17079629Y-11861152D01*
X17070105Y-11851628D01*
X17060581Y-11832581D01*
X17060581Y-11775438D01*
X17070105Y-11756390D01*
X17079629Y-11746867D01*
X17098676Y-11737343D01*
X17127248Y-11737343D01*
X17146295Y-11746867D01*
X17155819Y-11756390D01*
X17165343Y-11775438D01*
X17165343Y-11832581D01*
X17155819Y-11851628D01*
X17146295Y-11861152D01*
X17127248Y-11870676D01*
X17098676Y-11870676D01*
X17279629Y-11870676D02*
X17260581Y-11861152D01*
X17251057Y-11842105D01*
X17251057Y-11670676D01*
X17432010Y-11861152D02*
X17412962Y-11870676D01*
X17374867Y-11870676D01*
X17355819Y-11861152D01*
X17346295Y-11842105D01*
X17346295Y-11765914D01*
X17355819Y-11746867D01*
X17374867Y-11737343D01*
X17412962Y-11737343D01*
X17432010Y-11746867D01*
X17441533Y-11765914D01*
X17441533Y-11784962D01*
X17346295Y-11804009D01*
X17517724Y-11861152D02*
X17536771Y-11870676D01*
X17574867Y-11870676D01*
X17593914Y-11861152D01*
X17603438Y-11842105D01*
X17603438Y-11832581D01*
X17593914Y-11813533D01*
X17574867Y-11804009D01*
X17546295Y-11804009D01*
X17527248Y-11794486D01*
X17517724Y-11775438D01*
X17517724Y-11765914D01*
X17527248Y-11746867D01*
X17546295Y-11737343D01*
X17574867Y-11737343D01*
X17593914Y-11746867D01*
X17670105Y-11946867D02*
X17679629Y-11937343D01*
X17698676Y-11908771D01*
X17708200Y-11889724D01*
X17717724Y-11861152D01*
X17727248Y-11813533D01*
X17727248Y-11775438D01*
X17717724Y-11727819D01*
X17708200Y-11699248D01*
X17698676Y-11680200D01*
X17679629Y-11651628D01*
X17670105Y-11642105D01*
D14*
X12858200Y-12004200D02*
X12858200Y-12084200D01*
X12818200Y-12044200D02*
X12898200Y-12044200D01*
D11*
X13193914Y-11934676D02*
X13212962Y-11934676D01*
X13232009Y-11944200D01*
X13241533Y-11953724D01*
X13251057Y-11972771D01*
X13260581Y-12010867D01*
X13260581Y-12058486D01*
X13251057Y-12096581D01*
X13241533Y-12115628D01*
X13232009Y-12125152D01*
X13212962Y-12134676D01*
X13193914Y-12134676D01*
X13174867Y-12125152D01*
X13165343Y-12115628D01*
X13155819Y-12096581D01*
X13146295Y-12058486D01*
X13146295Y-12010867D01*
X13155819Y-11972771D01*
X13165343Y-11953724D01*
X13174867Y-11944200D01*
X13193914Y-11934676D01*
X13346295Y-12115628D02*
X13355819Y-12125152D01*
X13346295Y-12134676D01*
X13336771Y-12125152D01*
X13346295Y-12115628D01*
X13346295Y-12134676D01*
X13470105Y-12020390D02*
X13451057Y-12010867D01*
X13441533Y-12001343D01*
X13432009Y-11982295D01*
X13432009Y-11972771D01*
X13441533Y-11953724D01*
X13451057Y-11944200D01*
X13470105Y-11934676D01*
X13508200Y-11934676D01*
X13527248Y-11944200D01*
X13536771Y-11953724D01*
X13546295Y-11972771D01*
X13546295Y-11982295D01*
X13536771Y-12001343D01*
X13527248Y-12010867D01*
X13508200Y-12020390D01*
X13470105Y-12020390D01*
X13451057Y-12029914D01*
X13441533Y-12039438D01*
X13432009Y-12058486D01*
X13432009Y-12096581D01*
X13441533Y-12115628D01*
X13451057Y-12125152D01*
X13470105Y-12134676D01*
X13508200Y-12134676D01*
X13527248Y-12125152D01*
X13536771Y-12115628D01*
X13546295Y-12096581D01*
X13546295Y-12058486D01*
X13536771Y-12039438D01*
X13527248Y-12029914D01*
X13508200Y-12020390D01*
X13670105Y-11934676D02*
X13689152Y-11934676D01*
X13708200Y-11944200D01*
X13717724Y-11953724D01*
X13727248Y-11972771D01*
X13736771Y-12010867D01*
X13736771Y-12058486D01*
X13727248Y-12096581D01*
X13717724Y-12115628D01*
X13708200Y-12125152D01*
X13689152Y-12134676D01*
X13670105Y-12134676D01*
X13651057Y-12125152D01*
X13641533Y-12115628D01*
X13632009Y-12096581D01*
X13622486Y-12058486D01*
X13622486Y-12010867D01*
X13632009Y-11972771D01*
X13641533Y-11953724D01*
X13651057Y-11944200D01*
X13670105Y-11934676D01*
X13860581Y-11934676D02*
X13879628Y-11934676D01*
X13898676Y-11944200D01*
X13908200Y-11953724D01*
X13917724Y-11972771D01*
X13927248Y-12010867D01*
X13927248Y-12058486D01*
X13917724Y-12096581D01*
X13908200Y-12115628D01*
X13898676Y-12125152D01*
X13879628Y-12134676D01*
X13860581Y-12134676D01*
X13841533Y-12125152D01*
X13832009Y-12115628D01*
X13822486Y-12096581D01*
X13812962Y-12058486D01*
X13812962Y-12010867D01*
X13822486Y-11972771D01*
X13832009Y-11953724D01*
X13841533Y-11944200D01*
X13860581Y-11934676D01*
X14012962Y-12134676D02*
X14012962Y-12001343D01*
X14012962Y-12020390D02*
X14022486Y-12010867D01*
X14041533Y-12001343D01*
X14070105Y-12001343D01*
X14089152Y-12010867D01*
X14098676Y-12029914D01*
X14098676Y-12134676D01*
X14098676Y-12029914D02*
X14108200Y-12010867D01*
X14127248Y-12001343D01*
X14155819Y-12001343D01*
X14174867Y-12010867D01*
X14184390Y-12029914D01*
X14184390Y-12134676D01*
X14279628Y-12134676D02*
X14279628Y-12001343D01*
X14279628Y-12020390D02*
X14289152Y-12010867D01*
X14308200Y-12001343D01*
X14336771Y-12001343D01*
X14355819Y-12010867D01*
X14365343Y-12029914D01*
X14365343Y-12134676D01*
X14365343Y-12029914D02*
X14374867Y-12010867D01*
X14393914Y-12001343D01*
X14422486Y-12001343D01*
X14441533Y-12010867D01*
X14451057Y-12029914D01*
X14451057Y-12134676D01*
X14841533Y-11925152D02*
X14670105Y-12182295D01*
X15098676Y-11934676D02*
X15117724Y-11934676D01*
X15136771Y-11944200D01*
X15146295Y-11953724D01*
X15155819Y-11972771D01*
X15165343Y-12010867D01*
X15165343Y-12058486D01*
X15155819Y-12096581D01*
X15146295Y-12115628D01*
X15136771Y-12125152D01*
X15117724Y-12134676D01*
X15098676Y-12134676D01*
X15079628Y-12125152D01*
X15070105Y-12115628D01*
X15060581Y-12096581D01*
X15051057Y-12058486D01*
X15051057Y-12010867D01*
X15060581Y-11972771D01*
X15070105Y-11953724D01*
X15079628Y-11944200D01*
X15098676Y-11934676D01*
X15251057Y-12115628D02*
X15260581Y-12125152D01*
X15251057Y-12134676D01*
X15241533Y-12125152D01*
X15251057Y-12115628D01*
X15251057Y-12134676D01*
X15384390Y-11934676D02*
X15403438Y-11934676D01*
X15422486Y-11944200D01*
X15432009Y-11953724D01*
X15441533Y-11972771D01*
X15451057Y-12010867D01*
X15451057Y-12058486D01*
X15441533Y-12096581D01*
X15432009Y-12115628D01*
X15422486Y-12125152D01*
X15403438Y-12134676D01*
X15384390Y-12134676D01*
X15365343Y-12125152D01*
X15355819Y-12115628D01*
X15346295Y-12096581D01*
X15336771Y-12058486D01*
X15336771Y-12010867D01*
X15346295Y-11972771D01*
X15355819Y-11953724D01*
X15365343Y-11944200D01*
X15384390Y-11934676D01*
X15517724Y-11934676D02*
X15641533Y-11934676D01*
X15574867Y-12010867D01*
X15603438Y-12010867D01*
X15622486Y-12020390D01*
X15632009Y-12029914D01*
X15641533Y-12048962D01*
X15641533Y-12096581D01*
X15632009Y-12115628D01*
X15622486Y-12125152D01*
X15603438Y-12134676D01*
X15546295Y-12134676D01*
X15527248Y-12125152D01*
X15517724Y-12115628D01*
X15832009Y-12134676D02*
X15717724Y-12134676D01*
X15774867Y-12134676D02*
X15774867Y-11934676D01*
X15755819Y-11963248D01*
X15736771Y-11982295D01*
X15717724Y-11991819D01*
X16012962Y-11934676D02*
X15917724Y-11934676D01*
X15908200Y-12029914D01*
X15917724Y-12020390D01*
X15936771Y-12010867D01*
X15984390Y-12010867D01*
X16003438Y-12020390D01*
X16012962Y-12029914D01*
X16022486Y-12048962D01*
X16022486Y-12096581D01*
X16012962Y-12115628D01*
X16003438Y-12125152D01*
X15984390Y-12134676D01*
X15936771Y-12134676D01*
X15917724Y-12125152D01*
X15908200Y-12115628D01*
X16098676Y-11934676D02*
X16098676Y-11972771D01*
X16174867Y-11934676D02*
X16174867Y-11972771D01*
X16470105Y-12210867D02*
X16460581Y-12201343D01*
X16441533Y-12172771D01*
X16432009Y-12153724D01*
X16422486Y-12125152D01*
X16412962Y-12077533D01*
X16412962Y-12039438D01*
X16422486Y-11991819D01*
X16432009Y-11963248D01*
X16441533Y-11944200D01*
X16460581Y-11915628D01*
X16470105Y-11906105D01*
X16584390Y-11934676D02*
X16603438Y-11934676D01*
X16622486Y-11944200D01*
X16632009Y-11953724D01*
X16641533Y-11972771D01*
X16651057Y-12010867D01*
X16651057Y-12058486D01*
X16641533Y-12096581D01*
X16632009Y-12115628D01*
X16622486Y-12125152D01*
X16603438Y-12134676D01*
X16584390Y-12134676D01*
X16565343Y-12125152D01*
X16555819Y-12115628D01*
X16546295Y-12096581D01*
X16536771Y-12058486D01*
X16536771Y-12010867D01*
X16546295Y-11972771D01*
X16555819Y-11953724D01*
X16565343Y-11944200D01*
X16584390Y-11934676D01*
X16889152Y-12134676D02*
X16889152Y-11934676D01*
X16974867Y-12134676D02*
X16974867Y-12029914D01*
X16965343Y-12010867D01*
X16946295Y-12001343D01*
X16917724Y-12001343D01*
X16898676Y-12010867D01*
X16889152Y-12020390D01*
X17098676Y-12134676D02*
X17079629Y-12125152D01*
X17070105Y-12115628D01*
X17060581Y-12096581D01*
X17060581Y-12039438D01*
X17070105Y-12020390D01*
X17079629Y-12010867D01*
X17098676Y-12001343D01*
X17127248Y-12001343D01*
X17146295Y-12010867D01*
X17155819Y-12020390D01*
X17165343Y-12039438D01*
X17165343Y-12096581D01*
X17155819Y-12115628D01*
X17146295Y-12125152D01*
X17127248Y-12134676D01*
X17098676Y-12134676D01*
X17279629Y-12134676D02*
X17260581Y-12125152D01*
X17251057Y-12106105D01*
X17251057Y-11934676D01*
X17432010Y-12125152D02*
X17412962Y-12134676D01*
X17374867Y-12134676D01*
X17355819Y-12125152D01*
X17346295Y-12106105D01*
X17346295Y-12029914D01*
X17355819Y-12010867D01*
X17374867Y-12001343D01*
X17412962Y-12001343D01*
X17432010Y-12010867D01*
X17441533Y-12029914D01*
X17441533Y-12048962D01*
X17346295Y-12068009D01*
X17517724Y-12125152D02*
X17536771Y-12134676D01*
X17574867Y-12134676D01*
X17593914Y-12125152D01*
X17603438Y-12106105D01*
X17603438Y-12096581D01*
X17593914Y-12077533D01*
X17574867Y-12068009D01*
X17546295Y-12068009D01*
X17527248Y-12058486D01*
X17517724Y-12039438D01*
X17517724Y-12029914D01*
X17527248Y-12010867D01*
X17546295Y-12001343D01*
X17574867Y-12001343D01*
X17593914Y-12010867D01*
X17841533Y-12058486D02*
X17993914Y-12058486D01*
X17917724Y-12134676D02*
X17917724Y-11982295D01*
X18232010Y-11953724D02*
X18241533Y-11944200D01*
X18260581Y-11934676D01*
X18308200Y-11934676D01*
X18327248Y-11944200D01*
X18336771Y-11953724D01*
X18346295Y-11972771D01*
X18346295Y-11991819D01*
X18336771Y-12020390D01*
X18222486Y-12134676D01*
X18346295Y-12134676D01*
X18574867Y-12125152D02*
X18593914Y-12134676D01*
X18632010Y-12134676D01*
X18651057Y-12125152D01*
X18660581Y-12106105D01*
X18660581Y-12096581D01*
X18651057Y-12077533D01*
X18632010Y-12068009D01*
X18603438Y-12068009D01*
X18584390Y-12058486D01*
X18574867Y-12039438D01*
X18574867Y-12029914D01*
X18584390Y-12010867D01*
X18603438Y-12001343D01*
X18632010Y-12001343D01*
X18651057Y-12010867D01*
X18774867Y-12134676D02*
X18755819Y-12125152D01*
X18746295Y-12106105D01*
X18746295Y-11934676D01*
X18879629Y-12134676D02*
X18860581Y-12125152D01*
X18851057Y-12115628D01*
X18841533Y-12096581D01*
X18841533Y-12039438D01*
X18851057Y-12020390D01*
X18860581Y-12010867D01*
X18879629Y-12001343D01*
X18908200Y-12001343D01*
X18927248Y-12010867D01*
X18936771Y-12020390D01*
X18946295Y-12039438D01*
X18946295Y-12096581D01*
X18936771Y-12115628D01*
X18927248Y-12125152D01*
X18908200Y-12134676D01*
X18879629Y-12134676D01*
X19003438Y-12001343D02*
X19079629Y-12001343D01*
X19032010Y-11934676D02*
X19032010Y-12106105D01*
X19041533Y-12125152D01*
X19060581Y-12134676D01*
X19079629Y-12134676D01*
X19136771Y-12125152D02*
X19155819Y-12134676D01*
X19193914Y-12134676D01*
X19212962Y-12125152D01*
X19222486Y-12106105D01*
X19222486Y-12096581D01*
X19212962Y-12077533D01*
X19193914Y-12068009D01*
X19165343Y-12068009D01*
X19146295Y-12058486D01*
X19136771Y-12039438D01*
X19136771Y-12029914D01*
X19146295Y-12010867D01*
X19165343Y-12001343D01*
X19193914Y-12001343D01*
X19212962Y-12010867D01*
X19289152Y-12210867D02*
X19298676Y-12201343D01*
X19317724Y-12172771D01*
X19327248Y-12153724D01*
X19336771Y-12125152D01*
X19346295Y-12077533D01*
X19346295Y-12039438D01*
X19336771Y-11991819D01*
X19327248Y-11963248D01*
X19317724Y-11944200D01*
X19298676Y-11915628D01*
X19289152Y-11906105D01*
D15*
X12883556Y-12343556D02*
X12883556Y-12272844D01*
X12812844Y-12272844D01*
X12812844Y-12343556D01*
X12883556Y-12343556D01*
D11*
X13260581Y-12398676D02*
X13146295Y-12398676D01*
X13203438Y-12398676D02*
X13203438Y-12198676D01*
X13184390Y-12227248D01*
X13165343Y-12246295D01*
X13146295Y-12255819D01*
X13346295Y-12379628D02*
X13355819Y-12389152D01*
X13346295Y-12398676D01*
X13336771Y-12389152D01*
X13346295Y-12379628D01*
X13346295Y-12398676D01*
X13479628Y-12198676D02*
X13498676Y-12198676D01*
X13517724Y-12208200D01*
X13527248Y-12217724D01*
X13536771Y-12236771D01*
X13546295Y-12274867D01*
X13546295Y-12322486D01*
X13536771Y-12360581D01*
X13527248Y-12379628D01*
X13517724Y-12389152D01*
X13498676Y-12398676D01*
X13479628Y-12398676D01*
X13460581Y-12389152D01*
X13451057Y-12379628D01*
X13441533Y-12360581D01*
X13432009Y-12322486D01*
X13432009Y-12274867D01*
X13441533Y-12236771D01*
X13451057Y-12217724D01*
X13460581Y-12208200D01*
X13479628Y-12198676D01*
X13670105Y-12198676D02*
X13689152Y-12198676D01*
X13708200Y-12208200D01*
X13717724Y-12217724D01*
X13727248Y-12236771D01*
X13736771Y-12274867D01*
X13736771Y-12322486D01*
X13727248Y-12360581D01*
X13717724Y-12379628D01*
X13708200Y-12389152D01*
X13689152Y-12398676D01*
X13670105Y-12398676D01*
X13651057Y-12389152D01*
X13641533Y-12379628D01*
X13632009Y-12360581D01*
X13622486Y-12322486D01*
X13622486Y-12274867D01*
X13632009Y-12236771D01*
X13641533Y-12217724D01*
X13651057Y-12208200D01*
X13670105Y-12198676D01*
X13860581Y-12198676D02*
X13879628Y-12198676D01*
X13898676Y-12208200D01*
X13908200Y-12217724D01*
X13917724Y-12236771D01*
X13927248Y-12274867D01*
X13927248Y-12322486D01*
X13917724Y-12360581D01*
X13908200Y-12379628D01*
X13898676Y-12389152D01*
X13879628Y-12398676D01*
X13860581Y-12398676D01*
X13841533Y-12389152D01*
X13832009Y-12379628D01*
X13822486Y-12360581D01*
X13812962Y-12322486D01*
X13812962Y-12274867D01*
X13822486Y-12236771D01*
X13832009Y-12217724D01*
X13841533Y-12208200D01*
X13860581Y-12198676D01*
X14012962Y-12398676D02*
X14012962Y-12265343D01*
X14012962Y-12284390D02*
X14022486Y-12274867D01*
X14041533Y-12265343D01*
X14070105Y-12265343D01*
X14089152Y-12274867D01*
X14098676Y-12293914D01*
X14098676Y-12398676D01*
X14098676Y-12293914D02*
X14108200Y-12274867D01*
X14127248Y-12265343D01*
X14155819Y-12265343D01*
X14174867Y-12274867D01*
X14184390Y-12293914D01*
X14184390Y-12398676D01*
X14279628Y-12398676D02*
X14279628Y-12265343D01*
X14279628Y-12284390D02*
X14289152Y-12274867D01*
X14308200Y-12265343D01*
X14336771Y-12265343D01*
X14355819Y-12274867D01*
X14365343Y-12293914D01*
X14365343Y-12398676D01*
X14365343Y-12293914D02*
X14374867Y-12274867D01*
X14393914Y-12265343D01*
X14422486Y-12265343D01*
X14441533Y-12274867D01*
X14451057Y-12293914D01*
X14451057Y-12398676D01*
X14841533Y-12189152D02*
X14670105Y-12446295D01*
X15098676Y-12198676D02*
X15117724Y-12198676D01*
X15136771Y-12208200D01*
X15146295Y-12217724D01*
X15155819Y-12236771D01*
X15165343Y-12274867D01*
X15165343Y-12322486D01*
X15155819Y-12360581D01*
X15146295Y-12379628D01*
X15136771Y-12389152D01*
X15117724Y-12398676D01*
X15098676Y-12398676D01*
X15079628Y-12389152D01*
X15070105Y-12379628D01*
X15060581Y-12360581D01*
X15051057Y-12322486D01*
X15051057Y-12274867D01*
X15060581Y-12236771D01*
X15070105Y-12217724D01*
X15079628Y-12208200D01*
X15098676Y-12198676D01*
X15251057Y-12379628D02*
X15260581Y-12389152D01*
X15251057Y-12398676D01*
X15241533Y-12389152D01*
X15251057Y-12379628D01*
X15251057Y-12398676D01*
X15384390Y-12198676D02*
X15403438Y-12198676D01*
X15422486Y-12208200D01*
X15432009Y-12217724D01*
X15441533Y-12236771D01*
X15451057Y-12274867D01*
X15451057Y-12322486D01*
X15441533Y-12360581D01*
X15432009Y-12379628D01*
X15422486Y-12389152D01*
X15403438Y-12398676D01*
X15384390Y-12398676D01*
X15365343Y-12389152D01*
X15355819Y-12379628D01*
X15346295Y-12360581D01*
X15336771Y-12322486D01*
X15336771Y-12274867D01*
X15346295Y-12236771D01*
X15355819Y-12217724D01*
X15365343Y-12208200D01*
X15384390Y-12198676D01*
X15517724Y-12198676D02*
X15641533Y-12198676D01*
X15574867Y-12274867D01*
X15603438Y-12274867D01*
X15622486Y-12284390D01*
X15632009Y-12293914D01*
X15641533Y-12312962D01*
X15641533Y-12360581D01*
X15632009Y-12379628D01*
X15622486Y-12389152D01*
X15603438Y-12398676D01*
X15546295Y-12398676D01*
X15527248Y-12389152D01*
X15517724Y-12379628D01*
X15736771Y-12398676D02*
X15774867Y-12398676D01*
X15793914Y-12389152D01*
X15803438Y-12379628D01*
X15822486Y-12351057D01*
X15832009Y-12312962D01*
X15832009Y-12236771D01*
X15822486Y-12217724D01*
X15812962Y-12208200D01*
X15793914Y-12198676D01*
X15755819Y-12198676D01*
X15736771Y-12208200D01*
X15727248Y-12217724D01*
X15717724Y-12236771D01*
X15717724Y-12284390D01*
X15727248Y-12303438D01*
X15736771Y-12312962D01*
X15755819Y-12322486D01*
X15793914Y-12322486D01*
X15812962Y-12312962D01*
X15822486Y-12303438D01*
X15832009Y-12284390D01*
X16003438Y-12265343D02*
X16003438Y-12398676D01*
X15955819Y-12189152D02*
X15908200Y-12332009D01*
X16032009Y-12332009D01*
X16098676Y-12198676D02*
X16098676Y-12236771D01*
X16174867Y-12198676D02*
X16174867Y-12236771D01*
X16470105Y-12474867D02*
X16460581Y-12465343D01*
X16441533Y-12436771D01*
X16432009Y-12417724D01*
X16422486Y-12389152D01*
X16412962Y-12341533D01*
X16412962Y-12303438D01*
X16422486Y-12255819D01*
X16432009Y-12227248D01*
X16441533Y-12208200D01*
X16460581Y-12179628D01*
X16470105Y-12170105D01*
X16527248Y-12198676D02*
X16651057Y-12198676D01*
X16584390Y-12274867D01*
X16612962Y-12274867D01*
X16632009Y-12284390D01*
X16641533Y-12293914D01*
X16651057Y-12312962D01*
X16651057Y-12360581D01*
X16641533Y-12379628D01*
X16632009Y-12389152D01*
X16612962Y-12398676D01*
X16555819Y-12398676D01*
X16536771Y-12389152D01*
X16527248Y-12379628D01*
X16727248Y-12217724D02*
X16736771Y-12208200D01*
X16755819Y-12198676D01*
X16803438Y-12198676D01*
X16822486Y-12208200D01*
X16832010Y-12217724D01*
X16841533Y-12236771D01*
X16841533Y-12255819D01*
X16832010Y-12284390D01*
X16717724Y-12398676D01*
X16841533Y-12398676D01*
X17079629Y-12398676D02*
X17079629Y-12198676D01*
X17165343Y-12398676D02*
X17165343Y-12293914D01*
X17155819Y-12274867D01*
X17136771Y-12265343D01*
X17108200Y-12265343D01*
X17089152Y-12274867D01*
X17079629Y-12284390D01*
X17289152Y-12398676D02*
X17270105Y-12389152D01*
X17260581Y-12379628D01*
X17251057Y-12360581D01*
X17251057Y-12303438D01*
X17260581Y-12284390D01*
X17270105Y-12274867D01*
X17289152Y-12265343D01*
X17317724Y-12265343D01*
X17336771Y-12274867D01*
X17346295Y-12284390D01*
X17355819Y-12303438D01*
X17355819Y-12360581D01*
X17346295Y-12379628D01*
X17336771Y-12389152D01*
X17317724Y-12398676D01*
X17289152Y-12398676D01*
X17470105Y-12398676D02*
X17451057Y-12389152D01*
X17441533Y-12370105D01*
X17441533Y-12198676D01*
X17622486Y-12389152D02*
X17603438Y-12398676D01*
X17565343Y-12398676D01*
X17546295Y-12389152D01*
X17536771Y-12370105D01*
X17536771Y-12293914D01*
X17546295Y-12274867D01*
X17565343Y-12265343D01*
X17603438Y-12265343D01*
X17622486Y-12274867D01*
X17632010Y-12293914D01*
X17632010Y-12312962D01*
X17536771Y-12332009D01*
X17708200Y-12389152D02*
X17727248Y-12398676D01*
X17765343Y-12398676D01*
X17784390Y-12389152D01*
X17793914Y-12370105D01*
X17793914Y-12360581D01*
X17784390Y-12341533D01*
X17765343Y-12332009D01*
X17736771Y-12332009D01*
X17717724Y-12322486D01*
X17708200Y-12303438D01*
X17708200Y-12293914D01*
X17717724Y-12274867D01*
X17736771Y-12265343D01*
X17765343Y-12265343D01*
X17784390Y-12274867D01*
X17860581Y-12474867D02*
X17870105Y-12465343D01*
X17889152Y-12436771D01*
X17898676Y-12417724D01*
X17908200Y-12389152D01*
X17917724Y-12341533D01*
X17917724Y-12303438D01*
X17908200Y-12255819D01*
X17898676Y-12227248D01*
X17889152Y-12208200D01*
X17870105Y-12179628D01*
X17860581Y-12170105D01*
M02*
